<?xml version="1.0" encoding="UTF-8"?>
<svg width="341px" height="217px" viewBox="0 0 341 217" version="1.1" xmlns="http://www.w3.org/2000/svg" xmlns:xlink="http://www.w3.org/1999/xlink">
    <!-- Generator: Sketch 46.2 (44496) - http://www.bohemiancoding.com/sketch -->
    <title>Group 11 Copy 2</title>
    <desc>Created with Sketch.</desc>
    <defs></defs>
    <g id="Page-1" stroke="none" stroke-width="1" fill="none" fill-rule="evenodd">
        <g id="Apple-TV-Copy-2" transform="translate(-280.000000, -2474.000000)" fill="#F5F5F5">
            <g id="2" transform="translate(249.000000, 1860.000000)">
                <g id="icon2" transform="translate(0.000000, 538.000000)">
                    <g id="Group-11-Copy-2" transform="translate(30.874627, 76.147185)">
                        <rect id="Rectangle-31" x="27.8258649" y="-4.54747351e-13" width="239.315068" height="43.2200068" rx="21.6100034"></rect>
                        <rect id="Rectangle-31-Copy-9" x="275.421652" y="0" width="64.8871718" height="43.2200068" rx="21.6100034"></rect>
                        <rect id="Rectangle-31-Copy-7" x="42.6699863" y="172.880027" width="224.500326" height="43.2200068" rx="21.6100034"></rect>
                        <rect id="Rectangle-31-Copy-4" x="0.504950495" y="86.4400136" width="317.60563" height="43.2200068" rx="21.6100034"></rect>
                        <path d="M247.797187,172.880027 L61.802262,172.880027 C71.8019592,170.984717 79.3635825,162.199746 79.3635825,151.648663 L79.3635825,151.648663 C79.3635825,139.713787 69.6884544,130.038659 57.7535791,130.038659 L57.7535791,130.038659 L27.1830355,130.038659 C28.4945125,129.790086 29.8479262,129.66002 31.2317184,129.66002 L31.2317184,129.66002 L247.797187,129.66002 L227.242155,129.66002 C215.30728,129.66002 205.632152,139.335149 205.632152,151.270024 L205.632152,151.270024 L205.632152,151.270024 C205.632152,163.204899 215.30728,172.880027 227.242155,172.880027 L247.797187,172.880027 Z" id="Combined-Shape"></path>
                        <path d="M256.913952,86.4400136 L44.6603776,86.4400136 C55.502353,85.2807521 63.946365,76.1032371 63.946365,64.9535175 L63.946365,64.9535175 C63.946365,53.0186422 54.271237,43.3435141 42.3363616,43.3435141 L28.9077024,43.3435141 C29.671187,43.2618797 30.4465627,43.2200068 31.2317184,43.2200068 L31.2317184,43.2200068 L256.913952,43.2200068 L245.475684,43.2200068 L245.475684,43.2200068 C233.540809,43.2200068 223.865681,52.8951349 223.865681,64.8300102 L223.865681,64.8300102 L223.865681,64.8300102 C223.865681,76.7648856 233.540809,86.4400136 245.475684,86.4400136 L245.475684,86.4400136 L256.913952,86.4400136 Z" id="Combined-Shape"></path>
                    </g>
                </g>
            </g>
        </g>
    </g>
</svg>