<?xml version="1.0" encoding="UTF-8"?>
<svg width="83px" height="64px" viewBox="0 0 83 64" version="1.1" xmlns="http://www.w3.org/2000/svg" xmlns:xlink="http://www.w3.org/1999/xlink">
    <!-- Generator: Sketch 46.2 (44496) - http://www.bohemiancoding.com/sketch -->
    <title>Group 26</title>
    <desc>Created with Sketch.</desc>
    <defs></defs>
    <g id="Page-1" stroke="none" stroke-width="1" fill="none" fill-rule="evenodd">
        <g id="Apple-TV-Copy-2" transform="translate(-503.000000, -2653.000000)">
            <g id="2" transform="translate(249.000000, 1860.000000)">
                <g id="icon2" transform="translate(0.000000, 538.000000)">
                    <g id="Group-34" transform="translate(25.000000, 0.000000)">
                        <g id="Group-52" transform="translate(167.000000, 193.000000)">
                            <g id="Group-27" transform="translate(0.529412, 50.930435)">
                                <g id="Group-26" transform="translate(56.459344, 0.992405)">
                                    <g id="Group-53" transform="translate(49.500000, 41.000000) rotate(11.000000) translate(-49.500000, -41.000000) translate(6.000000, 8.000000)">
                                        <g id="Group-25" transform="translate(51.091002, 46.005426) rotate(-6.000000) translate(-51.091002, -46.005426) translate(19.591002, 30.005426)">
                                            <rect id="Rectangle-66" fill="#31A311" x="0" y="0" width="62.1285658" height="31.4982131"></rect>
                                            <path d="M8.02790638,2.33320097 L54.1006594,2.33320097 C54.0835853,2.52531793 54.0748628,2.71987672 54.0748628,2.91650122 C54.0748628,6.26350284 56.6022874,9.01194688 59.8275078,9.30664695 L59.8275078,23.3581667 C56.7917577,23.6355542 54.3742255,26.0868563 54.1006594,29.1650122 L8.02790638,29.1650122 C7.75434028,26.0868563 5.33680812,23.6355542 2.30105799,23.3581667 L2.30105799,9.30664695 C5.52627841,9.01194688 8.05370297,6.26350284 8.05370297,2.91650122 C8.05370297,2.71987672 8.04498046,2.52531793 8.02790638,2.33320097 Z M45.4458953,19.8322083 C47.669864,19.8322083 49.4727468,18.0041414 49.4727468,15.7491066 C49.4727468,13.4940718 47.669864,11.6660049 45.4458953,11.6660049 C43.2219267,11.6660049 41.4190439,13.4940718 41.4190439,15.7491066 C41.4190439,18.0041414 43.2219267,19.8322083 45.4458953,19.8322083 Z" id="Combined-Shape" fill="#7FD866"></path>
                                        </g>
                                        <g id="Group-25-Copy" transform="translate(51.474305, 38.674153) rotate(-15.000000) translate(-51.474305, -38.674153) translate(19.974305, 22.674153)">
                                            <rect id="Rectangle-66" fill="#31A311" x="0" y="0" width="62.1285658" height="31.4982131"></rect>
                                            <path d="M8.02790638,2.33320097 L54.1006594,2.33320097 C54.0835853,2.52531793 54.0748628,2.71987672 54.0748628,2.91650122 C54.0748628,6.26350284 56.6022874,9.01194688 59.8275078,9.30664695 L59.8275078,23.3581667 C56.7917577,23.6355542 54.3742255,26.0868563 54.1006594,29.1650122 L8.02790638,29.1650122 C7.75434028,26.0868563 5.33680812,23.6355542 2.30105799,23.3581667 L2.30105799,9.30664695 C5.52627841,9.01194688 8.05370297,6.26350284 8.05370297,2.91650122 C8.05370297,2.71987672 8.04498046,2.52531793 8.02790638,2.33320097 Z M45.4458953,19.8322083 C47.669864,19.8322083 49.4727468,18.0041414 49.4727468,15.7491066 C49.4727468,13.4940718 47.669864,11.6660049 45.4458953,11.6660049 C43.2219267,11.6660049 41.4190439,13.4940718 41.4190439,15.7491066 C41.4190439,18.0041414 43.2219267,19.8322083 45.4458953,19.8322083 Z" id="Combined-Shape" fill="#7FD866"></path>
                                        </g>
                                        <g id="Group-25-Copy-2" transform="translate(35.129417, 33.402919) rotate(-40.000000) translate(-35.129417, -33.402919) translate(3.629417, 17.402919)">
                                            <rect id="Rectangle-66" fill="#31A311" x="0" y="0" width="62.1285658" height="31.4982131"></rect>
                                            <path d="M8.02790638,2.33320097 L54.1006594,2.33320097 C54.0835853,2.52531793 54.0748628,2.71987672 54.0748628,2.91650122 C54.0748628,6.26350284 56.6022874,9.01194688 59.8275078,9.30664695 L59.8275078,23.3581667 C56.7917577,23.6355542 54.3742255,26.0868563 54.1006594,29.1650122 L8.02790638,29.1650122 C7.75434028,26.0868563 5.33680812,23.6355542 2.30105799,23.3581667 L2.30105799,9.30664695 C5.52627841,9.01194688 8.05370297,6.26350284 8.05370297,2.91650122 C8.05370297,2.71987672 8.04498046,2.52531793 8.02790638,2.33320097 Z M45.4458953,19.8322083 C47.669864,19.8322083 49.4727468,18.0041414 49.4727468,15.7491066 C49.4727468,13.4940718 47.669864,11.6660049 45.4458953,11.6660049 C43.2219267,11.6660049 41.4190439,13.4940718 41.4190439,15.7491066 C41.4190439,18.0041414 43.2219267,19.8322083 45.4458953,19.8322083 Z" id="Combined-Shape" fill="#7FD866"></path>
                                        </g>
                                    </g>
                                </g>
                            </g>
                        </g>
                    </g>
                </g>
            </g>
        </g>
    </g>
</svg>