<?xml version="1.0" standalone="no"?>
<!DOCTYPE svg PUBLIC "-//W3C//DTD SVG 20010904//EN"
 "http://www.w3.org/TR/2001/REC-SVG-20010904/DTD/svg10.dtd">
<svg version="1.0" xmlns="http://www.w3.org/2000/svg"
 width="500.000000pt" height="500.000000pt" viewBox="0 0 500.000000 500.000000"
 preserveAspectRatio="xMidYMid meet">
<metadata>
Created by potrace 1.11, written by Peter Selinger 2001-2013
</metadata>
<g transform="translate(0.000000,500.000000) scale(0.100000,-0.100000)"
fill="#000000" stroke="none">
<path d="M539 3675 c-52 -29 -59 -52 -59 -207 0 -154 6 -177 52 -211 26 -20
43 -20 570 -21 622 -2 615 -1 686 -81 102 -116 74 -295 -58 -377 -54 -33 -121
-37 -642 -38 -304 0 -528 -4 -543 -10 -14 -5 -34 -24 -45 -42 -19 -30 -20 -47
-18 -180 l3 -148 32 -32 33 -32 562 -2 c310 -1 577 -4 594 -7 149 -31 236
-113 248 -234 14 -134 -65 -223 -220 -251 -29 -5 -305 -9 -614 -10 -541 0
-564 -1 -589 -20 -47 -35 -52 -55 -49 -220 l3 -154 33 -29 33 -29 587 0 c641
1 664 3 827 61 248 87 401 259 440 494 11 66 5 225 -10 286 -27 101 -79 198
-150 276 -36 40 -74 75 -85 78 -27 9 -25 18 10 58 40 46 98 157 111 215 30
126 32 272 5 378 -43 175 -169 330 -333 413 -169 85 -221 90 -856 90 -442 0
-536 -2 -558 -14z"/>
<path d="M2651 3677 c-55 -28 -63 -53 -63 -198 0 -74 0 -144 1 -156 1 -12 16
-38 35 -57 l33 -36 335 0 335 0 0 -916 c0 -899 0 -916 20 -942 36 -48 55 -53
226 -50 l159 3 29 33 29 32 0 1113 0 1113 -29 34 -29 35 -528 2 c-408 2 -535
0 -553 -10z"/>
<path d="M4050 3679 c-51 -19 -64 -60 -65 -209 -2 -149 6 -184 50 -218 26 -21
38 -22 217 -22 274 0 278 3 278 230 0 227 -3 230 -267 229 -103 0 -199 -5
-213 -10z"/>
</g>
</svg>
