<?xml version="1.0" encoding="UTF-8"?>
<svg width="171px" height="22px" viewBox="0 0 171 22" version="1.1" xmlns="http://www.w3.org/2000/svg" xmlns:xlink="http://www.w3.org/1999/xlink">
    <!-- Generator: Sketch 46.2 (44496) - http://www.bohemiancoding.com/sketch -->
    <title>logo</title>
    <desc>Created with Sketch.</desc>
    <defs></defs>
    <g id="Page-1" stroke="none" stroke-width="1" fill="none" fill-rule="evenodd">
        <g id="Apple-TV-Copy-2" transform="translate(-216.000000, -51.000000)" fill-rule="nonzero" fill="#FFFFFF">
            <g id="logo" transform="translate(216.000000, 51.000000)">
                <path d="M17.9146919,10.6363636 C19.1090047,11.2727273 20.0047393,12.1818182 20.5023697,13.3636364 C20.7014218,13.7272727 20.8009479,14.0909091 20.9004739,14.4545455 C21,14.8181818 21,15.2727273 21,15.7272727 C21,17.1818182 20.6018957,18.4545455 19.7061611,19.3636364 C18.8104265,20.3636364 17.5165877,21.0909091 15.8246445,21.5454545 C14.7298578,21.9090909 13.436019,22 12.042654,22 L1.09478673,22 C0.796208531,22 0.497630332,21.9090909 0.298578199,21.7272727 C0.0995260664,21.5454545 0,21.2727273 0,21 L0,18.8181818 C0,18.5454545 0.0995260664,18.2727273 0.298578199,18 C0.497630332,17.7272727 0.796208531,17.7272727 1.09478673,17.7272727 L12.3412322,17.7272727 C13.6350711,17.7272727 14.6303318,17.5454545 15.3270142,17.0909091 C15.9241706,16.7272727 16.1232227,16.1818182 16.1232227,15.4545455 C16.1232227,14.7272727 15.8246445,14.1818182 15.3270142,13.7272727 C14.6303318,13.1818182 13.535545,12.9090909 12.1421801,12.9090909 L1.09478673,12.9090909 C0.796208531,12.9090909 0.497630332,12.8181818 0.298578199,12.6363636 C0.0995260664,12.4545455 1.76793809e-15,12.1818182 1.76793809e-15,11.8181818 L1.76793809e-15,9.72727273 C1.76793809e-15,9.45454545 0.0995260664,9.18181818 0.298578199,9 C0.497630332,8.81818182 0.796208531,8.72727273 1.09478673,8.72727273 L11.4454976,8.72727273 C12.042654,8.72727273 12.4407583,8.63636364 12.8388626,8.63636364 C13.2369668,8.54545455 13.535545,8.45454545 13.8341232,8.36363636 C14.0331754,8.18181818 14.2322275,8.09090909 14.4312796,7.90909091 C14.6303318,7.72727273 14.6303318,7.63636364 14.7298578,7.45454545 C14.92891,7.18181818 14.92891,6.90909091 14.92891,6.45454545 C14.92891,6.09090909 14.8293839,5.72727273 14.7298578,5.45454545 C14.6303318,5.18181818 14.4312796,5 14.2322275,4.72727273 C13.9336493,4.45454545 13.6350711,4.27272727 13.2369668,4.18181818 C12.8388626,4.36363636 12.3412322,4.27272727 11.7440758,4.27272727 L1.09478673,4.27272727 C0.796208531,4.27272727 0.497630332,4.18181818 0.298578199,4 C0.0995260664,3.81818182 3.53587617e-15,3.54545455 3.53587617e-15,3.18181818 L3.53587617e-15,1 C3.53587617e-15,0.727272727 0.0995260664,0.454545455 0.298578199,0.272727273 C0.497630332,0.0909090909 0.796208531,0 1.09478673,0 L11.4454976,0 C14.3317536,0 16.521327,0.727272727 18.014218,2.09090909 C19.3080569,3.18181818 20.0047393,4.72727273 20.0047393,6.45454545 C19.8056872,8.09090909 19.2085308,9.54545455 17.9146919,10.6363636 L17.9146919,10.6363636 Z" id="Shape"></path>
                <path d="M39.7225434,18.0909091 C39.9075145,18.2727273 40,18.5454545 40,18.8181818 L40,21 C40,21.2727273 39.9075145,21.5454545 39.7225434,21.7272727 C39.5375723,21.9090909 39.2601156,22 38.982659,22 L25.017341,22 C24.7398844,22 24.4624277,21.9090909 24.2774566,21.7272727 C24.0924855,21.5454545 24,21.2727273 24,21 L24,1 C24,0.727272727 24.0924855,0.454545455 24.2774566,0.272727273 C24.4624277,0.0909090909 24.7398844,0 25.017341,0 L27.4219653,0 C27.699422,0 27.9768786,0.0909090909 28.1618497,0.272727273 C28.3468208,0.454545455 28.4393064,0.727272727 28.4393064,1 L28.4393064,17.7272727 L38.8901734,17.7272727 C39.1676301,17.7272727 39.5375723,17.9090909 39.7225434,18.0909091 L39.7225434,18.0909091 Z" id="Shape"></path>
                <path d="M55,7.81597009e-16 C58.5625,7.81597009e-16 61.375,1.056 63.71875,3.256 C65.96875,5.368 67,7.92 67,11 C67,14.08 65.875,16.632 63.71875,18.744 C61.46875,20.856 58.5625,22 55,22 C51.4375,22 48.625,20.944 46.28125,18.744 C44.03125,16.632 43,14.08 43,11 C43,7.92 44.125,5.368 46.28125,3.256 C48.53125,0.968 51.4375,0 55,7.81597009e-16 Z M55,17.6 C57.25,17.6 59.03125,16.896 60.34375,15.664 C61.65625,14.432 62.3125,12.848 62.3125,10.824 C62.3125,8.888 61.65625,7.304 60.34375,5.984 C58.9375,4.664 57.15625,4.048 55,4.048 C52.75,4.048 50.96875,4.752 49.65625,5.984 C48.34375,7.304 47.6875,8.888 47.6875,10.824 C47.6875,12.848 48.34375,14.432 49.65625,15.664 C50.96875,16.984 52.75,17.6 55,17.6 Z" id="Shape"></path>
                <path d="M78.3906796,4.52419355 C77.4686269,4.87903226 76.82319,5.32258065 76.2699583,5.94354839 C75.0712898,7.09677419 74.5180582,8.78225806 74.5180582,10.8225806 C74.5180582,12.8629032 75.0712898,14.5483871 76.2699583,15.7016129 C77.4686269,17.0322581 79.3127323,17.6532258 81.8022745,17.6532258 C83.0931483,17.6532258 84.1996116,17.3870968 85.1216643,16.766129 C86.1359222,16.1451613 86.8735644,15.3467742 87.3345907,14.3709677 C87.426796,14.1935484 87.5190013,14.016129 87.7034118,13.9274194 C87.8878223,13.8387097 88.0722329,13.75 88.3488487,13.75 L90.838391,13.75 C91.2072121,13.75 91.4838279,13.9274194 91.7604437,14.1935484 C92.0370595,14.5483871 92.0370595,14.8145161 91.9448542,15.1693548 C91.2072121,17.2096774 89.9163383,18.8951613 88.0722329,20.0483871 C86.1359222,21.3790323 83.9229957,22 81.3412482,22 C77.9296532,22 75.1634951,20.9354839 73.0427739,18.7177419 C71.1064632,16.6774194 70,14.1048387 70,11 C70,7.89516129 71.014258,5.32258065 73.0427739,3.28225806 C75.1634951,1.15322581 77.9296532,0 81.3412482,0 C83.9229957,0 86.1359222,0.620967742 88.0722329,1.9516129 C89.824133,3.10483871 91.1150068,4.7016129 91.9448542,6.83064516 C92.0370595,7.18548387 92.0370595,7.54032258 91.7604437,7.80645161 C91.4838279,8.07258065 91.2994173,8.25 90.838391,8.25 L88.3488487,8.25 C88.0722329,8.25 87.9800276,8.16129032 87.7034118,8.07258065 C87.5190013,7.98387097 87.426796,7.80645161 87.3345907,7.62903226 C86.8735644,6.65322581 86.284389,5.71273368 85.1216643,5.0486363 C84.1996116,4.51637824 83.1603306,4.18617354 81.8022745,4.00875419 C80.3673619,3.9751601 79.220527,4.16935484 78.3906796,4.52419355 Z" id="Shape"></path>
                <path d="M116.769813,20.3703704 C117.058283,20.7325103 117.058283,21.0946502 116.86597,21.4567901 C116.673657,21.81893 116.28903,22 115.808248,22 L112.635082,22 C112.250456,22 111.961986,21.81893 111.673516,21.5473251 L103.884836,11.3168724 L100.615514,14.0329218 L100.615514,20.9135802 C100.615514,21.1851852 100.519357,21.4567901 100.327044,21.6378601 C100.134731,21.81893 99.8462617,21.909465 99.5577921,21.909465 L97.057722,21.909465 C96.7692523,21.909465 96.4807827,21.81893 96.2884696,21.6378601 C96.0961565,21.4567901 96,21.1851852 96,20.9135802 L96,0.995884774 C96,0.724279835 96.0961565,0.452674897 96.2884696,0.271604938 C96.4807827,0.0905349794 96.7692523,0 97.057722,0 L99.5577921,0 C99.8462617,0 100.134731,0.0905349794 100.327044,0.271604938 C100.519357,0.452674897 100.615514,0.724279835 100.615514,0.995884774 L100.615514,8.14814815 L109.942699,0.271604938 C110.135012,0.0905349794 110.423481,1.00514019e-15 110.711951,1.00514019e-15 L114.173586,1.00514019e-15 C114.462056,1.00514019e-15 114.558213,0.0905349794 114.846682,0.181069959 C115.038995,0.271604938 115.135152,0.452674897 115.231308,0.633744856 C115.423621,1.08641975 115.327465,1.44855967 114.942839,1.72016461 L107.250315,8.23868313 L116.769813,20.3703704 L116.769813,20.3703704 Z" id="Shape"></path>
                <path d="M137.9,2.66453526e-15 C138.2,2.66453526e-15 138.5,0.0890688259 138.7,0.267206478 C138.9,0.44534413 139,0.712550607 139,1.06882591 L139,3.20647773 C139,3.47368421 138.9,3.74089069 138.7,4.00809717 C138.5,4.18623482 138.2,4.27530364 137.9,4.27530364 L134.4,4.27530364 C134.1,4.27530364 133.8,4.18623482 133.5,4.00809717 C133.3,3.82995951 133.2,3.56275304 133.2,3.20647773 L133.2,1.06882591 C133.2,0.801619433 133.3,0.534412955 133.5,0.267206478 C133.7,2.76342152e-15 134.1,2.81286465e-15 134.4,2.81286465e-15 L137.9,2.66453526e-15 Z M129.7,2.22494088e-15 C130,2.22494088e-15 130.3,0.0890688259 130.6,0.267206478 C130.9,0.44534413 130.9,0.712550607 130.9,1.06882591 L130.9,21.0202429 C130.9,21.2874494 130.8,21.5546559 130.6,21.7327935 C130.4,21.9109312 130,22 129.7,22 L127.1,22 C126.8,22 126.5,21.9109312 126.3,21.7327935 C126.1,21.5546559 126,21.2874494 126,21.0202429 L126,4.27530364 L119.1,4.27530364 C118.8,4.27530364 118.5,4.18623482 118.3,4.00809717 C118.1,3.82995951 118,3.56275304 118,3.20647773 L118,1.06882591 C118,0.801619433 118.1,0.534412955 118.3,0.267206478 C118.5,-4.94431307e-17 118.8,0 119.1,0 C119,0 129.7,0 129.7,0 L129.7,2.22494088e-15 Z" id="Shape"></path>
                <path d="M145.6875,0.272727273 C145.895833,0.454545455 146,0.727272727 146,1 L146,21 C146,21.2727273 145.895833,21.5454545 145.6875,21.7272727 C145.479167,21.9090909 145.166667,22 144.854167,22 L142.145833,22 C141.833333,22 141.520833,21.9090909 141.3125,21.7272727 C141.104167,21.5454545 141,21.2727273 141,21 L141,1 C141,0.727272727 141.104167,0.454545455 141.3125,0.272727273 C141.520833,0.0909090909 141.833333,0 142.145833,0 L144.854167,0 C145.166667,0 145.375,0.0909090909 145.6875,0.272727273 Z" id="Shape"></path>
                <path d="M170.780367,20.2798354 C171.05561,20.6419753 171.05561,21.0041152 170.872115,21.3662551 C170.780367,21.5473251 170.596871,21.7283951 170.505124,21.81893 C170.321628,21.909465 170.138132,22 169.954637,22 L166.926959,22 C166.559968,22 166.284725,21.81893 166.009481,21.6378601 L160.045874,14.2139918 L154.082267,21.6378601 C153.898771,21.909465 153.53178,22 153.164789,22 L150.137111,22 C149.678372,22 149.403129,21.81893 149.127885,21.4567901 C148.94439,21.0946502 148.94439,20.6419753 149.219633,20.3703704 L165.275499,0.452674897 C165.458994,0.181069959 165.825986,0.0905349794 166.192977,0.0905349794 L169.220654,0.0905349794 C169.679393,0.0905349794 169.954637,0.271604938 170.22988,0.633744856 C170.413376,0.995884774 170.413376,1.35802469 170.138132,1.72016461 L162.890056,10.6831276 L170.780367,20.2798354 L170.780367,20.2798354 Z M150.045363,1.62962963 C149.77012,1.26748971 149.77012,0.905349794 149.953615,0.543209877 C150.137111,0.181069959 150.504102,0 150.962841,0 L153.990519,0 C154.35751,0 154.632753,0.181069959 154.907997,0.362139918 L159.311891,5.88477366 C159.587135,6.24691358 159.587135,6.6090535 159.403639,6.97119342 C159.220144,7.33333333 158.853152,7.51440329 158.394413,7.51440329 L155.458484,7.51440329 C155.091492,7.51440329 154.816249,7.33333333 154.541006,7.15226337 L150.045363,1.62962963 L150.045363,1.62962963 Z" id="Shape"></path>
            </g>
        </g>
    </g>
</svg>