<?xml version="1.0" encoding="UTF-8"?>
<svg width="59px" height="50px" viewBox="0 0 59 50" version="1.1" xmlns="http://www.w3.org/2000/svg" xmlns:xlink="http://www.w3.org/1999/xlink">
    <!-- Generator: Sketch 46.2 (44496) - http://www.bohemiancoding.com/sketch -->
    <title>Group 12</title>
    <desc>Created with Sketch.</desc>
    <defs></defs>
    <g id="Page-1" stroke="none" stroke-width="1" fill="none" fill-rule="evenodd">
        <g id="Apple-TV-Copy-2" transform="translate(-1050.000000, -3128.000000)">
            <g id="3" transform="translate(384.000000, 2756.000000)">
                <g id="item1" transform="translate(269.000000, 296.000000)">
                    <g id="Group-12" transform="translate(395.000000, 74.000000)">
                        <rect id="Path" fill="#FCD0D2" transform="translate(26.500000, 26.500000) rotate(-45.000000) translate(-26.500000, -26.500000) " x="8" y="8" width="37" height="37" rx="6"></rect>
                        <rect id="Path-Copy" fill="#FFEDEE" transform="translate(39.000000, 28.000000) rotate(34.000000) translate(-39.000000, -28.000000) " x="22" y="11" width="34" height="34" rx="6"></rect>
                        <path d="M50.3396064,26.2091196 L40.2081634,8.66094567 C38.5513092,5.79118993 34.8817667,4.807939 32.012011,6.46479325 L10.6609457,18.7918366 L10.6609457,18.7918366 C7.79118993,20.4486908 6.807939,24.1182333 8.46479325,26.987989 L8.46479325,26.987989 L9.99907342,29.6454402 L16.4001577,29.6454402 C17.2285848,29.6454402 17.9001577,30.3170131 17.9001577,31.1454402 L17.9001577,31.5817608 C17.9001577,32.410188 17.2285848,33.0817608 16.4001577,33.0817608 L11.9830341,33.0817608 L15.2896351,38.8089619 L23.272799,38.8089619 C24.1012261,38.8089619 24.772799,39.4805347 24.772799,40.3089619 L24.772799,40.7452825 C24.772799,41.5737096 24.1012261,42.2452825 23.272799,42.2452825 L17.2735958,42.2452825 L20.7918366,48.3390543 C22.4486908,51.2088101 26.1182333,52.192061 28.987989,50.5352068 L50.3390543,38.2081634 C53.2088101,36.5513092 54.192061,32.8817667 52.5352068,30.012011 L52.323567,29.6454402 L43.4544021,29.6454402 C42.625975,29.6454402 41.9544021,28.9738673 41.9544021,28.1454402 L41.9544021,27.7091196 C41.9544021,26.8806925 42.625975,26.2091196 43.4544021,26.2091196 L50.3396064,26.2091196 Z" id="Combined-Shape" fill="#EF494D"></path>
                    </g>
                </g>
            </g>
        </g>
    </g>
</svg>