<?xml version="1.0" encoding="UTF-8"?>
<svg width="206px" height="193px" viewBox="0 0 206 193" version="1.1" xmlns="http://www.w3.org/2000/svg" xmlns:xlink="http://www.w3.org/1999/xlink">
    <!-- Generator: Sketch 46.2 (44496) - http://www.bohemiancoding.com/sketch -->
    <title>icon2</title>
    <desc>Created with Sketch.</desc>
    <defs></defs>
    <g id="Page-1" stroke="none" stroke-width="1" fill="none" fill-rule="evenodd">
        <g id="Apple-TV-Copy-2" transform="translate(-1060.000000, -3322.000000)">
            <g id="3" transform="translate(384.000000, 2756.000000)">
                <g id="item2" transform="translate(0.000000, 565.000000)">
                    <g id="icon2" transform="translate(676.000000, 0.000000)">
                        <g id="Group-14" fill="#FFEDEE">
                            <g id="Group-11-Copy" transform="translate(110.577501, 100.836138) rotate(-27.000000) translate(-110.577501, -100.836138) translate(44.077501, 46.336138)">
                                <rect id="Rectangle-31" x="0.777777778" y="0" width="120.555556" height="21.8" rx="10.9"></rect>
                                <rect id="Rectangle-31-Copy-7" x="0.777777778" y="87.2" width="120.555556" height="21.8" rx="10.9"></rect>
                                <rect id="Rectangle-31-Copy-4" x="0.777777778" y="43.6" width="132.037037" height="21.8" rx="10.9"></rect>
                                <path d="M111.574074,65.4 L10.537037,65.4 L18.5814815,65.4 L18.5814815,65.4 C24.6013853,65.4 29.4814815,70.2800962 29.4814815,76.3 L29.4814815,76.3 L29.4814815,76.3 C29.4814815,82.3199038 24.6013853,87.2 18.5814815,87.2 L10.537037,87.2 L111.574074,87.2 L101.233333,87.2 L101.233333,87.2 C95.2134296,87.2 90.3333333,82.3199038 90.3333333,76.3 L90.3333333,76.3 L90.3333333,76.3 C90.3333333,70.2800962 95.2134296,65.4 101.233333,65.4 L101.233333,65.4 L111.574074,65.4 Z" id="Combined-Shape"></path>
                                <path d="M25.462963,21.8 L109.859259,21.8 L109.859259,21.8 C109.952749,21.8 110.045963,21.801177 110.138889,21.803517 C104.248215,21.9518512 99.5185185,26.7735857 99.5185185,32.7 C99.5185185,38.6264143 104.248215,43.4481488 110.138889,43.596483 C110.045963,43.598823 109.952749,43.6 109.859259,43.6 L25.462963,43.6 L27.7666667,43.6 C33.7865704,43.6 38.6666667,38.7199038 38.6666667,32.7 L38.6666667,32.7 C38.6666667,26.6800962 33.7865704,21.8 27.7666667,21.8 L27.7666667,21.8 L25.462963,21.8 Z" id="Combined-Shape"></path>
                            </g>
                            <path d="M21,44 C16.581722,44 13,40.418278 13,36 C13,31.581722 16.581722,28 21,28 C25.418278,28 29,31.581722 29,36 C29,40.418278 25.418278,44 21,44 Z M21,40.5714286 C23.5247303,40.5714286 25.5714286,38.5247303 25.5714286,36 C25.5714286,33.4752697 23.5247303,31.4285714 21,31.4285714 C18.4752697,31.4285714 16.4285714,33.4752697 16.4285714,36 C16.4285714,38.5247303 18.4752697,40.5714286 21,40.5714286 Z" id="Combined-Shape-Copy-3"></path>
                            <path d="M181,171 C176.581722,171 173,167.418278 173,163 C173,158.581722 176.581722,155 181,155 C185.418278,155 189,158.581722 189,163 C189,167.418278 185.418278,171 181,171 Z M181,167.571429 C183.52473,167.571429 185.571429,165.52473 185.571429,163 C185.571429,160.47527 183.52473,158.428571 181,158.428571 C178.47527,158.428571 176.428571,160.47527 176.428571,163 C176.428571,165.52473 178.47527,167.571429 181,167.571429 Z" id="Combined-Shape-Copy-4"></path>
                            <path d="M190.5,52 C186.357864,52 183,48.6421356 183,44.5 C183,40.3578644 186.357864,37 190.5,37 C194.642136,37 198,40.3578644 198,44.5 C198,48.6421356 194.642136,52 190.5,52 Z M190.5,48.5384615 C192.730381,48.5384615 194.538462,46.7303807 194.538462,44.5 C194.538462,42.2696193 192.730381,40.4615385 190.5,40.4615385 C188.269619,40.4615385 186.461538,42.2696193 186.461538,44.5 C186.461538,46.7303807 188.269619,48.5384615 190.5,48.5384615 Z" id="Combined-Shape-Copy-5"></path>
                            <path d="M183.068058,94.2000935 L201.737391,87.2958505 C204.312678,85.8348411 205.748259,85.8348411 206.044134,87.2958505 C206.383157,88.9699197 203.028095,89.3961927 201.737391,90.0615358 C200.393274,90.7544126 194.170163,92.1339318 183.068058,94.2000935 Z" id="Path-14-Copy-6" transform="translate(194.568058, 90.200093) rotate(-1.000000) translate(-194.568058, -90.200093) "></path>
                            <path d="M40.7141016,169.959292 L59.3834342,163.055049 C61.9587214,161.59404 63.3943026,161.59404 63.6901778,163.055049 C64.0292006,164.729118 60.6741385,165.155391 59.3834342,165.820735 C58.0393171,166.513611 51.8162062,167.893131 40.7141016,169.959292 Z" id="Path-14-Copy-7" transform="translate(52.214102, 165.959292) scale(-1, 1) rotate(60.000000) translate(-52.214102, -165.959292) "></path>
                            <path d="M150.323268,27.6180312 L168.9926,20.7137882 C171.567887,19.2527788 173.003469,19.2527788 173.299344,20.7137882 C173.638367,22.3878574 170.283305,22.8141304 168.9926,23.4794735 C167.648483,24.1723503 161.425372,25.5518695 150.323268,27.6180312 Z" id="Path-14-Copy-8" transform="translate(161.823268, 23.618031) rotate(-33.000000) translate(-161.823268, -23.618031) "></path>
                            <path d="M61.2497497,15.9841538 L79.9190823,9.0799108 C82.4943695,7.61890144 83.9299507,7.61890144 84.2258259,9.0799108 C84.5648487,10.75398 81.2097866,11.180253 79.9190823,11.8455961 C78.5749652,12.5384729 72.3518543,13.9179921 61.2497497,15.9841538 Z" id="Path-14-Copy-9" transform="translate(72.749750, 11.984154) rotate(-99.000000) translate(-72.749750, -11.984154) "></path>
                            <path d="M133.48707,186.804862 L152.156402,179.900619 C154.73169,178.43961 156.167271,178.43961 156.463146,179.900619 C156.802169,181.574688 153.447107,182.000961 152.156402,182.666304 C150.812285,183.359181 144.589174,184.7387 133.48707,186.804862 Z" id="Path-14-Copy-10" transform="translate(144.987070, 182.804862) rotate(-275.000000) translate(-144.987070, -182.804862) "></path>
                            <path d="M-0.119338465,124.456235 L18.5499941,117.551992 C21.1252813,116.090983 22.5608626,116.090983 22.8567377,117.551992 C23.1957605,119.226062 19.8406985,119.652334 18.5499941,120.317678 C17.205877,121.010554 10.9827661,122.390074 -0.119338465,124.456235 Z" id="Path-14-Copy-11" transform="translate(11.380662, 120.456235) scale(-1, 1) rotate(40.000000) translate(-11.380662, -120.456235) "></path>
                        </g>
                        <g id="Group-15" transform="translate(25.000000, 35.000000)">
                            <rect id="Rectangle-44" fill="#EA484C" x="0" y="103" width="160" height="3" rx="1.5"></rect>
                            <circle id="Oval-11" fill="#EA484C" cx="27" cy="102" r="3"></circle>
                            <circle id="Oval-11-Copy" fill="#EA484C" cx="142" cy="102" r="3"></circle>
                            <rect id="Rectangle-45" fill="#EA484C" x="164" y="103" width="6" height="3" rx="1.5"></rect>
                            <rect id="Rectangle-43" fill="#EA484C" x="58" y="67" width="56" height="38" rx="8"></rect>
                            <path d="M67,69 L105,69 L105,69 C108.865993,69 112,72.1340068 112,76 L112,96 L112,96 C112,99.8659932 108.865993,103 105,103 L67,103 L67,103 C63.1340068,103 60,99.8659932 60,96 L60,76 L60,76 C60,72.1340068 63.1340068,69 67,69 Z" id="Rectangle-43-Copy" fill="#FFFFFF"></path>
                            <rect id="Rectangle-34" fill="#EA484C" x="51" y="51" width="56" height="73" rx="7"></rect>
                            <path d="M59,53 L99,53 L99,53 C102.313708,53 105,55.6862915 105,59 L105,116 L105,116 C105,119.313708 102.313708,122 99,122 L59,122 L59,122 C55.6862915,122 53,119.313708 53,116 L53,59 L53,59 C53,55.6862915 55.6862915,53 59,53 Z" id="Rectangle-35" fill="#FFFFFF"></path>
                            <rect id="Rectangle-36" fill="#EA484C" x="58" y="34" width="42" height="45" rx="7"></rect>
                            <path d="M66,36 L92,36 L92,36 C95.3137085,36 98,38.6862915 98,42 L98,71 L98,71 C98,74.3137085 95.3137085,77 92,77 L66,77 L66,77 C62.6862915,77 60,74.3137085 60,71 L60,42 L60,42 C60,38.6862915 62.6862915,36 66,36 Z" id="Rectangle-37" fill="#FFFFFF"></path>
                            <path d="M93.0627392,11.8863092 L93.0627392,40 L93.0627392,40 C93.0627392,42.209139 91.2718782,44 89.0627392,44 L69,44 C66.790861,44 65,42.209139 65,40 L65,10.9967149 C65,10.5907068 65.0604902,10.198827 65.17295,9.82959608 L65.0396394,9.81971944 C65.2180983,6.13351978 66.0973426,3.57534997 67.6773725,2.14520998 C69.2574023,0.715069993 71.0809779,0 73.1480993,0 L92.9335441,0 C96.1383001,0 98.5143805,1.63661991 100.061785,4.90985972 C101.60919,8.18309953 101.242485,10.5085827 98.9616695,11.8863092 L93.0627392,11.8863092 Z" id="Combined-Shape" fill="#EA484C"></path>
                            <path d="M90.6050167,9.78368712 L90.6050167,40 C90.6050167,41.1045695 89.7095862,42 88.6050167,42 L69,42 C67.8954305,42 67,41.1045695 67,40 L67,9.04437726 L67,9.04437726 C67,8.84044049 67.0305237,8.64363291 67.0872517,8.45827384 C67.4236148,4.15275795 69.6664113,2 73.8156412,2 C78.3309075,2 84.7256937,2 93,2 C91.5395559,3.39421803 90.7412281,5.9887804 90.6050167,9.78368712 Z" id="Combined-Shape" fill="#FFFFFF"></path>
                            <path d="M95.3409345,2 C94.3555497,3.28128868 93.7059101,4.4602222 93.392016,5.53680054 C93.0781218,6.61337888 92.9527331,8.10111203 93.0158499,10 L98.0736649,10 C99.1391445,9.0904409 99.2854804,7.71542588 98.5126727,5.87495495 C97.739865,4.03448402 96.6826189,2.74283237 95.3409345,2 Z" id="Path-17" fill="#FFFFFF"></path>
                            <rect id="Rectangle-40" fill="#EA484C" x="73" y="15" width="10" height="3" rx="1.5"></rect>
                            <rect id="Rectangle-40-Copy" fill="#EA484C" x="73" y="21" width="12" height="3" rx="1.5"></rect>
                            <rect id="Rectangle-40-Copy-2" fill="#EA484C" x="73" y="27" width="12" height="3" rx="1.5"></rect>
                            <rect id="Rectangle-41" fill="#FBC6C9" x="65" y="51" width="28" height="20" rx="6"></rect>
                            <rect id="Rectangle-42" fill="#FBC6C9" x="60" y="87" width="10" height="5" rx="2.5"></rect>
                            <rect id="Rectangle-42-Copy-4" fill="#FBC6C9" x="74" y="87" width="10" height="5" rx="2.5"></rect>
                            <rect id="Rectangle-42-Copy-8" fill="#FBC6C9" x="88" y="87" width="10" height="5" rx="2.5"></rect>
                            <rect id="Rectangle-42-Copy" fill="#FBC6C9" x="60" y="94" width="10" height="5" rx="2.5"></rect>
                            <rect id="Rectangle-42-Copy-5" fill="#FBC6C9" x="74" y="94" width="10" height="5" rx="2.5"></rect>
                            <rect id="Rectangle-42-Copy-9" fill="#FBC6C9" x="88" y="94" width="10" height="5" rx="2.5"></rect>
                            <rect id="Rectangle-42-Copy-2" fill="#FBC6C9" x="60" y="101" width="10" height="5" rx="2.5"></rect>
                            <rect id="Rectangle-42-Copy-6" fill="#FBC6C9" x="74" y="101" width="10" height="5" rx="2.5"></rect>
                            <rect id="Rectangle-42-Copy-10" fill="#FBC6C9" x="88" y="101" width="10" height="5" rx="2.5"></rect>
                            <rect id="Rectangle-42-Copy-3" fill="#EA484C" x="60" y="108" width="10" height="5" rx="2.5"></rect>
                            <rect id="Rectangle-42-Copy-7" fill="#FBC6C9" x="74" y="108" width="10" height="5" rx="2.5"></rect>
                            <rect id="Rectangle-42-Copy-11" fill="#EA484C" x="88" y="108" width="10" height="5" rx="2.5"></rect>
                        </g>
                    </g>
                </g>
            </g>
        </g>
    </g>
</svg>