<?xml version="1.0" encoding="UTF-8"?>
<svg width="206px" height="193px" viewBox="0 0 206 193" version="1.1" xmlns="http://www.w3.org/2000/svg" xmlns:xlink="http://www.w3.org/1999/xlink">
    <!-- Generator: Sketch 46.2 (44496) - http://www.bohemiancoding.com/sketch -->
    <title>icon3</title>
    <desc>Created with Sketch.</desc>
    <defs></defs>
    <g id="Page-1" stroke="none" stroke-width="1" fill="none" fill-rule="evenodd">
        <g id="Apple-TV-Copy-2" transform="translate(-688.000000, -3604.000000)">
            <g id="3" transform="translate(384.000000, 2756.000000)">
                <g id="item3" transform="translate(304.000000, 847.000000)">
                    <g id="icon3">
                        <g id="Group-14-Copy" fill="#FFEDEE">
                            <g id="Group-11-Copy" transform="translate(110.577501, 100.836138) rotate(-27.000000) translate(-110.577501, -100.836138) translate(44.077501, 46.336138)">
                                <rect id="Rectangle-31" x="0.777777778" y="0" width="120.555556" height="21.8" rx="10.9"></rect>
                                <rect id="Rectangle-31-Copy-7" x="0.777777778" y="87.2" width="120.555556" height="21.8" rx="10.9"></rect>
                                <rect id="Rectangle-31-Copy-4" x="0.777777778" y="43.6" width="132.037037" height="21.8" rx="10.9"></rect>
                                <path d="M111.574074,65.4 L10.537037,65.4 L18.5814815,65.4 L18.5814815,65.4 C24.6013853,65.4 29.4814815,70.2800962 29.4814815,76.3 L29.4814815,76.3 L29.4814815,76.3 C29.4814815,82.3199038 24.6013853,87.2 18.5814815,87.2 L10.537037,87.2 L111.574074,87.2 L101.233333,87.2 L101.233333,87.2 C95.2134296,87.2 90.3333333,82.3199038 90.3333333,76.3 L90.3333333,76.3 L90.3333333,76.3 C90.3333333,70.2800962 95.2134296,65.4 101.233333,65.4 L101.233333,65.4 L111.574074,65.4 Z" id="Combined-Shape"></path>
                                <path d="M15.1296296,21.8 L116.166667,21.8 L110.418519,21.8 C104.398615,21.8 99.5185185,26.6800962 99.5185185,32.7 C99.5185185,38.7199038 104.398615,43.6 110.418519,43.6 L110.418519,43.6 L116.166667,43.6 L15.1296296,43.6 L27.7666667,43.6 C33.7865704,43.6 38.6666667,38.7199038 38.6666667,32.7 L38.6666667,32.7 C38.6666667,26.6800962 33.7865704,21.8 27.7666667,21.8 L27.7666667,21.8 L15.1296296,21.8 Z M15.1296296,43.6 L2.49259259,43.6 Z" id="Combined-Shape"></path>
                            </g>
                            <path d="M21,44 C16.581722,44 13,40.418278 13,36 C13,31.581722 16.581722,28 21,28 C25.418278,28 29,31.581722 29,36 C29,40.418278 25.418278,44 21,44 Z M21,40.5714286 C23.5247303,40.5714286 25.5714286,38.5247303 25.5714286,36 C25.5714286,33.4752697 23.5247303,31.4285714 21,31.4285714 C18.4752697,31.4285714 16.4285714,33.4752697 16.4285714,36 C16.4285714,38.5247303 18.4752697,40.5714286 21,40.5714286 Z" id="Combined-Shape-Copy-3"></path>
                            <path d="M181,171 C176.581722,171 173,167.418278 173,163 C173,158.581722 176.581722,155 181,155 C185.418278,155 189,158.581722 189,163 C189,167.418278 185.418278,171 181,171 Z M181,167.571429 C183.52473,167.571429 185.571429,165.52473 185.571429,163 C185.571429,160.47527 183.52473,158.428571 181,158.428571 C178.47527,158.428571 176.428571,160.47527 176.428571,163 C176.428571,165.52473 178.47527,167.571429 181,167.571429 Z" id="Combined-Shape-Copy-4"></path>
                            <path d="M190.5,52 C186.357864,52 183,48.6421356 183,44.5 C183,40.3578644 186.357864,37 190.5,37 C194.642136,37 198,40.3578644 198,44.5 C198,48.6421356 194.642136,52 190.5,52 Z M190.5,48.5384615 C192.730381,48.5384615 194.538462,46.7303807 194.538462,44.5 C194.538462,42.2696193 192.730381,40.4615385 190.5,40.4615385 C188.269619,40.4615385 186.461538,42.2696193 186.461538,44.5 C186.461538,46.7303807 188.269619,48.5384615 190.5,48.5384615 Z" id="Combined-Shape-Copy-5"></path>
                            <path d="M183.068058,94.2000935 L201.737391,87.2958505 C204.312678,85.8348411 205.748259,85.8348411 206.044134,87.2958505 C206.383157,88.9699197 203.028095,89.3961927 201.737391,90.0615358 C200.393274,90.7544126 194.170163,92.1339318 183.068058,94.2000935 Z" id="Path-14-Copy-6" transform="translate(194.568058, 90.200093) rotate(-1.000000) translate(-194.568058, -90.200093) "></path>
                            <path d="M40.7141016,169.959292 L59.3834342,163.055049 C61.9587214,161.59404 63.3943026,161.59404 63.6901778,163.055049 C64.0292006,164.729118 60.6741385,165.155391 59.3834342,165.820735 C58.0393171,166.513611 51.8162062,167.893131 40.7141016,169.959292 Z" id="Path-14-Copy-7" transform="translate(52.214102, 165.959292) scale(-1, 1) rotate(60.000000) translate(-52.214102, -165.959292) "></path>
                            <path d="M150.323268,27.6180312 L168.9926,20.7137882 C171.567887,19.2527788 173.003469,19.2527788 173.299344,20.7137882 C173.638367,22.3878574 170.283305,22.8141304 168.9926,23.4794735 C167.648483,24.1723503 161.425372,25.5518695 150.323268,27.6180312 Z" id="Path-14-Copy-8" transform="translate(161.823268, 23.618031) rotate(-33.000000) translate(-161.823268, -23.618031) "></path>
                            <path d="M61.2497497,15.9841538 L79.9190823,9.0799108 C82.4943695,7.61890144 83.9299507,7.61890144 84.2258259,9.0799108 C84.5648487,10.75398 81.2097866,11.180253 79.9190823,11.8455961 C78.5749652,12.5384729 72.3518543,13.9179921 61.2497497,15.9841538 Z" id="Path-14-Copy-9" transform="translate(72.749750, 11.984154) rotate(-99.000000) translate(-72.749750, -11.984154) "></path>
                            <path d="M133.48707,186.804862 L152.156402,179.900619 C154.73169,178.43961 156.167271,178.43961 156.463146,179.900619 C156.802169,181.574688 153.447107,182.000961 152.156402,182.666304 C150.812285,183.359181 144.589174,184.7387 133.48707,186.804862 Z" id="Path-14-Copy-10" transform="translate(144.987070, 182.804862) rotate(-275.000000) translate(-144.987070, -182.804862) "></path>
                            <path d="M-0.119338465,124.456235 L18.5499941,117.551992 C21.1252813,116.090983 22.5608626,116.090983 22.8567377,117.551992 C23.1957605,119.226062 19.8406985,119.652334 18.5499941,120.317678 C17.205877,121.010554 10.9827661,122.390074 -0.119338465,124.456235 Z" id="Path-14-Copy-11" transform="translate(11.380662, 120.456235) scale(-1, 1) rotate(40.000000) translate(-11.380662, -120.456235) "></path>
                        </g>
                        <g id="Group-17" transform="translate(25.000000, 82.000000)">
                            <g id="Group-13" transform="translate(36.000000, 18.000000)"></g>
                            <g id="Group-13-Copy" transform="translate(71.000000, 6.000000)">
                                <rect id="Rectangle-46-Copy-2" fill="#EF494D" x="0" y="0" width="64" height="46" rx="7"></rect>
                                <rect id="Rectangle-46-Copy-3" fill="#FFFFFF" x="2" y="2" width="60" height="42" rx="6"></rect>
                            </g>
                            <rect id="Rectangle-46-Copy-2" fill="#EF494D" x="30" y="6" width="64" height="46" rx="7"></rect>
                            <rect id="Rectangle-46-Copy-3" fill="#FFFFFF" x="32" y="8" width="60" height="42" rx="6"></rect>
                            <rect id="Rectangle-49" fill="#FCD0D2" x="36" y="18" width="18" height="13" rx="4"></rect>
                            <rect id="Rectangle-46" fill="#EF494D" x="46" y="0" width="72" height="52" rx="7"></rect>
                            <rect id="Rectangle-46-Copy" fill="#FFFFFF" x="48" y="2" width="68" height="48" rx="6"></rect>
                            <rect id="Rectangle-47" fill="#EF494D" x="47" y="14" width="70" height="2"></rect>
                            <rect id="Rectangle-48" fill="#FCD0D2" x="54" y="36" width="12" height="3" rx="1.5"></rect>
                            <rect id="Rectangle-48-Copy" fill="#FCD0D2" x="54" y="29" width="20" height="3" rx="1.5"></rect>
                            <circle id="Oval-12" fill="#FFEDEE" cx="91" cy="33" r="7"></circle>
                            <circle id="Oval-12-Copy" fill="#FCD0D2" cx="102" cy="33" r="7"></circle>
                            <rect id="Rectangle-50" fill="#EF494D" x="0" y="49" width="160" height="3" rx="1.5"></rect>
                            <circle id="Oval-13" fill="#EF494D" cx="16" cy="49" r="3"></circle>
                            <circle id="Oval-13-Copy" fill="#EF494D" cx="147" cy="49" r="3"></circle>
                            <rect id="Rectangle-51" fill="#EF494D" x="164" y="49" width="6" height="3" rx="1.5"></rect>
                        </g>
                    </g>
                </g>
            </g>
        </g>
    </g>
</svg>