<svg width="617px" height="572px" viewBox="0 0 617 572" version="1.1" xmlns="http://www.w3.org/2000/svg" xmlns:xlink="http://www.w3.org/1999/xlink">
    <defs>
        <linearGradient x1="50%" y1="0%" x2="50%" y2="100%" id="linearGradient-1">
            <stop stop-color="#E653C1" offset="0%"></stop>
            <stop stop-color="#7957F1" offset="100%"></stop>
        </linearGradient>
        <path d="M1.45898438,67.4458008 L42.78278,67.4458008 C42.78278,29.9985352 42.78278,10.3727214 42.78278,8.56835938 C42.78278,5.86181641 43.8934937,3.73114014 45.7219849,2.24285889 C46.940979,1.25067139 48.2144775,0.746866862 49.5424805,0.731445312 L9.71655273,0.731445312 C7.53873698,1.15559896 5.62353516,2.20613607 3.97094727,3.88305664 C2.31835937,5.55997721 1.31827799,7.61393229 0.970703125,10.0449219 L1.45898438,67.4458008 Z" id="path-2"></path>
        <linearGradient x1="50%" y1="0%" x2="50%" y2="100%" id="linearGradient-4">
            <stop stop-color="#E46DCF" offset="0%"></stop>
            <stop stop-color="#A46FF2" offset="100%"></stop>
        </linearGradient>
        <linearGradient x1="50%" y1="0%" x2="50%" y2="100%" id="linearGradient-5">
            <stop stop-color="#FF62A6" offset="0%"></stop>
            <stop stop-color="#FF9383" offset="100%"></stop>
        </linearGradient>
        <circle id="path-6" cx="22.5" cy="22.5" r="22.5"></circle>
        <linearGradient x1="22.9110054%" y1="10.2015399%" x2="100%" y2="100%" id="linearGradient-8">
            <stop stop-color="#0F62D4" offset="0%"></stop>
            <stop stop-color="#60DDDC" offset="100%"></stop>
        </linearGradient>
        <path d="M33.7425807,68.9918501 C15.038515,68.5889763 0,53.3007049 0,34.5 C0,15.4461761 15.4461761,0 34.5,0 C53.3007049,0 68.5889763,15.038515 68.9918501,33.7425807 C68.9972559,33.8276913 69,33.9135252 69,34 L69,65 C69,67.209139 67.209139,69 65,69 L34,69 C33.9135252,69 33.8276913,68.9972559 33.7425807,68.9918501 Z" id="path-9"></path>
    </defs>
    <g id="Page-4" stroke="none" stroke-width="1" fill="none" fill-rule="evenodd">
        <g id="icon1" transform="translate(-6.000000, 0.000000)">
            <path d="M323,61 C361.13511,64.9284576 394.214945,75.890793 422.239504,93.8870064 C450.264064,111.88322 472.850896,134.254218 490,161" id="Path-18" stroke="#E4E4E4"></path>
            <path d="M524,347 C502.387541,403.600385 470.546037,443.774615 428.475487,467.522691 C386.404937,491.270766 344.246441,501.581279 302,498.454229" id="Path-19" stroke="#E4E4E4"></path>
            <rect id="hidder1" fill="#FFFFFF" x="320" y="51" width="183" height="118"></rect>
            <rect id="hidder2" fill="#FFFFFF" x="296" y="342" width="231" height="168"></rect>
            <circle id="tool11" fill="#EF494D" cx="398" cy="183" r="6"></circle>
            <circle id="tool10" fill="#EF494D" cx="577" cy="320" r="5"></circle>
            <circle id="tool9" fill="#EF494D" cx="474" cy="365" r="4"></circle>
            <circle id="tool8" fill="#EF494D" cx="130" cy="313" r="5"></circle>
            <circle id="tool7" stroke="#35CCF8" stroke-width="5" fill="#FFFFFF" cx="273.5" cy="534.5" r="5.5"></circle>
            <circle id="tool6" stroke="#FFC539" stroke-width="5" fill="#FFFFFF" cx="545.5" cy="405.5" r="5.5"></circle>
            <circle id="tool5" stroke="#FFC539" stroke-width="5" fill="#FFFFFF" cx="14.5" cy="481.5" r="5.5"></circle>
            <g id="tool4" transform="translate(293.000000, 443.000000)" fill="#F3D07B">
                <rect id="Rectangle-54" x="5" y="0" width="4" height="13" rx="2"></rect>
                <rect id="Rectangle-54-Copy" transform="translate(7.000000, 6.500000) rotate(-270.000000) translate(-7.000000, -6.500000) " x="5" y="0" width="4" height="13" rx="2"></rect>
            </g>
            <g id="tool3" transform="translate(614.000000, 194.000000)" fill="#FF47AF">
                <rect id="Rectangle-54" x="3" y="0" width="3" height="9" rx="1.5"></rect>
                <rect id="Rectangle-54-Copy" transform="translate(4.500000, 4.500000) rotate(-270.000000) translate(-4.500000, -4.500000) " x="3" y="0" width="3" height="9" rx="1.5"></rect>
            </g>
            <g id="tool2" transform="translate(469.000000, 278.000000)" fill="#35CCF8">
                <rect id="Rectangle-54-Copy-2" x="3" y="0" width="3" height="9" rx="1.5"></rect>
                <rect id="Rectangle-54-Copy-3" transform="translate(4.500000, 4.500000) rotate(-270.000000) translate(-4.500000, -4.500000) " x="3" y="0" width="3" height="9" rx="1.5"></rect>
            </g>
            <g id="tool1" transform="translate(323.000000, 17.000000)" fill="#F86CC4">
                <rect id="Rectangle-54" x="4" y="0" width="4" height="12" rx="2"></rect>
                <rect id="Rectangle-54-Copy" transform="translate(6.000000, 6.000000) rotate(-270.000000) translate(-6.000000, -6.000000) " x="4" y="0" width="4" height="12" rx="2"></rect>
            </g>
            <g id="group1" opacity="0" transform="translate(159.000000, 0.000000)">
                <g id="phone-shadow" transform="translate(82.000000, 0.000000)">
                    <path d="M62,83.8369621 L62,3 C62,1.34314575 60.6568542,1.39730022e-16 59,4.4408921e-16 L59,0 L4,0 L4,4.4408921e-16 C2.34314575,7.48448398e-16 1,1.34314575 1,3 L1,3 L1,82.3079787 L0.992370605,82.3079787 L0.992370605,88.5716918 L6.80388559,95.4401185 L12.4543572,89.6095766 L17.4717269,95.7868407 L22.8576913,90.2292355 L27.1578773,95.6664607 L32.1457196,90.5196649 L36.7258432,95.2457487 L41.7660201,90.0449505 L46.833455,95.2738753 L52.3010133,89.6320759 L56.979474,95.4596306 L62.0192871,89.2628174 L62.0192871,83.9210205 L62,83.8369621 Z" id="Combined-Shape" fill="#F4F4F6"></path>
                    <rect id="Rectangle-91" fill="#EAEAEE" x="33" y="29" width="17" height="5" rx="2.5"></rect>
                    <rect id="Rectangle-91-Copy-2" fill="#EAEAEE" x="11" y="61" width="17" height="5" rx="2.5"></rect>
                    <rect id="Rectangle-91-Copy" fill="#EAEAEE" x="11" y="47" width="39" height="5" rx="2.5"></rect>
                    <circle id="Oval-36" fill="#EAEAEE" cx="19.5" cy="31.5" r="8.5"></circle>
                </g>
                <g id="phone-body" transform="translate(27.000000, 33.000000)">
                    <g id="Group-38">
                        <rect id="Rectangle-88" fill="#5C5B75" x="0" y="0" width="81" height="140" rx="4"></rect>
                        <rect id="Rectangle-87" fill="url(#linearGradient-1)" x="4" y="18" width="73" height="105" rx="1"></rect>
                        <g id="Oval-23-Copy" transform="translate(35.000000, 126.000000)">
                            <circle id="Mask" fill="#3F3D59" cx="6.5" cy="5.5" r="5.5"></circle>
                            <circle fill="#9795B0" cx="5.5" cy="5.5" r="5.5"></circle>
                        </g>
                        <circle id="Oval-32" fill="#9795B0" cx="40.5" cy="9.5" r="2.5"></circle>
                    </g>
                    <g id="Group-40" transform="translate(14.000000, 36.000000)">
                        <path d="M49.5020142,0.724304199 C51.2417196,1.54302979 52.622111,2.9239502 53.6431885,4.86706543 C54.664266,6.81018066 55.1104736,8.8400472 54.9818115,10.956665 L41.425293,11.0888672 C41.8056641,5.1858724 42.8085938,1.99296061 44.434082,1.51013184 C46.0595703,1.02730306 47.748881,0.765360514 49.5020142,0.724304199 Z" id="Path-60" fill="#AAB6C3"></path>
                        <g id="Path-61">
                            <mask id="mask-3" fill="white">
                                <use xlink:href="#path-2"></use>
                            </mask>
                            <use id="Mask" fill="#FFFFFF" xlink:href="#path-2"></use>
                            <path d="M42.3012695,-1.03466797 C39.3048503,-0.286295573 37.0323079,1.32511393 35.4836426,3.79956055 C33.9349772,6.27400716 33.1855469,9.31835937 33.2353516,12.9326172 L33.2353516,71.9213867 L45.3178711,71.9213867 L50.2836914,-2.50585938 L42.3012695,-1.03466797 Z" fill="#D9E3ED" mask="url(#mask-3)"></path>
                        </g>
                        <path d="M14,22 L26,22 C26.5522847,22 27,22.4477153 27,23 L27,26 L27,26 C27,26.5522847 26.5522847,27 26,27 L14,27 C13.4477153,27 13,26.5522847 13,26 L13,23 L13,23 C13,22.4477153 13.4477153,22 14,22 L14,22 Z M14,31 L30,31 C30.5522847,31 31,31.4477153 31,32 L31,35 C31,35.5522847 30.5522847,36 30,36 L14,36 C13.4477153,36 13,35.5522847 13,35 L13,32 C13,31.4477153 13.4477153,31 14,31 L14,31 Z M14,40 L30,40 C30.5522847,40 31,40.4477153 31,41 L31,44 C31,44.5522847 30.5522847,45 30,45 L14,45 C13.4477153,45 13,44.5522847 13,44 L13,41 C13,40.4477153 13.4477153,40 14,40 L14,40 Z" id="Combined-Shape" fill="url(#linearGradient-4)"></path>
                    </g>
                </g>
                <g id="phone-mic" transform="translate(0.000000, 11.000000)">
                    <mask id="mask-7" fill="white">
                        <use xlink:href="#path-6"></use>
                    </mask>
                    <use id="Mask" fill="url(#linearGradient-5)" xlink:href="#path-6"></use>
                    <g id="waves" mask="url(#mask-7)" fill="#FFFFFF">
                        <g transform="translate(6.428571, 12.272727)">
                            <path d="M9.23492349,16.8831169 L9.23492349,32.1428571 L6.59637392,32.1428571 L6.59637392,16.8831169 L6.57580044,16.8831169 L6.57580044,16.8831169 C5.85854752,16.8831169 5.27709914,16.3016685 5.27709914,15.5844156 L5.27709914,15.5844156 L5.27709914,15.5844156 C5.27709914,14.8671627 5.85854752,14.2857143 6.57580044,14.2857143 L9.25549698,14.2857143 L9.25549698,14.2857143 C9.9727499,14.2857143 10.5541983,14.8671627 10.5541983,15.5844156 L10.5541983,15.5844156 C10.5541983,16.3016685 9.9727499,16.8831169 9.25549698,16.8831169 L9.23492349,16.8831169 Z" id="Combined-Shape"></path>
                            <path d="M1.33215833,10.6335925 C0.421877466,11.4802637 0.084221281,12.4496394 0.319189773,13.5417195 C0.554158266,14.6337996 1.12715383,15.193315 2.03817647,15.2202656 C9.78444592,14.7663794 13.7535434,14.5301654 13.9454688,14.5116236 C14.233357,14.483811 14.287117,14.3267311 13.8009975,13.9977898 C13.314878,13.6688485 11.2761452,12.5144121 10.9577753,9.90196327 C10.6394053,7.28951446 12.0678389,5.92313404 12.3523895,5.55089885 C12.6369401,5.17866367 12.6952766,4.92455994 12.1528013,5.19972564 C11.7911511,5.38316943 8.18427011,7.19445838 1.33215833,10.6335925 Z" id="Path-55"></path>
                            <ellipse id="Oval-33" cx="17.6453002" cy="8.92857143" rx="5.44200849" ry="5.35714286"></ellipse>
                            <path d="M26.1876018,2.80515264 L26.1898411,2.80311418 C27.5945115,4.10788003 28.4738761,5.97410993 28.4738761,8.04646753 C28.4738761,9.15347827 28.2229515,10.201671 27.7750703,11.1368828 L27.7728076,11.1359716 C27.678496,11.3774511 27.4442408,11.5484461 27.1701912,11.5484461 C26.8128541,11.5484461 26.5231751,11.2577219 26.5231751,10.8990954 C26.5231751,10.8116854 26.5403841,10.7283093 26.5715872,10.6521934 L26.5706131,10.6518011 C26.573384,10.6462266 26.5761463,10.6406469 26.5789,10.6350623 C26.5852609,10.6207357 26.5921237,10.6066829 26.5994658,10.5929264 C26.971318,9.82322835 27.179844,8.95928774 27.179844,8.04646753 C27.179844,6.34676322 26.456847,4.81653323 25.302664,3.74864158 C25.2855218,3.73450045 25.2691169,3.719492 25.2535158,3.7036831 C25.2446599,3.69567398 25.2357793,3.68769175 25.2268742,3.67973655 L25.2291804,3.67763712 C25.127793,3.56299883 25.0662209,3.41209245 25.0662209,3.24675325 C25.0662209,2.88812679 25.3558999,2.5974026 25.7132369,2.5974026 C25.9006437,2.5974026 26.069441,2.67736677 26.1876018,2.80515264 Z" id="phone-mic-wave-1"></path>
                            <path d="M29.7022689,0.308958817 L29.705599,0.305927286 C31.7945772,2.24633081 33.1023384,5.02172463 33.1023384,8.10366458 C33.1023384,9.74997343 32.7291718,11.3088101 32.0630982,12.6996254 L32.0597332,12.6982702 C31.9194761,13.0573904 31.5710997,13.3116883 31.1635424,13.3116883 C30.6321228,13.3116883 30.2013221,12.8793332 30.2013221,12.345996 C30.2013221,12.2160029 30.2269147,12.0920087 30.2733189,11.9788117 L30.2718703,11.9782283 C30.275991,11.969938 30.280099,11.9616402 30.2841942,11.9533349 C30.293654,11.9320289 30.3038601,11.91113 30.3147791,11.8906718 C30.867785,10.746003 31.1778978,9.46117985 31.1778978,8.10366458 C31.1778978,5.57592198 30.1026811,3.30021583 28.3862194,1.71208357 C28.3607261,1.69105336 28.3363292,1.66873331 28.3131278,1.64522285 C28.2999575,1.63331196 28.2867507,1.62144106 28.2735073,1.60961036 L28.2769371,1.60648816 C28.1261571,1.43600198 28.0345892,1.21157913 28.0345892,0.965692266 C28.0345892,0.432355155 28.4653899,0 28.9968095,0 C29.2755144,0 29.526544,0.118920005 29.7022689,0.308958817 Z" id="phone-mic-wave-2"></path>
                        </g>
                    </g>
                </g>
            </g>
            <g id="group3" opacity="0" transform="translate(0.000000, 296.000000)">

                <g id="list-shadow" transform="translate(159.500000, 159.500000)">
                  <g id="list-shadow-inner" transform="rotate(-27.000000) translate(-159.500000, -159.500000) translate(27.000000, 70.000000)" fill="#F5F5F5">
                    <rect id="Rectangle-31" x="27.0464898" y="-4.54747351e-13" width="197.734166" height="35.7755651" rx="17.8877826"></rect>
                    <rect id="Rectangle-31-Copy-7" x="39.3114508" y="143.10226" width="185.49348" height="35.7755651" rx="17.8877826"></rect>
                    <rect id="Rectangle-31-Copy-4" x="55.907173" y="71.6" width="208.327114" height="35.7755651" rx="17.8877826"></rect>
                    <rect id="Rectangle-31-Copy-8" x="-1.13686838e-13" y="71.6" width="46.8441809" height="35.7755651" rx="17.8877826"></rect>
                    <path d="M208.797879,107.326695 L43.0778158,107.326695 L56.2625451,107.326695 L56.2625451,107.326695 C66.1416947,107.326695 74.1503277,115.335328 74.1503277,125.214478 L74.1503277,125.214478 C74.1503277,135.093627 66.1416947,143.10226 56.2625451,143.10226 L43.0778158,143.10226 L208.797879,143.10226 L191.846785,143.10226 C181.967635,143.10226 173.959002,135.093627 173.959002,125.214478 L173.959002,125.214478 L173.959002,125.214478 C173.959002,115.335328 181.967635,107.326695 191.846785,107.326695 L208.797879,107.326695 Z" id="Combined-Shape"></path>
                    <path d="M50.610546,35.7755651 L216.330609,35.7755651 L206.912245,35.7755651 L206.912245,35.7755651 C197.033095,35.7755651 189.024462,43.7841981 189.024462,53.6633477 C189.024462,63.5424972 197.033095,71.5511302 206.912245,71.5511302 L216.330609,71.5511302 L50.610546,71.5511302 L71.3280054,71.5511302 C81.207155,71.5511302 89.215788,63.5424972 89.215788,53.6633477 L89.215788,53.6633477 C89.215788,43.7841981 81.207155,35.7755651 71.3280054,35.7755651 L71.3280054,35.7755651 L50.610546,35.7755651 Z M29.8930865,71.5511302 L50.610546,71.5511302 Z" id="Combined-Shape"></path>
                </g>
                </g>
                <g id="list-icon" transform="translate(96.000000, 82.000000)">
                    <g id="Group-44">
                        <path d="M123.719244,139.058288 C128.007517,139.604301 131.507528,138.807532 134.219279,136.66798 C136.93103,134.528429 138.290545,129.778324 138.297823,122.417666 L138.297823,34.7037536 L133.431999,39.6655988 L128.826355,34.9690688 L124.462307,39.4192362 L120.443224,35.320842 L116.083033,39.7670755 L114.619232,139.058288 L123.719244,139.058288 Z" id="Path-58" fill="#34CCF8"></path>
                        <path d="M102.654407,0.260448368 C107.762875,0.068179766 111.270712,0.9208084 113.177918,2.81833427 C115.085124,4.71586014 116.190449,7.45812863 116.493893,11.0451397 L116.493893,128.089402 C116.369422,130.768019 117.093785,133.088574 118.666981,135.051065 C120.240177,137.013557 122.782811,138.390042 126.294883,139.180522 L92.4860796,139.180522 L92.4860796,0.260448368 L102.654407,0.260448368 Z" id="Path-57" fill="#009ACE"></path>
                        <path d="M0.00183589781,161.406697 L0.00183589781,11.3514183 C0.339896316,7.79454886 1.15742805,5.29961315 2.45443109,3.86661123 C3.75143413,2.4336093 6.25853144,1.20902354 9.97572301,0.192853938 L105.629145,0.192853938 C100.915449,0.192853938 97.5326349,1.90487065 95.4807039,5.32890407 C93.4287729,8.75293749 92.5541612,12.5389766 92.8568689,16.6870215 L92.8568689,161.795656 L88.9562791,157.818093 L84.5830389,162.277634 L80.6084424,158.224604 L76.4526394,162.462416 L72.1445941,158.069357 L68.2469657,162.0439 L63.9136073,157.625028 L59.2615067,162.368932 L55.1494344,158.175713 L50.9181457,162.490501 L46.5698063,158.056353 L42.6417674,162.061906 L38.467135,157.804893 L34.1502274,162.206989 L29.6421515,157.609952 L25.2664127,162.07204 L20.8122619,157.529993 L16.6390992,161.785507 L12.6753934,157.743583 L8.6403902,161.858212 L4.3576238,157.490931 L0.00183589781,161.406697 Z" id="Path-56" fill="#35CCF8"></path>
                    </g>
                    <rect id="Rectangle-56" fill="#01A1DA" x="19.0564516" y="21.2123288" width="54.9274194" height="7.81506849" rx="3.90753425"></rect>
                    <g id="Group-45" transform="translate(6.725806, 51.356164)" fill="#01C3F7">
                        <rect id="Rectangle-75" x="0" y="0" width="3.39333009" height="1.91603203" rx="0.958016014"></rect>
                        <rect id="Rectangle-75-Copy-4" x="22.6222006" y="0" width="3.39333009" height="1.91603203" rx="0.958016014"></rect>
                        <rect id="Rectangle-75-Copy-8" x="45.2444012" y="0" width="3.39333009" height="1.91603203" rx="0.958016014"></rect>
                        <rect id="Rectangle-75-Copy-2" x="11.3111003" y="0" width="3.39333009" height="1.91603203" rx="0.958016014"></rect>
                        <rect id="Rectangle-75-Copy-5" x="33.9333009" y="0" width="3.39333009" height="1.91603203" rx="0.958016014"></rect>
                        <rect id="Rectangle-75-Copy-9" x="56.5555015" y="0" width="3.39333009" height="1.91603203" rx="0.958016014"></rect>
                        <rect id="Rectangle-75-Copy-12" x="73.5221519" y="0" width="3.39333009" height="1.91603203" rx="0.958016014"></rect>
                        <rect id="Rectangle-75-Copy" x="5.65555015" y="0" width="3.39333009" height="1.91603203" rx="0.958016014"></rect>
                        <rect id="Rectangle-75-Copy-6" x="28.2777507" y="0" width="3.39333009" height="1.91603203" rx="0.958016014"></rect>
                        <rect id="Rectangle-75-Copy-10" x="50.8999513" y="0" width="3.39333009" height="1.91603203" rx="0.958016014"></rect>
                        <rect id="Rectangle-75-Copy-13" x="67.8666018" y="0" width="3.39333009" height="1.91603203" rx="0.958016014"></rect>
                        <rect id="Rectangle-75-Copy-3" x="16.9666504" y="0" width="3.39333009" height="1.91603203" rx="0.958016014"></rect>
                        <rect id="Rectangle-75-Copy-7" x="39.588851" y="0" width="3.39333009" height="1.91603203" rx="0.958016014"></rect>
                        <rect id="Rectangle-75-Copy-11" x="62.2110516" y="0" width="3.39333009" height="1.91603203" rx="0.958016014"></rect>
                        <rect id="Rectangle-75-Copy-14" x="79.1777021" y="0" width="3.39333009" height="1.91603203" rx="0.958016014"></rect>
                    </g>
                    <g id="Group-45-Copy" transform="translate(6.725806, 120.575342)" fill="#01C3F7">
                        <rect id="Rectangle-75" x="0" y="0" width="3.39333009" height="1.91603203" rx="0.958016014"></rect>
                        <rect id="Rectangle-75-Copy-4" x="22.6222006" y="0" width="3.39333009" height="1.91603203" rx="0.958016014"></rect>
                        <rect id="Rectangle-75-Copy-8" x="45.2444012" y="0" width="3.39333009" height="1.91603203" rx="0.958016014"></rect>
                        <rect id="Rectangle-75-Copy-2" x="11.3111003" y="0" width="3.39333009" height="1.91603203" rx="0.958016014"></rect>
                        <rect id="Rectangle-75-Copy-5" x="33.9333009" y="0" width="3.39333009" height="1.91603203" rx="0.958016014"></rect>
                        <rect id="Rectangle-75-Copy-9" x="56.5555015" y="0" width="3.39333009" height="1.91603203" rx="0.958016014"></rect>
                        <rect id="Rectangle-75-Copy-12" x="73.5221519" y="0" width="3.39333009" height="1.91603203" rx="0.958016014"></rect>
                        <rect id="Rectangle-75-Copy" x="5.65555015" y="0" width="3.39333009" height="1.91603203" rx="0.958016014"></rect>
                        <rect id="Rectangle-75-Copy-6" x="28.2777507" y="0" width="3.39333009" height="1.91603203" rx="0.958016014"></rect>
                        <rect id="Rectangle-75-Copy-10" x="50.8999513" y="0" width="3.39333009" height="1.91603203" rx="0.958016014"></rect>
                        <rect id="Rectangle-75-Copy-13" x="67.8666018" y="0" width="3.39333009" height="1.91603203" rx="0.958016014"></rect>
                        <rect id="Rectangle-75-Copy-3" x="16.9666504" y="0" width="3.39333009" height="1.91603203" rx="0.958016014"></rect>
                        <rect id="Rectangle-75-Copy-7" x="39.588851" y="0" width="3.39333009" height="1.91603203" rx="0.958016014"></rect>
                        <rect id="Rectangle-75-Copy-11" x="62.2110516" y="0" width="3.39333009" height="1.91603203" rx="0.958016014"></rect>
                        <rect id="Rectangle-75-Copy-14" x="79.1777021" y="0" width="3.39333009" height="1.91603203" rx="0.958016014"></rect>
                    </g>
                    <rect id="Rectangle-86" fill="#01BDF6" x="3.36290323" y="65.869863" width="17.9354839" height="2.23287671" rx="1.11643836"></rect>
                    <rect id="Rectangle-86-Copy-2" fill="#01BDF6" x="3.36290323" y="83.7328767" width="17.9354839" height="2.23287671" rx="1.11643836"></rect>
                    <rect id="Rectangle-86-Copy-4" fill="#01BDF6" x="3.36290323" y="100.479452" width="17.9354839" height="2.23287671" rx="1.11643836"></rect>
                    <rect id="Rectangle-86-Copy" fill="#01BDF6" x="3.36290323" y="71.4520548" width="10.0887097" height="2.23287671" rx="1.11643836"></rect>
                    <rect id="Rectangle-86-Copy-3" fill="#01BDF6" x="3.36290323" y="90.4315068" width="10.0887097" height="2.23287671" rx="1.11643836"></rect>
                    <rect id="Rectangle-86-Copy-5" fill="#01BDF6" x="3.36290323" y="108.294521" width="10.0887097" height="2.23287671" rx="1.11643836"></rect>
                    <rect id="Rectangle-74" fill="#00ADE6" x="32.5080645" y="33.4931507" width="29.1451613" height="7.81506849" rx="3.90753425"></rect>
                    <rect id="Rectangle-74-Copy" fill="#00ADE6" x="71.7419355" y="68.1027397" width="17.9354839" height="4.46575342" rx="2.23287671"></rect>
                    <rect id="Rectangle-74-Copy-2" fill="#00ADE6" x="71.7419355" y="85.9657534" width="17.9354839" height="4.46575342" rx="2.23287671"></rect>
                    <rect id="Rectangle-74-Copy-3" fill="#00ADE6" x="71.7419355" y="106.061644" width="17.9354839" height="4.46575342" rx="2.23287671"></rect>
                    <rect id="Rectangle-74-Copy-4" fill="#00ADE6" x="71.7419355" y="130.623288" width="17.9354839" height="4.46575342" rx="2.23287671"></rect>
                </g>
                <g id="phone-icon" transform="translate(-150.000000, -150.000000)">
                    <mask id="mask-10" fill="white">
                        <use xlink:href="#path-9"></use>
                    </mask>
                    <use id="Mask" fill="url(#linearGradient-8)" xlink:href="#path-9"></use>
                    <path d="M40.1740882,41.8627074 L36.8706002,48.0756647 L36.8706002,48.0756647 C35.8334723,50.0262187 33.4114776,50.7666968 31.4609236,49.7295689 L30.9459479,49.4557514 C30.6437949,50.3210886 30.1164913,50.977248 29.3640372,51.4242296 C28.4980994,51.9386242 27.5862367,52.2442535 26.6284491,52.3411176 C25.2208787,56.3238008 24.5170935,58.6479859 24.5170935,59.313673 C24.5170935,60.3122036 24.5170935,65.3411114 26.2732486,67.5764583 C27.4440186,69.0666896 29.7530169,70.0332041 33.2002433,70.4760017 C29.4723718,70.1714794 26.7368669,69.72572 24.9937285,69.1387235 C23.2505902,68.551727 21.6971642,67.9256158 20.3334507,67.26039 C19.8888498,62.37605 19.8888498,59.3414407 20.3334507,58.156562 C20.7494939,57.0477905 22.1364928,53.0040791 24.4944472,46.0254276 L23.500308,45.4968345 C21.549754,44.4597065 20.8092759,42.0377118 21.8464039,40.0871578 L34.5884217,16.1229077 L34.5884217,16.1229077 C35.6255496,14.1723537 38.0475444,13.4318756 39.9980983,14.4690036 L39.9980983,14.4690036 L47.9587139,18.7017379 L47.9587139,18.7017379 C49.9092679,19.7388659 50.649746,22.1608606 49.6126181,24.1114146 L46.0324723,30.8446894 L42.6035747,28.8650144 C41.8861358,28.4508009 40.9687502,28.6966136 40.5545366,29.4140525 L40.3541563,29.7611213 C39.9399428,30.4785603 40.1857555,31.3959459 40.9031944,31.8101594 L44.4349388,33.849213 L43.902047,34.8514366 L40.3347807,32.7918744 C39.6173418,32.3776609 38.6999562,32.6234736 38.2857426,33.3409125 L38.0853624,33.6879813 C37.6711488,34.4054203 37.9169615,35.3228059 38.6344005,35.7370194 L42.3045135,37.8559602 L41.7716218,38.8581838 L38.0659867,36.7187344 C37.3485478,36.3045209 36.4311622,36.5503336 36.0169486,37.2677725 L35.8165684,37.6148413 C35.4023548,38.3322803 35.6481676,39.2496659 36.3656065,39.6638794 L36.3656065,39.6638794 L40.1740882,41.8627074 Z" id="Combined-Shape" fill="#FFFFFF" mask="url(#mask-10)"></path>
                </g>
            </g>
            <g id="group2" opacity="0" transform="translate(397.000000, 149.000000)">
              <g id="cards-shadow" transform="translate(0, 88)">
                <g id="cards-shadow_in" transform="rotate(-27.000000)" fill="#F5F5F5">
                    <rect id="Rectangle-31" x="16" y="-4.54747351e-13" width="140.150546" height="25.3433523" rx="12.6716761"></rect>
                    <rect id="Rectangle-31-Copy-9" x="161" y="0" width="38" height="25.3433523" rx="12.6716761"></rect>
                    <rect id="Rectangle-31-Copy-7" x="24.6931915" y="101.373409" width="131.47456" height="25.3433523" rx="12.6716761"></rect>
                    <rect id="Rectangle-31-Copy-4" x="0" y="50.6867045" width="186" height="25.3433523" rx="12.6716761"></rect>
                    <path d="M144.822231,76.0300568 L27.3627257,76.0300568 L36.7147069,76.0300568 L36.7147069,76.0300568 C43.7130804,76.0300568 49.386383,81.7033594 49.386383,88.7017329 L49.386383,88.7017329 C49.386383,95.7001064 43.7130804,101.373409 36.7147069,101.373409 L27.3627257,101.373409 L144.822231,101.373409 L132.800716,101.373409 C125.802342,101.373409 120.12904,95.7001064 120.12904,88.7017329 L120.12904,88.7017329 L120.12904,88.7017329 C120.12904,81.7033594 125.802342,76.0300568 132.800716,76.0300568 L132.800716,76.0300568 L144.822231,76.0300568 Z" id="Combined-Shape"></path>
                    <path d="M150.1613,25.3433523 L32.7017942,25.3433523 L47.3928438,25.3433523 L47.3928438,25.3433523 C54.3912172,25.3433523 60.0645199,31.0166549 60.0645199,38.0150284 L60.0645199,38.0150284 C60.0645199,45.0134019 54.3912172,50.6867045 47.3928438,50.6867045 L32.7017942,50.6867045 L150.1613,50.6867045 L143.478853,50.6867045 L143.478853,50.6867045 C136.480479,50.6867045 130.807177,45.0134019 130.807177,38.0150284 L130.807177,38.0150284 L130.807177,38.0150284 C130.807177,31.0166549 136.480479,25.3433523 143.478853,25.3433523 L143.478853,25.3433523 L150.1613,25.3433523 Z" id="Combined-Shape"></path>
                </g>
              </g>
              <g id="cards-group" transform="translate(49.000000, 65.000000)">
                    <g id="card2" transform="translate(18.251531, 0.000000)">
                        <rect id="Rectangle-92" fill="#FE288E" x="0" y="0" width="109.509183" height="65.1266541" rx="5.65217391"></rect>
                        <rect id="Rectangle-93" fill="#FFBDE3" x="8.11179136" y="10.1760397" width="14.1956349" height="14.2464556" rx="1.88405797"></rect>
                        <rect id="Rectangle-95" fill="#F2BF42" x="8.11179136" y="48.8449905" width="8.11179136" height="6.10562382" rx="3.05281191"></rect>
                        <rect id="Rectangle-95-Copy" fill="#F2BF42" x="18.2515306" y="48.8449905" width="8.11179136" height="6.10562382" rx="3.05281191"></rect>
                        <g id="Group-2" transform="translate(79.089966, 42.739367)">
                            <ellipse id="Oval-23" fill="#E3A81A" cx="7.09781744" cy="7.12322779" rx="7.09781744" ry="7.12322779"></ellipse>
                            <ellipse id="Oval-23-Copy-2" fill="#FFBDE3" cx="15.2096088" cy="7.12322779" rx="7.09781744" ry="7.12322779"></ellipse>
                        </g>
                        <rect id="Rectangle-94" fill="#E3A81A" x="8.11179136" y="32.563327" width="16.2235827" height="6.10562382" rx="1.88405797"></rect>
                        <rect id="Rectangle-94-Copy" fill="#E3A81A" x="32.4471654" y="32.563327" width="16.2235827" height="6.10562382" rx="1.88405797"></rect>
                        <rect id="Rectangle-94-Copy-2" fill="#E3A81A" x="58.8104874" y="32.563327" width="16.2235827" height="6.10562382" rx="1.88405797"></rect>
                        <rect id="Rectangle-94-Copy-3" fill="#FFBDE3" x="85.1738093" y="32.563327" width="16.2235827" height="6.10562382" rx="1.88405797"></rect>
                    </g>
                    <g id="card1" transform="translate(0.000000, 20.352079)">
                        <rect id="Rectangle-92" fill="#FE7E43" x="0" y="0" width="109.509183" height="65.1266541" rx="5.65217391"></rect>
                        <rect id="Rectangle-93" fill="#FFC1A5" x="8.11179136" y="10.1760397" width="14.1956349" height="14.2464556" rx="1.88405797"></rect>
                        <rect id="Rectangle-95" fill="#FFC1A5" x="8.11179136" y="48.8449905" width="8.11179136" height="6.10562382" rx="3.05281191"></rect>
                        <rect id="Rectangle-95-Copy" fill="#FFC1A5" x="18.2515306" y="48.8449905" width="8.11179136" height="6.10562382" rx="3.05281191"></rect>
                        <g id="Group-2" transform="translate(79.089966, 42.739367)">
                            <ellipse id="Oval-23" fill="#FE9666" cx="7.09781744" cy="7.12322779" rx="7.09781744" ry="7.12322779"></ellipse>
                            <ellipse id="Oval-23-Copy-2" fill="#FFC1A5" cx="15.2096088" cy="7.12322779" rx="7.09781744" ry="7.12322779"></ellipse>
                        </g>
                        <rect id="cc1" fill="#FE9666" x="8.11179136" y="32.563327" width="16.2235827" height="6.10562382" rx="1.88405797"></rect>
                        <rect id="cc2" fill="#FE9666" x="32.4471654" y="32.563327" width="16.2235827" height="6.10562382" rx="1.88405797"></rect>
                        <rect id="cc3" fill="#FE9666" x="58.8104874" y="32.563327" width="16.2235827" height="6.10562382" rx="1.88405797"></rect>
                        <rect id="cc4" fill="#FE9666" x="85.1738093" y="32.563327" width="16.2235827" height="6.10562382" rx="1.88405797"></rect>
                    </g>
                </g>
            </g>
        </g>
    </g>
  <animate id="group1_animate" xlink:href="#group1" attributeName="opacity" values="0;1" dur="3s" begin="0s" fill="freeze"/>
  <animateTransform id="group1-phone-shadow-animate" attributeName="transform"
    type="translate"
    xlink:href="#phone-shadow"
    from="122.000000, -10.000000"
    to="82.000000, 0.000000"
    begin="0.2s"
    dur="1s"
    fill="freeze"
/>
  <animateTransform id="group1-phone-body-animate" attributeName="transform"
    type="translate"
    xlink:href="#phone-body"
    from="47.000000, 63.000000"
    to="27.000000, 33.000000"
    begin="0s"
    dur="0.4s"
    fill="freeze"
/>
  <animateTransform id="group1_phone_mic_animate" attributeName="transform"
  type="translate"
  xlink:href="#phone-mic"
  from="-20.000000, -11.000000"
  to="0.000000, 11.000000"
  begin="0s"
  dur="0.4s"
  fill="freeze"
/>
<animate
  id="path1_show_animation"
  xlink:href="#hidder1"
  attributeName="x"
  values="320;520"
  dur="1s"
  begin="group1_phone_mic_animate.end"
  fill="freeze"
/>
  <animate id="group2_animate" xlink:href="#group2" attributeName="opacity" values="0;1" dur="2.3s" begin="path1_show_animation.end" fill="freeze"/>
  <animateTransform id="group2_cards_shadow_animate" attributeName="transform"
    type="translate"
    xlink:href="#cards-shadow"
    from="90, 0"
    to="0, 88"
    begin="path1_show_animation.end"
    dur="1.5s"
    fill="freeze"
/>
<animateTransform id="group2_cards_card1_animate"
  attributeName="transform"
  type="translate"
  xlink:href="#card1"
  from="300.000000, 20.352079"
  to="0.000000, 20.352079"
  begin="path1_show_animation.end"
  dur="0.4s"
  fill="freeze"
/>

<animateTransform id="group2_cards_card1_fly"
  attributeName="transform"
  type="translate"
  xlink:href="#card1"
  values="0.000000, 20.352079; 0.5, 21; -0.5, 19.5; 0.000000, 20.352079;"
  begin="group2_cards_card1_animate.end"
  dur="3.5s"
  repeatCount="indefinite"
/>

<animateTransform id="group2_cards_card2_animate"
  attributeName="transform"
  type="translate"
  xlink:href="#card2"
  from="200, -200"
  to="18.251531, 0.000000"
  begin="path1_show_animation.end"
  dur="0.34s"
  fill="freeze"
/>

<animateTransform id="group2_cards_card2_fly"
  attributeName="transform"
  type="translate"
  xlink:href="#card2"
  values="18.251531, 0.000000; 17, -1; 19, 1; 18.251531, 0.000000"
  begin="group2_cards_card2_animate.end"
  dur="2.7s"
  repeatCount="indefinite"
/>

<animate
  id="path2_show_animation"
  xlink:href="#hidder2"
  attributeName="x"
  values="296;-200"
  dur="1.4s"
  begin="group2_animate.end"
  fill="freeze"
/>
<animate id="group3_animate" xlink:href="#group3" attributeName="opacity" values="0;1" dur="2.3s" begin="path2_show_animation.end" fill="freeze"/>
<animate xlink:href="#list-shadow" attributeName="opacity" values="0;1" dur="0.4s" begin="path2_show_animation.end" fill="freeze" />
<animateTransform id="group3_shadow_animate" attributeName="transform"
    type="translate"
    xlink:href="#list-shadow"
    from="100, 200"
    to="159.500000, 159.500000"
    begin="path2_show_animation.end"
    dur="1.8s"
    fill="freeze"
/>
<animateTransform id="group3_list_animate" attributeName="transform"
  type="translate"
  xlink:href="#list-icon"
  from="150, 150"
  to="96.000000, 82.000000"
  begin="path2_show_animation.end"
  dur="1.5s"
  fill="freeze"
/>

<animateTransform id="group3_shadow_animate" attributeName="transform"
  type="translate"
  xlink:href="#phone-icon"
  from="-150, -150"
  to="20, 0"
  begin="group3_list_animate.end"
  dur="0.5s"
  fill="freeze"
/>
  <animate id="wave1_pulse" xlink:href="#phone-mic-wave-1" attributeName="opacity" values="1;0;1"  dur="2s" begin="group1_phone_mic_animate.end;wave2_pulse.end"/>
  <animate id="wave2_pulse" xlink:href="#phone-mic-wave-2" attributeName="opacity" values="1;0;1"  dur="1s" begin="wave1_pulse.end"/>

  <animate id="cc1_pulse" xlink:href="#cc1" attributeName="opacity" values="1;0.2;1" dur="0.3s" begin="0s;cc4_pulse.end + 1s" />
  <animate id="cc2_pulse" xlink:href="#cc2" attributeName="opacity" values="1;0.2;1" dur="0.3s" begin="cc1_pulse.end" />
  <animate id="cc3_pulse" xlink:href="#cc3" attributeName="opacity" values="1;0.2;1" dur="0.3s" begin="cc2_pulse.end" />
  <animate id="cc4_pulse" xlink:href="#cc4" attributeName="opacity" values="1;0.2;1" dur="0.3s" begin="cc3_pulse.end" />

  <animate id="tool1_pulse" xlink:href="#tool1" attributeName="opacity" values="1;0.4;1" dur="1s" begin="0s; tool11_pulse.end" />
  <animate id="tool2_pulse" xlink:href="#tool2" attributeName="opacity" values="1;0;1" dur="2s" begin="tool1_pulse.end" />
  <animate id="tool3_pulse" xlink:href="#tool3" attributeName="opacity" values="1;0.2;1" dur="3s" begin="tool2_pulse.end" />
  <animate id="tool4_pulse" xlink:href="#tool4" attributeName="opacity" values="1;0.6;1" dur="1s" begin="tool3_pulse.end" />
  <animate id="tool5_pulse" xlink:href="#tool5" attributeName="opacity" values="1;0;1" dur="0.5s" begin="tool4_pulse.end" />
  <animate id="tool6_pulse" xlink:href="#tool6" attributeName="opacity" values="1;0.1;1" dur="0.8s" begin="tool5_pulse.end" />
  <animate id="tool7_pulse" xlink:href="#tool7" attributeName="opacity" values="1;0.4;1" dur="1s" begin="tool6_pulse.end" />
  <animate id="tool8_pulse" xlink:href="#tool8" attributeName="opacity" values="1;0.2;1" dur="3s" begin="tool7_pulse.end" />
  <animate id="tool9_pulse" xlink:href="#tool9" attributeName="opacity" values="1;0.5;1" dur="1.2s" begin="tool8_pulse.end" />
  <animate id="tool10_pulse" xlink:href="#tool10" attributeName="opacity" values="1;0;1" dur="0.3s" begin="tool9_pulse.end" />
  <animate id="tool11_pulse" xlink:href="#tool11" attributeName="opacity" values="1;0.4;1" dur="1s" begin="tool10_pulse.end" />

  <animateMotion
   id="group_1_move_phase1"
   xlink:href="#group1"
   dur="1.5s"
   begin="group_1_move_phase3.end + 8s; group3_shadow_animate.end + 0.5s"
   fill="freeze"
   path="M0,0 C0,0 300,-40 300,161"
/>

<animateMotion
   id="group_2_move_phase1"
   xlink:href="#group2"
   dur="1.5s"
   begin="group_2_move_phase3.end + 8s; group3_shadow_animate.end + 0.5s"
   fill="freeze"
   path="M 0,0, C-70,240, -150, 240, -300,210"
/>
<animateMotion
   id="group_3_move_phase1"
   xlink:href="#group3"
   dur="1.5s"
   begin="group_3_move_phase3.end + 8s; group3_shadow_animate.end + 0.5s"
   fill="freeze"
   path="M 0,0, C-20,-150 -30,-150 50,-295"
/>

<animateMotion
   id="group_1_move_phase2"
   xlink:href="#group1"
   dur="1.5s"
   begin="group_1_move_phase1.end + 1.3s"
   fill="freeze"
   path="M 300,160, C250, 360, 250, 360 -50,380"
/>

<animateMotion
   id="group_2_move_phase2"
   xlink:href="#group2"
   dur="1.5s"
   begin="group_2_move_phase1.end + 1.3s"
   fill="freeze"
   path="M -300,210, C-340,100 -360,0 -280, -120"
/>

<animateMotion
   id="group_3_move_phase2"
   xlink:href="#group3"
   dur="1.5s"
   begin="group_3_move_phase1.end + 1.3s"
   fill="freeze"
   path="M 50,-295, C200,-295 250,-300 340, -190"
/>

  <animateMotion
   id="group_1_move_phase3"
   xlink:href="#group1"
   dur="1.5s"
   begin="group_1_move_phase2.end + 1.2s"
   fill="freeze"
   path="M -50,380, C-125,200 -95,100 0,0"
/>

  <animateMotion
   id="group_2_move_phase3"
   xlink:href="#group2"
   dur="1.5s"
   begin="group_2_move_phase2.end + 1.2s"
   fill="freeze"
   path="M -280,-120, C-100,-120 -100,-130 0,0"
/>
<animateMotion
   id="group_3_move_phase3"
   xlink:href="#group3"
   dur="1.5s"
   begin="group_3_move_phase2.end + 1.2s"
   fill="freeze"
   path="M 340,-190 C270,0 140,0 0,0"
/>


  <animateMotion
   xlink:href="#tool1"
   dur="35s"
   begin="0s"
   fill="freeze"
   repeatCount="indefinite"
   path="M 0,0, 80,440, -240, 340, 0,0"
/>

  <animateMotion
   xlink:href="#tool2"
   dur="45s"
   begin="0s"
   fill="freeze"
   repeatCount="indefinite"
   path="M 0,0, -480,-140, -240, 340, 0,0"
/>
  <animateMotion
   xlink:href="#tool3"
   dur="39s"
   begin="0s"
   fill="freeze"
   repeatCount="indefinite"
   path="M 0,0, -380,340, -240, 340, -400, -50, 0,0"
/>
  <animateMotion
   xlink:href="#tool4"
   dur="20s"
   begin="0s"
   fill="freeze"
   repeatCount="indefinite"
   path="M 0,0, 300,-440, 40,-340, 0,0"
/>
  <animateMotion
   xlink:href="#tool5"
   dur="31s"
   begin="0s"
   fill="freeze"
   repeatCount="indefinite"
   path="M 0,0, 240,-340, 390,20, 200, -140, 0,0"
/>
  <animateMotion
   xlink:href="#tool6"
   dur="28s"
   begin="0s"
   fill="freeze"
   repeatCount="indefinite"
   path="M 0,0, -300, -300, -340, 20, 0,0"
/>
  <animateMotion
   xlink:href="#tool7"
   dur="53s"
   begin="0s"
   fill="freeze"
   repeatCount="indefinite"
   path="M 0,0, 200,-420, 100, -310, 200, -200, 0, 0"
/>
  <animateMotion
   xlink:href="#tool8"
   dur="56s"
   begin="0s"
   fill="freeze"
   repeatCount="indefinite"
   path="M 0,0, 340,40, 0,0"
/>
  <animateMotion
   xlink:href="#tool9"
   dur="32s"
   begin="0s"
   fill="freeze"
   repeatCount="indefinite"
   path="M 0,0, -240, 140, -280, -250, 0,0"
/>
  <animateTransform attributeName="transform"
            xlink:href="#tool10"
            type="rotate"
            from="0 420 290"
            to="360 420 290"
            begin="0s"
            dur="24s"
            repeatCount="indefinite"
        />
  <animateTransform attributeName="transform"
            xlink:href="#tool11"
            type="rotate"
            from="0 420 290"
            to="-360 420 290"
            begin="0s"
            dur="27s"
            repeatCount="indefinite"
        />
</svg>
