
<svg width="339px" height="342px" viewBox="0 0 339 342" version="1.1" xmlns="http://www.w3.org/2000/svg" xmlns:xlink="http://www.w3.org/1999/xlink">
    <defs>
        <linearGradient x1="91.7599656%" y1="0%" x2="17.0890748%" y2="94.5250984%" id="linearGradient-1">
            <stop stop-color="#5BDAD6" offset="0%"></stop>
            <stop stop-color="#489CF8" offset="100%"></stop>
        </linearGradient>
        <circle id="path-2" cx="48.5" cy="48.5" r="48.5"></circle>
        <linearGradient x1="50%" y1="0%" x2="50%" y2="100%" id="linearGradient-4">
            <stop stop-color="#F64404" offset="0%"></stop>
            <stop stop-color="#FE7F46" offset="100%"></stop>
        </linearGradient>
        <ellipse id="path-5" cx="35.9594369" cy="35.9198954" rx="35.9594369" ry="35.9198954"></ellipse>
        <linearGradient x1="50%" y1="0%" x2="50%" y2="100%" id="linearGradient-7">
            <stop stop-color="#1061CF" offset="0%"></stop>
            <stop stop-color="#4CD9DB" offset="100%"></stop>
        </linearGradient>
        <linearGradient x1="50%" y1="0%" x2="50%" y2="100%" id="linearGradient-8">
            <stop stop-color="#F62691" offset="0%"></stop>
            <stop stop-color="#FF9383" offset="100%"></stop>
        </linearGradient>
        <circle id="path-9" cx="38" cy="38" r="38"></circle>
    </defs>
    <g id="Page-5" stroke="none" stroke-width="1" fill="none" fill-rule="evenodd">
        <g id="shadow" opacity="0" transform="translate(1000, -1000)">
           <g transform="translate(180.708084, 177.083534) rotate(-27.000000) translate(-180.708084, -177.083534)" fill="#F5F5F5">
            <rect id="Rectangle-31" x="29.0464459" y="-4.54747351e-13" width="254.429704" height="46.0083944" rx="23.0041972"></rect>
            <rect id="Rectangle-31-Copy-9" x="292.279862" y="0" width="68.9853089" height="46.0083944" rx="23.0041972"></rect>
            <rect id="Rectangle-31-Copy-7" x="44.8280907" y="184.033577" width="238.679294" height="46.0083944" rx="23.0041972"></rect>
            <rect id="Rectangle-31-Copy-4" x="-1.89004368e-12" y="92.0167887" width="337.664933" height="46.0083944" rx="23.0041972"></rect>
            <path d="M262.910694,184.033577 L65.1448683,184.033577 C75.7897072,182.015989 83.8391772,172.664246 83.8391772,161.432447 L83.8391772,161.432447 C83.8391772,148.72758 73.5398473,138.42825 60.83498,138.42825 L60.83498,138.42825 L28.3868691,138.42825 C29.7829575,138.16364 31.2236882,138.025183 32.6967573,138.025183 L32.6967573,138.025183 L262.910694,138.025183 L241.0868,138.025183 C228.381933,138.025183 218.082603,148.324513 218.082603,161.02938 L218.082603,161.02938 L218.082603,161.02938 C218.082603,173.734248 228.381933,184.033577 241.0868,184.033577 L262.910694,184.033577 Z" id="Combined-Shape"></path>
            <path d="M30.2228048,46.1398698 C31.0355464,46.0529687 31.8609464,46.0083944 32.6967573,46.0083944 L32.6967573,46.0083944 L272.603254,46.0083944 L260.471921,46.0083944 L260.471921,46.0083944 C247.767053,46.0083944 237.467724,56.3077243 237.467724,69.0125915 L237.467724,69.0125915 L237.467724,69.0125915 C237.467724,81.7174588 247.767053,92.0167887 260.471921,92.0167887 L260.471921,92.0167887 L272.603254,92.0167887 L46.917996,92.0167887 C58.4594537,90.7827361 67.4482407,81.0131234 67.4482407,69.144067 L67.4482407,69.144067 C67.4482407,56.4391997 57.1489108,46.1398698 44.4440436,46.1398698 L44.4440436,46.1398698 L30.2228048,46.1398698 Z" id="Combined-Shape"></path>
        </g>
        </g>
        <g id="vote-icon" opacity="0" transform="translate(18.996947, 57.117334)">
            <mask id="mask-3" fill="white">
                <use xlink:href="#path-2"></use>
            </mask>
            <use id="Mask" fill="url(#linearGradient-1)" xlink:href="#path-2"></use>
            <g id="hands-big" opacity="0" mask="url(#mask-3)">
                <g transform="translate(37.000000, 16.000000)">
                    <rect id="Rectangle-84" fill="#E0FCFF" x="5.89946182" y="45.7057963" width="16.8216403" height="9.65178571" rx="4.82589286"></rect>
                    <path d="M3.85296972,50.7415105 L24.7675942,50.7415105 L24.7675942,50.7415105 C26.4244485,50.7415105 27.7675942,52.0846563 27.7675942,53.7415105 L27.7675942,79.9637567 L27.7675942,79.9637567 C27.7675942,81.6206109 26.4244485,82.9637567 24.7675942,82.9637567 L3.85296972,82.9637567 L3.85296972,82.9637567 C2.19611547,82.9637567 0.85296972,81.6206109 0.85296972,79.9637567 L0.85296972,53.7415105 L0.85296972,53.7415105 C0.85296972,52.0846563 2.19611547,50.7415105 3.85296972,50.7415105 Z" id="Rectangle-85" fill="#FFFFFF"></path>
                    <path d="M23.492094,23.5339355 L23.492094,20.313977 C23.492094,19.017201 24.5433386,17.9659564 25.8401146,17.9659564 C27.1368906,17.9659564 28.1881352,19.017201 28.1881352,20.313977 L28.1881352,31.6851111 L28.1881352,35.352194 C28.1881352,41.0703306 23.5526696,45.7057963 17.834533,45.7057963 L10.3654899,45.7057963 L10.3654899,45.7057963 C4.64735331,45.7057963 0.0118877047,41.0703306 0.0118877047,35.352194 L0.0118877047,28.9985918 L0.0118877047,28.9985918 C0.0118877047,28.9057714 0.0150492729,28.8136895 0.0212705972,28.7224477 C0.0150598533,28.6528287 0.0118877047,28.5823352 0.0118877047,28.5111007 L0.0118877047,14.4534474 C0.0118877047,13.1566714 1.06313235,12.1054268 2.35990833,12.1054268 L2.35990833,12.1054268 L2.35990833,12.1054268 C3.65668432,12.1054268 4.70792896,13.1566714 4.70792896,14.4534474 L4.70792896,23.5339355 L4.70792896,25.5836926 C4.70792896,25.9078866 4.97074012,26.1706977 5.29493412,26.1706977 C5.61912811,26.1706977 5.88193927,25.9078866 5.88193927,25.5836926 L5.88193927,25.5836926 L5.88193927,23.5339355 L5.88193927,5.85800407 L5.88193927,5.85800407 C5.88193927,4.56122809 6.93318392,3.50998345 8.2299599,3.50998345 C9.52673589,3.50998345 10.5779805,4.56122809 10.5779805,5.85800407 L10.5779805,23.5339355 L10.5779805,25.5836926 C10.5779805,25.9078866 10.8407917,26.1706977 11.1649857,26.1706977 C11.4891797,26.1706977 11.7519908,25.9078866 11.7519908,25.5836926 L11.7519908,25.5836926 L11.7519908,23.5339355 L11.7519908,2.73238831 L11.7519908,2.73238831 C11.7519908,1.43561232 12.8032355,0.384367681 14.1000115,0.384367681 C15.3967875,0.384367681 16.4480321,1.43561232 16.4480321,2.73238831 L16.4480321,23.5339355 L16.4480321,25.5836926 C16.4480321,25.9078866 16.7108433,26.1706977 17.0350373,26.1706977 C17.3592313,26.1706977 17.6220424,25.9078866 17.6220424,25.5836926 L17.6220424,23.5339355 L17.6220424,5.07660013 C17.6220424,3.77982415 18.6732871,2.7285795 19.970063,2.7285795 C21.266839,2.7285795 22.3180837,3.77982415 22.3180837,5.07660013 L22.3180837,23.5339355 L22.3180837,25.5836926 C22.3180837,25.9078866 22.5808948,26.1706977 22.9050888,26.1706977 C23.2292828,26.1706977 23.492094,25.9078866 23.492094,25.5836926 L23.492094,23.5339355 Z" id="shaking-hand" fill="#FFFFFF"></path>
                </g>
            </g>
            <g id="hands-left" opacity="0" mask="url(#mask-3)">
                <g transform="translate(14.723214, 45.339725)">
                    <rect id="Rectangle-84-Copy" fill="#E0FCFF" x="3.52680982" y="27.699707" width="10.1885617" height="5.85205078" rx="2.92602539"></rect>
                    <path d="M3.39186776,30.8208008 L13.8503136,30.8208008 L13.8503136,30.8208008 C15.5071678,30.8208008 16.8503136,32.1639465 16.8503136,33.8208008 L16.8503136,48.1061747 L16.8503136,48.1061747 C16.8503136,49.7630289 15.5071678,51.1061747 13.8503136,51.1061747 L3.39186776,51.1061747 L3.39186776,51.1061747 C1.73501351,51.1061747 0.391867757,49.7630289 0.391867757,48.1061747 L0.391867757,33.8208008 L0.391867757,33.8208008 C0.391867757,32.1639465 1.73501351,30.8208008 3.39186776,30.8208008 Z" id="Rectangle-85-Copy" fill="#FFFFFF"></path>
                    <path d="M10.0579391,14.7331922 L10.0579391,1.43684844 C10.0579391,0.64329896 9.41464015,-1.45772675e-16 8.62109066,0 C7.82754118,1.45772675e-16 7.18424222,0.64329896 7.18424222,1.43684844 L7.18424222,1.43684844 L7.18424222,14.7331922 L7.18424222,16.5696407 C7.18424222,16.7680281 7.02341748,16.9288528 6.82503011,16.9288528 C6.62664274,16.9288528 6.465818,16.7680281 6.465818,16.5696407 L6.465818,14.7331922 L6.465818,3.34717307 C6.465818,2.55362358 5.82251904,1.91032462 5.02896955,1.91032462 C4.23542007,1.91032462 3.59212111,2.55362358 3.59212111,3.34717307 L3.59212111,14.7434623 L3.59212111,16.5696407 L3.59212111,16.5696407 C3.59212111,16.7680281 3.43129637,16.9288528 3.232909,16.9288528 C3.03452163,16.9288528 2.87369689,16.7680281 2.87369689,16.5696407 L2.87369689,14.8135709 L2.87369689,8.60056578 C2.87369689,7.8070163 2.23039793,7.16371734 1.43684844,7.16371734 L1.43684844,7.16371734 L1.43684844,7.16371734 C0.64329896,7.16371734 -9.71817835e-17,7.8070163 0,8.60056578 L2.22044605e-16,17.1888166 C2.52439699e-16,17.4370114 0.0629288951,17.6705084 0.17370168,17.8742225 C0.0607597889,18.2441741 -1.02638841e-14,18.6368947 -1.02140518e-14,19.0438064 L0,19.0438064 L0,21.3717567 C4.27993293e-16,24.8665872 2.83311986,27.699707 6.32795031,27.699707 L10.914231,27.699707 C14.4090615,27.699707 17.2421813,24.8665872 17.2421813,21.3717567 L17.2421813,19.9072409 L17.2421813,12.1824244 C17.2421813,11.388875 16.5988824,10.745576 15.8053329,10.745576 C15.0117834,10.745576 14.3684844,11.388875 14.3684844,12.1824244 L14.3684844,15.2045638 C14.1370188,15.1367708 13.8968537,15.0893413 13.6500602,15.0643466 L13.6500602,2.86959191 C13.6500602,2.07604243 13.0067613,1.43274347 12.2132118,1.43274347 C11.4196623,1.43274347 10.7763633,2.07604243 10.7763633,2.86959191 L10.7763633,14.7331922 L10.7763633,16.5696407 C10.7763633,16.7680281 10.6155386,16.9288528 10.4171512,16.9288528 C10.2187638,16.9288528 10.0579391,16.7680281 10.0579391,16.5696407 L10.0579391,14.7331922 Z" id="shaking-hand-small" fill="#FFFFFF"></path>
                </g>
            </g>
            <g id="Group-37-Copy" mask="url(#mask-3)" fill="#FFFFFF">
                <g transform="translate(69.814086, 52.893296)">
                    <rect id="Rectangle-84-Copy" x="3.09154471" y="23.3134921" width="8.50174794" height="5.05125661" rx="2.52562831"></rect>
                    <rect id="Rectangle-85-Copy" x="0.386443088" y="26.0333995" width="13.5255081" height="15.9308862" rx="5"></rect>
                    <path d="M11.9133681,13.0010519 C11.7227825,12.9168465 11.5243844,12.8470884 11.3195621,12.7931659 L11.3195621,2.39740313 C11.3195621,1.73933771 10.7860947,1.20587028 10.1280293,1.20587028 C9.46996385,1.20587028 8.93649642,1.73933771 8.93649642,2.39740313 L8.93649642,12.6616379 L8.34072999,12.6616379 L8.34072999,1.19153286 C8.34072999,0.533467431 7.80726256,-1.20884657e-16 7.14919713,0 L7.14919713,0 L7.14919713,0 C6.49113171,1.20884657e-16 5.95766428,0.533467431 5.95766428,1.19153286 L5.95766428,1.19153286 L5.95766428,12.6616379 L5.36189785,12.6616379 L5.36189785,2.79935989 C5.36189785,2.14129447 4.82843042,1.60782704 4.170365,1.60782704 C3.51229957,1.60782704 2.97883214,2.14129447 2.97883214,2.79935989 L2.97883214,12.7931659 C2.77400983,12.8470884 2.57561175,12.9168465 2.3850262,13.0010519 C2.40206327,13.1493828 2.52805404,13.2645731 2.68094893,13.2645731 C2.84546528,13.2645731 2.97883214,13.1312062 2.97883214,12.9666899 L2.97883214,11.1507157 C2.97883214,10.9861994 2.84546528,10.8528325 2.68094893,10.8528325 C2.51643257,10.8528325 2.38306571,10.9861994 2.38306571,11.1507157 L2.38306571,12.9666899 C2.38306571,12.9783113 2.38373122,12.9897774 2.3850262,13.0010519 C2.38437261,13.0013407 2.38371911,13.0016296 2.38306571,13.0019187 L2.38306571,7.22088425 C2.38306571,6.56281883 1.84959828,6.0293514 1.19153286,6.0293514 L1.19153286,6.0293514 L1.19153286,6.0293514 C0.533467431,6.0293514 -8.05897717e-17,6.56281883 0,7.22088425 L0,14.4847808 C3.4635667e-17,14.7676025 0.0985360552,15.0274098 0.26315063,15.2317453 C0.0931438245,15.6757674 -1.02757511e-14,16.1578252 -1.02140518e-14,16.6616379 L0,16.6616379 L0,17.987565 C3.60221075e-16,20.9289933 2.38449877,23.3134921 5.32592707,23.3134921 L5.32592707,23.3134921 L8.9724672,23.3134921 C11.9138955,23.3134921 14.2983943,20.9289933 14.2983943,17.987565 L14.2983943,17.0805472 L14.2983943,10.2355599 C14.2983943,9.57749452 13.7649268,9.04402709 13.1068614,9.04402709 C12.448796,9.04402709 11.9153286,9.57749452 11.9153286,10.2355599 L11.9153286,13.0019187 C11.9146752,13.0016296 11.9140217,13.0013407 11.9133681,13.0010519 C11.896331,13.1493828 11.7703402,13.2645731 11.6174453,13.2645731 C11.452929,13.2645731 11.3195621,13.1312062 11.3195621,12.9666899 L11.3195621,11.1507157 C11.3195621,10.9861994 11.452929,10.8528325 11.6174453,10.8528325 C11.7819617,10.8528325 11.9153286,10.9861994 11.9153286,11.1507157 L11.9153286,12.9666899 C11.9153286,12.9783113 11.9146631,12.9897774 11.9133681,13.0010519 Z" id="Combined-Shape-Copy-8"></path>
                </g>
            </g>
            <g id="hands-right" mask="url(#mask-3)">
                <g transform="translate(69.723214, 52.384368)"></g>
            </g>
        </g>
        <g id="concert-icon" opacity="0" transform="translate(235.996947, 42.117334)">
            <mask id="mask-6" fill="white">
                <use xlink:href="#path-5"></use>
            </mask>
            <use id="Mask" fill="url(#linearGradient-4)" xlink:href="#path-5"></use>
            <g id="Group-36" mask="url(#mask-6)" fill="#FFFFFF">
                <g transform="translate(22.184290, 18.112837)" id="concert-mic-icon">
                    <path d="M18.6222353,26.0698631 L15.7173145,31.5332244 L15.7173145,31.5332244 C14.6801866,33.4837784 12.2581919,34.2242565 10.3076379,33.1871286 L10.1039519,33.0788268 C9.82504144,33.8775996 9.3382997,34.4832852 8.64372669,34.8958836 C7.84439948,35.3707093 7.00268006,35.6528287 6.11856843,35.7422417 C4.81927264,39.4185647 4.16962474,41.5639663 4.16962474,42.1784467 C4.16962474,43.1001673 4.16962474,47.742236 5.79069099,49.8056332 C6.87140182,51.1812313 9.00278481,52.0733985 12.1848399,52.4821348 C8.7437278,52.2010373 6.21864635,51.789567 4.60959557,51.2477241 C3.0005448,50.7058812 1.56661315,50.1279324 0.307800625,49.5138778 C-0.102600208,45.0052563 -0.102600208,42.2040784 0.307800625,41.1103443 C0.691840567,40.0868629 1.97214718,36.3542062 4.14872046,29.9123741 L3.50272972,29.5688947 C1.55217575,28.5317668 0.811697657,26.109772 1.84882559,24.1592181 L13.3217826,2.58172413 L13.3217826,2.58172413 C14.3589106,0.631170168 16.7809053,-0.109307929 18.7314593,0.92782001 L18.7314593,0.92782001 L25.5363674,4.54605387 L25.5363674,4.54605387 C27.4869214,5.58318181 28.2273995,8.00517654 27.1902716,9.9557305 L24.0299745,15.8993849 L20.9647642,14.1296849 C20.2473253,13.7154714 19.3299396,13.9612841 18.9157261,14.6787231 L18.8461443,14.7992422 C18.4319307,15.5166812 18.6777435,16.4340668 19.3951824,16.8482803 L22.5553281,18.6727913 L22.063428,19.5979208 L18.8704928,17.7544788 C18.1530539,17.3402652 17.2356683,17.586078 16.8214547,18.3035169 L16.7518729,18.4240361 C16.3376594,19.141475 16.5834721,20.0588606 17.3009111,20.4730742 L20.5887817,22.3713272 L20.0968816,23.2964567 L16.7762215,21.3792726 L16.7762215,21.3792726 C16.0587825,20.9650591 15.1413969,21.2108718 14.7271834,21.9283107 L14.6576016,22.0488299 C14.243388,22.7662689 14.4892008,23.6836545 15.2066397,24.097868 L18.6222353,26.0698631 Z"></path>
                </g>
            </g>
        </g>
        <g id="order-icon" opacity="0" transform="translate(235.996947, 212.117334)">
            <ellipse id="Oval-24" fill="url(#linearGradient-7)" cx="51.5" cy="52.5" rx="51.5" ry="52.5"></ellipse>
            <g id="Group-46" transform="translate(26.740385, 23.221154)">
                <g id="Group-44">
                    <path d="M47.513588,53.4829738 C49.1484665,53.6916162 50.4828253,53.3871548 51.5166642,52.5695895 C52.5505032,51.7520242 53.0688101,49.9369146 53.0715851,47.1242605 L53.0715851,13.6070266 L51.2165183,15.5030466 L49.4606439,13.7084089 L47.7968762,15.4089065 L46.2646247,13.8428284 L44.6023277,15.5418228 L44.0442624,53.4829738 L47.513588,53.4829738 Z" id="Path-58" fill="#F2FCFF"></path>
                    <path d="M39.4827435,0.445553334 C41.4303169,0.37208367 42.7676591,0.697890062 43.49477,1.42297251 C44.2218809,2.14805496 44.6432795,3.19593039 44.7589658,4.56659881 L44.7589658,49.2915438 C44.7115119,50.3150968 44.9876709,51.2018269 45.5874426,51.951734 C46.1872143,52.7016412 47.1565786,53.2276237 48.4955353,53.5296816 L35.6061291,53.5296816 L35.6061291,0.445553334 L39.4827435,0.445553334 Z" id="Path-57" fill="#CAF2FF"></path>
                    <path d="M0.347058923,62.0227461 L0.347058923,4.68363397 C0.475942456,3.32448326 0.787621586,2.37111861 1.28209631,1.82354002 C1.77657104,1.27596143 2.73238704,0.80802281 4.14954431,0.419724155 L40.6168449,0.419724155 C38.8197761,0.419724155 37.5300984,1.07391986 36.7478118,2.38231126 C35.9655253,3.69070266 35.6320848,5.13742366 35.7474903,6.72247427 L35.7474903,62.1713751 L34.2604135,60.6514691 L32.5931416,62.3555483 L31.0778502,60.8068048 L29.493475,62.4261573 L27.8510582,60.7474819 L26.3651105,62.266234 L24.7130432,60.5776952 L22.9394574,62.3904353 L21.3717542,60.7881229 L19.7586005,62.4368892 L18.1008218,60.7425128 L16.6032803,62.2731146 L15.0117264,60.646425 L13.3659309,62.3285536 L11.6472537,60.5719343 L9.97902919,62.2769871 L8.28091058,60.5413802 L6.68991701,62.1674971 L5.17877767,60.6229973 L3.64045659,62.195279 L2.00767726,60.5264538 L0.347058923,62.0227461 Z" id="Path-56" fill="#FFFFFF"></path>
                </g>
                <rect id="Rectangle-56" fill="#01A1DA" x="7.37665782" y="8.53583916" width="21.2078912" height="2.84527972" rx="1.42263986"></rect>
                <g id="Group-45" transform="translate(2.766247, 19.916958)" fill="#01C3F7">
                    <rect id="Rectangle-75" x="0" y="0" width="1.28838887" height="1" rx="0.5"></rect>
                    <rect id="Rectangle-75-Copy-4" x="8.58925911" y="0" width="1.28838887" height="1" rx="0.5"></rect>
                    <rect id="Rectangle-75-Copy-8" x="17.1785182" y="0" width="1.28838887" height="1" rx="0.5"></rect>
                    <rect id="Rectangle-75-Copy-2" x="4.29462956" y="0" width="1.28838887" height="1" rx="0.5"></rect>
                    <rect id="Rectangle-75-Copy-5" x="12.8838887" y="0" width="1.28838887" height="1" rx="0.5"></rect>
                    <rect id="Rectangle-75-Copy-9" x="21.4731478" y="0" width="1.28838887" height="1" rx="0.5"></rect>
                    <rect id="Rectangle-75-Copy-12" x="27.9150921" y="0" width="1.28838887" height="1" rx="0.5"></rect>
                    <rect id="Rectangle-75-Copy" x="2.14731478" y="0" width="1.28838887" height="1" rx="0.5"></rect>
                    <rect id="Rectangle-75-Copy-6" x="10.7365739" y="0" width="1.28838887" height="1" rx="0.5"></rect>
                    <rect id="Rectangle-75-Copy-10" x="19.325833" y="0" width="1.28838887" height="1" rx="0.5"></rect>
                    <rect id="Rectangle-75-Copy-13" x="25.7677773" y="0" width="1.28838887" height="1" rx="0.5"></rect>
                    <rect id="Rectangle-75-Copy-3" x="6.44194433" y="0" width="1.28838887" height="1" rx="0.5"></rect>
                    <rect id="Rectangle-75-Copy-7" x="15.0312034" y="0" width="1.28838887" height="1" rx="0.5"></rect>
                    <rect id="Rectangle-75-Copy-11" x="23.6204626" y="0" width="1.28838887" height="1" rx="0.5"></rect>
                    <rect id="Rectangle-75-Copy-14" x="30.0624069" y="0" width="1.28838887" height="1" rx="0.5"></rect>
                </g>
                <g id="Group-45-Copy" transform="translate(2.766247, 46.472902)" fill="#01C3F7">
                    <rect id="Rectangle-75" x="0" y="0" width="1.28838887" height="1" rx="0.5"></rect>
                    <rect id="Rectangle-75-Copy-4" x="8.58925911" y="0" width="1.28838887" height="1" rx="0.5"></rect>
                    <rect id="Rectangle-75-Copy-8" x="17.1785182" y="0" width="1.28838887" height="1" rx="0.5"></rect>
                    <rect id="Rectangle-75-Copy-2" x="4.29462956" y="0" width="1.28838887" height="1" rx="0.5"></rect>
                    <rect id="Rectangle-75-Copy-5" x="12.8838887" y="0" width="1.28838887" height="1" rx="0.5"></rect>
                    <rect id="Rectangle-75-Copy-9" x="21.4731478" y="0" width="1.28838887" height="1" rx="0.5"></rect>
                    <rect id="Rectangle-75-Copy-12" x="27.9150921" y="0" width="1.28838887" height="1" rx="0.5"></rect>
                    <rect id="Rectangle-75-Copy" x="2.14731478" y="0" width="1.28838887" height="1" rx="0.5"></rect>
                    <rect id="Rectangle-75-Copy-6" x="10.7365739" y="0" width="1.28838887" height="1" rx="0.5"></rect>
                    <rect id="Rectangle-75-Copy-10" x="19.325833" y="0" width="1.28838887" height="1" rx="0.5"></rect>
                    <rect id="Rectangle-75-Copy-13" x="25.7677773" y="0" width="1.28838887" height="1" rx="0.5"></rect>
                    <rect id="Rectangle-75-Copy-3" x="6.44194433" y="0" width="1.28838887" height="1" rx="0.5"></rect>
                    <rect id="Rectangle-75-Copy-7" x="15.0312034" y="0" width="1.28838887" height="1" rx="0.5"></rect>
                    <rect id="Rectangle-75-Copy-11" x="23.6204626" y="0" width="1.28838887" height="1" rx="0.5"></rect>
                    <rect id="Rectangle-75-Copy-14" x="30.0624069" y="0" width="1.28838887" height="1" rx="0.5"></rect>
                </g>
                <rect id="Rectangle-86" fill="#01BDF6" x="1.84416446" y="25.6075175" width="6.4545756" height="1" rx="0.5"></rect>
                <rect id="Rectangle-86-Copy-2" fill="#01BDF6" x="1.84416446" y="32.2465035" width="6.4545756" height="1" rx="0.5"></rect>
                <rect id="Rectangle-86-Copy-4" fill="#01BDF6" x="1.84416446" y="38.8854895" width="6.4545756" height="1" rx="0.5"></rect>
                <rect id="Rectangle-86-Copy" fill="#01BDF6" x="1.84416446" y="27.5043706" width="3.68832891" height="1" rx="0.5"></rect>
                <rect id="Rectangle-86-Copy-3" fill="#01BDF6" x="1.84416446" y="35.0917832" width="3.68832891" height="1" rx="0.5"></rect>
                <rect id="Rectangle-86-Copy-5" fill="#01BDF6" x="1.84416446" y="41.7307692" width="3.68832891" height="1" rx="0.5"></rect>
                <rect id="Rectangle-74" fill="#00ADE6" x="12.9091512" y="13.277972" width="11.0649867" height="2.84527972" rx="1.42263986"></rect>
                <rect id="Rectangle-74-Copy" fill="#00ADE6" x="27.6624668" y="26.5559441" width="6.4545756" height="1.89685315" rx="0.948426573"></rect>
                <rect id="Rectangle-74-Copy-2" fill="#00ADE6" x="27.6624668" y="33.1949301" width="6.4545756" height="1.89685315" rx="0.948426573"></rect>
                <rect id="Rectangle-74-Copy-3" fill="#00ADE6" x="27.6624668" y="40.7823427" width="6.4545756" height="1.89685315" rx="0.948426573"></rect>
                <rect id="Rectangle-74-Copy-4" fill="#00ADE6" x="27.6624668" y="50.2666084" width="6.4545756" height="1.89685315" rx="0.948426573"></rect>
            </g>
        </g>
        <g id="shield" transform="translate(64.996947, 75.117334)">
            <path d="M208.8643,103.103448 C208.859138,103.135382 208.853969,103.167321 208.848793,103.199264 L215.851598,103.199264 C221.098303,103.199264 225.351598,107.452559 225.351598,112.699264 L225.351598,115.246363 C225.351598,120.493069 221.098303,124.746363 215.851598,124.746363 L204.357672,124.746363 C198.397244,148.092878 188.770678,171.458744 175.597846,187.739733 C160.627194,206.242743 139.860629,220.329499 113.298153,230 C89.3536997,223.740256 67.8705862,208.312713 48.8488126,183.717372 L33.2808219,183.717372 C28.0341168,183.717372 23.7808219,179.464077 23.7808219,174.217372 L23.7808219,171.670272 C23.7808219,166.468614 27.9613956,162.24338 33.1459043,162.171211 L40.2933333,162.171211 C45.8161808,162.171211 50.2933333,157.694058 50.2933333,152.171211 L50.2933333,152.171211 L50.2933333,150.360866 C50.2933333,144.838019 45.8161808,140.360866 40.2933333,140.360866 L40.2933333,140.360866 L14.96,140.360866 L14.96,140.360866 C14.4529529,140.360866 13.9547198,140.398604 13.4679562,140.471423 L9.5,140.471423 L9.5,140.471423 C4.25329488,140.471423 2.4188929e-15,136.218128 1.77635684e-15,130.971423 L0,128.576074 C-6.42536064e-16,123.329369 4.25329488,119.076074 9.5,119.076074 L9.5,119.076074 L21.0750633,119.076074 C17.5991764,101.826774 16.7016055,86.8165073 15.7872726,77.9033508 C13.7944787,58.4770728 14.7388993,36.4581879 17.4355853,33.840109 C20.1322712,31.2220302 26.311923,31.4047641 35.8539999,31.2220302 C45.3960768,31.0392962 52.0324567,30.33494 73.0718046,23.4995835 C94.1111525,16.664227 110.008716,1.0324775e-12 113.298153,0 C116.58759,-1.03141961e-12 127.289734,15.1082199 149.426114,23.4995835 C171.562494,31.8909471 196.152819,31.689386 199.106622,31.7979189 C202.060425,31.9064518 207.610831,32.2852094 209.345403,33.840109 C210.501783,34.8767088 211.204938,36.2876362 211.454867,38.0728913 C212.037837,40.9124633 212.213226,48.2565215 211.981035,60.105066 L238.5,60.105066 C243.746705,60.105066 248,64.3583609 248,69.605066 L248,72.1521651 L248,72.1521651 C248,77.3988702 243.746705,81.6521651 238.5,81.6521651 L211.274504,81.6521651 C211.273408,81.6708061 211.272308,81.6894508 211.271204,81.7080994 L195.504,81.7080994 C189.981153,81.7080994 185.504,86.1852519 185.504,91.7080994 L185.504,93.1034483 C185.504,98.6262958 189.981153,103.103448 195.504,103.103448 L208.8643,103.103448 Z" id="shield-body" fill="#8F24F3" opacity="0"></path>
            <g id="shield-tick" transform="translate(115.853553, 105.646447) rotate(-45.000000) translate(-115.853553, -105.646447) translate(76.853553, 81.646447)" opacity="0" fill="#FFFFFF">
                <rect id="shield-tick-left" x="0" y="0" width="10.8804348" height="47.0769231" rx="5"></rect>
                <rect id="shield-tick-right" transform="translate(38.918478, 41.612637) rotate(-270.000000) translate(-38.918478, -41.612637) " x="33.4782609" y="3.36263736" width="10.8804348" height="76.5" rx="5"></rect>
            </g>
        </g>
        <g id="mic-icon" opacity="0" transform="translate(74.996947, 265.117334)">
            <g id="Group-42">
                <mask id="mask-10" fill="white">
                    <use xlink:href="#path-9"></use>
                </mask>
                <use id="Mask" fill="url(#linearGradient-8)" xlink:href="#path-9"></use>
                <g mask="url(#mask-10)" fill="#FFFFFF">
                    <g transform="translate(10.857143, 20.727273)">
                        <path d="M15.5967597,28.5137085 L15.5967597,54.2857143 L11.1405426,54.2857143 L11.1405426,28.5137085 L11.1057963,28.5137085 C9.8944358,28.5137085 8.9124341,27.5317068 8.9124341,26.3203463 L8.9124341,26.3203463 L8.9124341,26.3203463 C8.9124341,25.1089858 9.8944358,24.1269841 11.1057963,24.1269841 L11.1057963,24.1269841 L15.631506,24.1269841 C16.8428665,24.1269841 17.8248682,25.1089858 17.8248682,26.3203463 L17.8248682,26.3203463 C17.8248682,27.5317068 16.8428665,28.5137085 15.631506,28.5137085 L15.5967597,28.5137085 Z" id="Combined-Shape"></path>
                        <path d="M2.2498674,17.9589562 C0.712504164,19.3888898 0.142240386,21.0260576 0.539076062,22.8704596 C0.935911737,24.7148616 1.90363758,25.6598209 3.4422536,25.7053374 C16.524842,24.9387741 23.2282066,24.5398349 23.5523474,24.5085199 C24.0385585,24.4615474 24.1293531,24.1962569 23.3083513,23.6407116 C22.4873495,23.0851663 19.0441563,21.1354515 18.5064649,16.7233157 C17.9687735,12.31118 20.381239,10.0035153 20.8618134,9.3748514 C21.3423877,8.74618752 21.4409116,8.31703456 20.5247311,8.78175885 C19.9139441,9.09157505 13.8223228,12.1506408 2.2498674,17.9589562 Z" id="Path-55"></path>
                        <ellipse id="Oval-33" cx="29.8009515" cy="15.0793651" rx="9.19094767" ry="9.04761905"></ellipse>
                        <path d="M44.2279498,4.73759112 L44.2317316,4.73414839 C46.6040638,6.93775293 48.089213,10.0896079 48.089213,13.5895896 C48.089213,15.4592077 47.6654292,17.2294887 46.9090076,18.8089576 L46.9051863,18.8074186 C46.7459043,19.2152507 46.3502733,19.5040422 45.887434,19.5040422 C45.2839313,19.5040422 44.7946958,19.0130414 44.7946958,18.4073611 C44.7946958,18.2597354 44.8237598,18.1189224 44.8764584,17.9903711 L44.8748133,17.9897085 C44.879493,17.9802937 44.8841582,17.9708704 44.8888088,17.9614385 C44.8995518,17.9372425 44.9111423,17.9135088 44.9235423,17.8902757 C45.5515593,16.5903412 45.9037366,15.1312415 45.9037366,13.5895896 C45.9037366,10.7189779 44.6826749,8.13458946 42.7333881,6.33103911 C42.7044369,6.30715631 42.6767308,6.28180872 42.6503823,6.25510924 C42.6354256,6.24158272 42.6204273,6.22810163 42.6053876,6.21466618 L42.6092825,6.21112048 C42.4380504,6.01750914 42.334062,5.76264503 42.334062,5.48340548 C42.334062,4.87772524 42.8232975,4.38672439 43.4268002,4.38672439 C43.7433094,4.38672439 44.0283892,4.52177499 44.2279498,4.73759112 Z" id="Combined-Shape"></path>
                        <path d="M50.1638318,0.521797112 L50.1694561,0.516677195 C53.6975081,3.79380315 55.9061715,8.48113494 55.9061715,13.6861891 C55.9061715,16.4666218 55.2759347,19.0993237 54.1510102,21.4482563 L54.1453272,21.4459675 C53.9084485,22.0524815 53.3200795,22.4819625 52.6317605,22.4819625 C51.7342518,22.4819625 51.0066773,21.7517627 51.0066773,20.8510155 C51.0066773,20.6314715 51.0499003,20.4220592 51.128272,20.2308821 L51.1258253,20.2298967 C51.1327849,20.2158954 51.1397228,20.2018813 51.146639,20.1878546 C51.1626157,20.151871 51.1798526,20.1165752 51.1982935,20.0820235 C52.1322591,18.1488051 52.6560052,15.9788815 52.6560052,13.6861891 C52.6560052,9.41711268 50.8400837,5.57369785 47.9411705,2.89151892 C47.8981152,2.85600123 47.8569116,2.81830515 47.817727,2.77859859 C47.7954839,2.75848242 47.7731789,2.73843379 47.7508124,2.71845305 L47.7566048,2.71318 C47.5019542,2.42524779 47.3473062,2.04622252 47.3473062,1.63094694 C47.3473062,0.730199817 48.0748807,0 48.9723893,0 C49.4430911,0 49.8670521,0.200842676 50.1638318,0.521797112 Z" id="Combined-Shape-Copy-7"></path>
                    </g>
                </g>
            </g>
        </g>
    </g>
  <animate id="shield_body_animate" xlink:href="#shield-body" attributeName="opacity" values="0;1" fill="freeze"  dur="1.5s" />
  <animateTransform
  id="shield_body_animation"
  attributeName="transform"
  xlink:href="#shield-body"
  type="translate"
  from="0, 500"
  to="0, 0"
  begin="0s"
  dur="1s"
  repeatCount="0"
/>
 <animate id="shield_tick_animate" xlink:href="#shield-tick" attributeName="opacity" values="0;0;0;1" fill="freeze" dur="1.5s" begin="shield_body_animation.end" />


  <animate id="mic_icon_opacity" xlink:href="#mic-icon" attributeName="opacity" values="0;1" fill="freeze" dur="1.8s" begin="shield_tick_animate.end + 3s" />
  <animateTransform
  id="mic_icon_animation"
  attributeName="transform"
  xlink:href="#mic-icon"
  type="translate"
  from="0, 1000"
  to="74.996947, 265.117334"
  begin="shield_tick_animate.end + 3s"
  dur="1.5s"
  fill="freeze"
/>

<animate xlink:href="#shadow" attributeName="opacity" values="0;1" fill="freeze" dur="1s" begin="shield_tick_animate.end" />
<animateTransform
  id="shadow_animate"
  attributeName="transform"
  xlink:href="#shadow"
  type="translate"
  from="1000, -1000"
  to="40, 55"
  begin="shield_tick_animate.end + 2s"
  dur="0.5s"
  fill="freeze"
/>
<animate xlink:href="#vote-icon" id="vote_icon_animate" attributeName="opacity" values="0;1" fill="freeze" dur="1.2s" begin="mic_icon_animation.end + 1s" />
<animateTransform
  id="vote_icon_animate"
  attributeName="transform"
  xlink:href="#vote-icon"
  type="translate"
  from="-1000, -1000"
  to="18.996947, 57.117334"
  begin="mic_icon_animation.end + 1s"
  dur="1s"
  fill="freeze"
/>

<animate xlink:href="#hands-big" attributeName="opacity" values="0;1" fill="freeze" dur="0.5s" begin="vote_icon_animate.end" />
<animateTransform
  id="hands_big_animate"
  attributeName="transform"
  xlink:href="#hands-big"
  type="translate"
  from="0, 50"
  to="0, 0"
  begin="vote_icon_animate.end"
  dur="0.2s"
  fill="freeze"
/>
<animate xlink:href="#hands-left" attributeName="opacity" values="0;1" fill="freeze" dur="0.5s" begin="hands_big_animate.end" id="hands_left_animate" />
<animateTransform
  attributeName="transform"
  xlink:href="#hands-left"
  type="translate"
  from="0, 50"
  to="0, 0"
  begin="hands_big_animate.end"
  dur="0.3s"
  fill="freeze"
/>

<animate id="concert_icon_animate" xlink:href="#concert-icon" attributeName="opacity" values="0;1" fill="freeze" dur="1.5s" begin="vote_icon_animate.end + 0.2s" />
<animateTransform
  attributeName="transform"
  xlink:href="#concert-icon"
  type="translate"
  from="1000, -1000"
  to="235.996947, 42.117334"
  begin="vote_icon_animate.end + 0.2s"
  dur="1s"
  fill="freeze"
/>
  <animate xlink:href="#order-icon" attributeName="opacity" values="0;1" fill="freeze" dur="1.9s" begin="concert_icon_animate.end + 1s" />
  <animateTransform
  attributeName="transform"
  xlink:href="#order-icon"
  type="translate"
  from="1000, 1000"
  to="235.996947, 212.117334"
  begin="concert_icon_animate.end + 0.1s"
  dur="1.5s"
  fill="freeze"
/>
<animateTransform
            id="shaking_animation"
            attributeName="transform"
            xlink:href="#shaking-hand"
            type="rotate"
            values="0 16 40;-3 16 40;3 16 40; 0 16 40"
            begin="0s; shaking_animation.end + 4s"
            dur="0.4s"
            repeatCount="3"
        />

  <animateTransform
            id="shaking_animation"
            attributeName="transform"
            xlink:href="#shaking-hand-small"
            type="rotate"
            values="0 10 45;-5 10 45;5 10 45; 0 10 45"
            begin="0s; shaking_animation.end + 5s"
            dur="0.9s"
            repeatCount="1"
        />
</svg>
