<svg width="451px" height="337px" viewBox="0 0 451 337" version="1.1" xmlns="http://www.w3.org/2000/svg" xmlns:xlink="http://www.w3.org/1999/xlink">
    <defs>
        <linearGradient x1="50%" y1="0%" x2="50%" y2="100%" id="linearGradient-1">
            <stop stop-color="#E552C1" offset="0%"></stop>
            <stop stop-color="#7A58F1" offset="100%"></stop>
        </linearGradient>
        <path d="M4,6.91341515e-16 L261.863962,6.91341515e-16 L261.863962,0 C264.073101,-4.05816873e-16 265.863962,1.790861 265.863962,4 L265.863962,9.14673913 L265.863962,9.14673913 C265.863962,14.1983437 261.768827,18.2934783 256.717223,18.2934783 L9.14673913,18.2934783 L9.14673913,18.2934783 C4.0951346,18.2934783 6.18643132e-16,14.1983437 0,9.14673913 L0,4 L0,4 C-2.705415e-16,1.790861 1.790861,4.05816873e-16 4,0 Z" id="path-2"></path>
        <linearGradient x1="50%" y1="0%" x2="50%" y2="100%" id="linearGradient-4">
            <stop stop-color="#E653C1" offset="0%"></stop>
            <stop stop-color="#7957F1" offset="100%"></stop>
        </linearGradient>
        <linearGradient x1="50%" y1="0%" x2="50%" y2="100%" id="linearGradient-5">
            <stop stop-color="#0F60D1" offset="0%"></stop>
            <stop stop-color="#5BD8DC" offset="100%"></stop>
        </linearGradient>
        <path d="M0.659572364,29.8848721 L19.341084,29.8848721 C19.341084,13.2921898 19.341084,4.59609712 19.341084,3.79659402 C19.341084,2.59733937 19.8432114,1.65324816 20.6698291,0.993798727 C21.2209075,0.554165774 21.7966261,0.330932695 22.3969848,0.324099489 L4.39262391,0.324099489 C3.40808487,0.512039692 2.54226737,0.977527043 1.79517143,1.72056154 C1.0480755,2.46359604 0.595962334,3.37369251 0.438831947,4.45085093 L0.659572364,29.8848721 Z" id="path-6"></path>
    </defs>
    <g id="Page-6" stroke="none" stroke-width="1" fill="none" fill-rule="evenodd">
        <g id="shadow" transform="translate(239.500000, 179.500000) rotate(-27.000000) translate(-239.500000, -179.500000) translate(56.000000, 63.000000)" fill="#F5F5F5">
            <rect id="Rectangle-31" x="29.9474851" y="-4.54747351e-13" width="257.561965" height="46.4067354" rx="23.2033677"></rect>
            <rect id="Rectangle-31-Copy-9" x="296.421543" y="0" width="69.8345808" height="46.4067354" rx="23.2033677"></rect>
            <rect id="Rectangle-31-Copy-7" x="45.9234163" y="185.626942" width="241.617652" height="46.4067354" rx="23.2033677"></rect>
            <rect id="Rectangle-31-Copy-4" x="0.543451119" y="92.8134709" width="341.821895" height="46.4067354" rx="23.2033677"></rect>
            <path d="M266.690815,185.626942 L66.5586004,185.626942 C77.2956024,183.591885 85.4147648,174.159174 85.4147648,162.830131 L85.4147648,162.830131 C85.4147648,150.015265 75.0262632,139.626763 62.2113971,139.626763 L29.2114999,139.626763 C30.6196757,139.359862 32.0728803,139.220206 33.5587032,139.220206 L33.5587032,139.220206 L266.690815,139.220206 L244.514217,139.220206 L244.514217,139.220206 C231.699351,139.220206 221.310849,149.608708 221.310849,162.423574 L221.310849,162.423574 L221.310849,162.423574 C221.310849,175.23844 231.699351,185.626942 244.514217,185.626942 L266.690815,185.626942 Z" id="Combined-Shape"></path>
            <path d="M276.502699,92.8134709 L48.1140452,92.8134709 C59.755429,91.5687338 68.822041,81.7145357 68.822041,69.7427169 L68.822041,69.7427169 C68.822041,56.9278508 58.4335394,46.5393492 45.6186733,46.5393492 L45.6186733,46.5393492 L31.0633312,46.5393492 C31.8831095,46.4516957 32.7156559,46.4067354 33.5587032,46.4067354 L33.5587032,46.4067354 L276.502699,46.4067354 L264.137986,46.4067354 L264.137986,46.4067354 C251.32312,46.4067354 240.934618,56.795237 240.934618,69.6101032 L240.934618,69.6101032 L240.934618,69.6101032 C240.934618,82.4249693 251.32312,92.8134709 264.137986,92.8134709 L276.502699,92.8134709 Z" id="Combined-Shape"></path>
        </g>
        <g id="tool6" transform="translate(245.000000, 3.000000)" fill="#F3D07B">
            <rect id="Rectangle-54" x="4" y="0" width="3" height="10" rx="1.5"></rect>
            <rect id="Rectangle-54-Copy" transform="translate(5.500000, 5.000000) rotate(-270.000000) translate(-5.500000, -5.000000) " x="4" y="0" width="3" height="10" rx="1.5"></rect>
        </g>
        <g id="tool5" transform="translate(29.000000, 182.000000)" fill="#F86CC4">
            <rect id="Rectangle-54" x="4" y="0" width="4" height="11" rx="2"></rect>
            <rect id="Rectangle-54-Copy" transform="translate(6.000000, 5.500000) rotate(-270.000000) translate(-6.000000, -5.500000) " x="4" y="0" width="4" height="11" rx="2"></rect>
        </g>
        <circle id="tool4" stroke="#35CCF8" stroke-width="5" fill="#FFFFFF" cx="360.5" cy="132.5" r="5.5"></circle>
        <circle id="tool3" stroke="#FA6BAB" stroke-width="5" fill="#FFFFFF" cx="86" cy="220" r="4"></circle>
        <circle id="tool2" fill="#FF6565" cx="359.5" cy="205.5" r="4.5"></circle>
        <circle id="tool1" fill="#FBDF3E" cx="189.5" cy="312.5" r="4.5"></circle>
        <g id="icon" transform="translate(0.000000, 26.000000)">
            <g id="orbit" transform="translate(37.000000, 12.913043)">
                <path d="M38.3460621,242.163702 C69.7234363,235.274223 96.1246908,227.598697 117.549826,219.137122 C149.687528,206.444761 179.615061,193.288241 214.746035,176.50138 C251.078995,159.140167 266.122842,152.337763 314.549085,122.957647 C346.833246,103.370903 372.622735,81.0371943 391.917549,55.9565217" id="bottom_orbit_path1" stroke="#E0E0E0"></path>
                <path d="M11.4367542,64.5652174 C48.409022,106.992188 100.994294,146.026261 169.192572,181.667438 C237.390849,217.308615 292.748341,241.271166 335.265047,253.555091" id="bottom_orbit_path2" stroke="#E0E0E0"></path>
                <g id="bottom_left" transform="translate(0.596659, 188.315217)" stroke="#E2E2E2">
                    <path d="M0.0364288112,22.7134214 L7.65933118,16.4649711" id="Path-4"></path>
                    <path d="M15.8120106,11.6099694 L23.9773037,7.20894192" id="Path-5"></path>
                    <path d="M32.2224838,3.53721552 L40.0682289,0.0105086617" id="Path-6"></path>
                </g>
                <g id="bottom_right" transform="translate(345.139618, 201.967391) scale(-1, 1) translate(-345.139618, -201.967391) translate(324.639618, 190.467391)" stroke="#E2E2E2">
                    <path d="M0.0364288112,22.7134214 L7.65933118,16.4649711" id="Path-4"></path>
                    <path d="M15.8120106,11.6099694 L23.9773037,7.20894192" id="Path-5"></path>
                    <path d="M32.2224838,3.53721552 L40.0682289,0.0105086617" id="Path-6"></path>
                </g>
                <g id="top_right" transform="translate(297.675418, 2.152174)" stroke="#E0E0E0">
                    <path d="M45.4101469,0.914253567 L36.0081819,2.19631029" id="Path-7"></path>
                    <path d="M26.7491726,4.61908224 L17.1474901,8.0948221" id="Path-8"></path>
                    <path d="M8.80928364,11.4859672 L0.043786825,16.3661897" id="Path-9"></path>
                </g>
                <g id="top_left" transform="translate(59.477327, 8.500000) scale(-1, 1) translate(-59.477327, -8.500000) translate(36.477327, 0.000000)" stroke="#E0E0E0">
                    <path d="M45.2076372,0 L35.5202864,1.07608696" id="Path-7"></path>
                    <path d="M26.9093079,3.22826087 L17.221957,6.45652174" id="Path-8"></path>
                    <path d="M8.61097852,10.7608696 L0,16.1413043" id="Path-9"></path>
                </g>
            </g>
            <g id="icon_lock" transform="translate(0.000000, 236.739130)">
                <path d="M53.4843922,26.0487256 C53.4830704,26.0567937 53.4817468,26.0648629 53.4804212,26.0729332 L54.9844353,26.0729332 C56.487699,26.0729332 57.7063349,27.2915692 57.7063349,28.7948328 C57.7063349,30.2980965 56.487699,31.5167324 54.9844353,31.5167324 L52.3303688,31.5167324 C50.8040675,37.4151476 48.3389692,43.3184519 44.96577,47.431787 C41.1321984,52.1065078 35.8144534,55.6654774 29.0125352,58.1086957 C22.8810204,56.5271932 17.379787,52.6294785 12.5088349,46.4155514 L8.81151285,46.4155514 C7.3082492,46.4155514 6.08961323,45.1969155 6.08961323,43.6936518 C6.08961323,42.202507 7.28867982,40.9914193 8.77521221,40.9719893 L10.1235832,40.9719893 C11.6452126,40.9719893 12.8787369,39.738465 12.8787369,38.2168356 L12.8787369,38.2168356 C12.8787369,36.6952063 11.6452126,35.4616819 10.1235832,35.4616819 L10.1235832,35.4616819 L4.025273,35.4616819 L4.025273,35.4616819 C3.89156596,35.4616819 3.76008347,35.4712064 3.63146697,35.4896138 L2.70273003,35.4896138 C1.21005345,35.4896138 1.82800159e-16,34.2795603 0,32.7868837 C-1.82800159e-16,31.2942072 1.21005345,30.0841537 2.70273003,30.0841537 L2.70273003,30.0841537 L5.39674301,30.0841537 C4.50666417,25.7261787 4.27682098,21.9338871 4.04268551,19.6820091 C3.53238589,14.7740279 3.774226,9.21103367 4.46477296,8.5495852 C5.15531993,7.88813673 6.73775848,7.93430382 9.18122146,7.88813673 C11.6246844,7.84196964 13.3240785,7.6640165 18.7116757,5.93708759 C24.099273,4.21015868 28.170201,2.60851829e-13 29.0125352,0 C29.8548694,-2.60584556e-13 32.5953935,3.81703892 38.2639105,5.93708759 C43.9324274,8.05713625 50.2293322,8.00621256 50.9857197,8.03363301 C51.7421072,8.06105346 53.1634134,8.15674524 53.6075893,8.5495852 C53.9037065,8.8114785 54.0837651,9.16794438 54.1477649,9.61898285 C54.2970475,10.3363908 54.3419599,12.1918414 54.2825022,15.1853347 L60.784067,15.1853347 C62.2873306,15.1853347 63.5059666,16.4039707 63.5059666,17.9072343 C63.5059666,19.410498 62.2873306,20.629134 60.784067,20.629134 L54.1015791,20.629134 C54.1012982,20.6338435 54.1010165,20.6385541 54.1007341,20.6432656 L50.205193,20.6432656 C48.7125165,20.6432656 47.502463,21.853319 47.502463,23.3459956 C47.502463,24.8386722 48.7125165,26.0487256 50.205193,26.0487256 L53.4843922,26.0487256 Z" id="Combined-Shape" fill="#31A311"></path>
                <g id="lock" transform="translate(21.527446, 18.293478)" fill="#FFFFFF">
                    <path d="M6.99642005,20.4456522 C3.13240395,20.4456522 0,17.3140787 0,13.451087 C0,9.58809526 3.13240395,6.45652174 6.99642005,6.45652174 C10.8604361,6.45652174 13.9928401,9.58809526 13.9928401,13.451087 C13.9928401,17.3140787 10.8604361,20.4456522 6.99642005,20.4456522 Z M6.99642005,16.1413043 C8.48258008,16.1413043 9.68735084,14.936853 9.68735084,13.451087 C9.68735084,11.9653209 8.48258008,10.7608696 6.99642005,10.7608696 C5.51026001,10.7608696 4.30548926,11.9653209 4.30548926,13.451087 C4.30548926,14.936853 5.51026001,16.1413043 6.99642005,16.1413043 Z" id="Combined-Shape"></path>
                    <path d="M11.8400955,8.60869565 L11.8400955,4 C11.8400955,1.790861 10.0492345,-4.05812251e-16 7.84009547,0 L7.84009547,0 L6.15274463,0 L6.15274463,0 C3.94360563,4.05812251e-16 2.15274463,1.790861 2.15274463,4 L2.15274463,4 L2.15274463,8.60869565 L4.92055915,8.60869565 L4.92055915,4.86956522 L4.92055915,4.86956522 C4.92055915,3.76499572 5.81598965,2.86956522 6.92055915,2.86956522 L6.92055915,2.86956522 L7.07228094,2.86956522 C8.17685044,2.86956522 9.07228094,3.76499572 9.07228094,4.86956522 L9.07228094,8.60869565 L11.8400955,8.60869565 Z" id="Combined-Shape"></path>
                </g>
            </g>
            <g id="icon_phone" transform="translate(385.341289, 236.043478)">
                <g id="Group-26" transform="translate(31.153871, 25.910002) rotate(6.000000) translate(-31.153871, -25.910002) translate(2.153871, 3.910002)">
                  <g id="money1">
                    <g id="Group-25" transform="translate(33.924205, 30.279036) rotate(-6.000000) translate(-33.924205, -30.279036) translate(12.924205, 19.779036)">
                        <rect id="Rectangle-66" fill="#31A311" x="0" y="0" width="41.0092041" height="20.7855145"></rect>
                        <path d="M5.29898038,1.53966774 L35.7102237,1.53966774 C35.6989536,1.66644476 35.6931962,1.79483314 35.6931962,1.92458467 C35.6931962,4.13325442 37.3614734,5.946939 39.4903447,6.14141011 L39.4903447,15.4139382 C37.486537,15.5969848 35.8907965,17.2145869 35.7102237,19.2458467 L5.29898038,19.2458467 C5.1184076,17.2145869 3.52266708,15.5969848 1.51885941,15.4139382 L1.51885941,6.14141011 C3.64773074,5.946939 5.31600794,4.13325442 5.31600794,1.92458467 C5.31600794,1.79483314 5.31025047,1.66644476 5.29898038,1.53966774 Z M29.9974734,13.0871758 C31.4654484,13.0871758 32.6554773,11.8808435 32.6554773,10.3927572 C32.6554773,8.90467096 31.4654484,7.69833869 29.9974734,7.69833869 C28.5294983,7.69833869 27.3394694,8.90467096 27.3394694,10.3927572 C27.3394694,11.8808435 28.5294983,13.0871758 29.9974734,13.0871758 Z" id="Combined-Shape" fill="#7FD866"></path>
                    </g>
                  </g>
                  <g id="money2">
                    <g id="Group-25-Copy" transform="translate(34.162279, 25.410781) rotate(-15.000000) translate(-34.162279, -25.410781) translate(13.162279, 14.910781)">
                        <rect id="Rectangle-66" fill="#31A311" x="0" y="0" width="41.0092041" height="20.7855145"></rect>
                        <path d="M5.29898038,1.53966774 L35.7102237,1.53966774 C35.6989536,1.66644476 35.6931962,1.79483314 35.6931962,1.92458467 C35.6931962,4.13325442 37.3614734,5.946939 39.4903447,6.14141011 L39.4903447,15.4139382 C37.486537,15.5969848 35.8907965,17.2145869 35.7102237,19.2458467 L5.29898038,19.2458467 C5.1184076,17.2145869 3.52266708,15.5969848 1.51885941,15.4139382 L1.51885941,6.14141011 C3.64773074,5.946939 5.31600794,4.13325442 5.31600794,1.92458467 C5.31600794,1.79483314 5.31025047,1.66644476 5.29898038,1.53966774 Z M29.9974734,13.0871758 C31.4654484,13.0871758 32.6554773,11.8808435 32.6554773,10.3927572 C32.6554773,8.90467096 31.4654484,7.69833869 29.9974734,7.69833869 C28.5294983,7.69833869 27.3394694,8.90467096 27.3394694,10.3927572 C27.3394694,11.8808435 28.5294983,13.0871758 29.9974734,13.0871758 Z" id="Combined-Shape" fill="#7FD866"></path>
                    </g>
                  </g>
                  <g id="money3">
                    <g id="Group-25-Copy-2" transform="translate(23.309601, 21.864211) rotate(-40.000000) translate(-23.309601, -21.864211) translate(2.309601, 11.364211)">
                        <rect id="Rectangle-66" fill="#31A311" x="0" y="0" width="41.0092041" height="20.7855145"></rect>
                        <path d="M5.29898038,1.53966774 L35.7102237,1.53966774 C35.6989536,1.66644476 35.6931962,1.79483314 35.6931962,1.92458467 C35.6931962,4.13325442 37.3614734,5.946939 39.4903447,6.14141011 L39.4903447,15.4139382 C37.486537,15.5969848 35.8907965,17.2145869 35.7102237,19.2458467 L5.29898038,19.2458467 C5.1184076,17.2145869 3.52266708,15.5969848 1.51885941,15.4139382 L1.51885941,6.14141011 C3.64773074,5.946939 5.31600794,4.13325442 5.31600794,1.92458467 C5.31600794,1.79483314 5.31025047,1.66644476 5.29898038,1.53966774 Z M29.9974734,13.0871758 C31.4654484,13.0871758 32.6554773,11.8808435 32.6554773,10.3927572 C32.6554773,8.90467096 31.4654484,7.69833869 29.9974734,7.69833869 C28.5294983,7.69833869 27.3394694,8.90467096 27.3394694,10.3927572 C27.3394694,11.8808435 28.5294983,13.0871758 29.9974734,13.0871758 Z" id="Combined-Shape" fill="#7FD866"></path>
                    </g>
                  </g>
                </g>
                <g id="Group-38" transform="translate(0.000000, 1.000000)">
                    <rect id="Rectangle-88" fill="#5C5B75" x="0" y="0" width="32.2911695" height="55.9565217" rx="4"></rect>
                    <rect id="Rectangle-87" fill="url(#linearGradient-1)" x="1.59462565" y="7.19440994" width="29.1019181" height="41.9673913" rx="1"></rect>
                    <g id="Oval-23-Copy" transform="translate(13.952974, 50.360870)">
                        <ellipse id="Mask" fill="#3F3D59" cx="2.59126668" cy="2.19829193" rx="2.19261027" ry="2.19829193"></ellipse>
                        <ellipse fill="#9795B0" cx="2.19261027" cy="2.19829193" rx="2.19261027" ry="2.19829193"></ellipse>
                    </g>
                    <ellipse id="Oval-32" fill="#9795B0" cx="16.1455847" cy="3.79704969" rx="1" ry="1"></ellipse>
                </g>
            </g>
            <g id="icon_cards" transform="translate(1.000000, 17.913043)">
                <g id="card2" transform="translate(9.763723, 0.380435)">
                    <rect id="Rectangle-92" fill="#FE288E" x="0" y="0" width="58.124105" height="34.4347826" rx="3"></rect>
                    <rect id="Rectangle-93" fill="#FFBDE3" x="4.30548926" y="5.38043478" width="7.53460621" height="7.5326087" rx="1"></rect>
                    <rect id="Rectangle-95" fill="#F2BF42" x="4.30548926" y="25.826087" width="4.30548926" height="3.22826087" rx="1.61413043"></rect>
                    <rect id="Rectangle-95-Copy" fill="#F2BF42" x="9.68735084" y="25.826087" width="4.30548926" height="3.22826087" rx="1.61413043"></rect>
                    <g id="Group-2" transform="translate(41.978520, 22.597826)">
                        <ellipse id="Oval-23" fill="#E3A81A" cx="3.7673031" cy="3.76630435" rx="3.7673031" ry="3.76630435"></ellipse>
                        <ellipse id="Oval-23-Copy-2" fill="#FFBDE3" cx="8.07279236" cy="3.76630435" rx="3.7673031" ry="3.76630435"></ellipse>
                    </g>
                    <rect id="Rectangle-94" fill="#E3A81A" x="4.30548926" y="17.2173913" width="8.61097852" height="3.22826087" rx="1"></rect>
                    <rect id="Rectangle-94-Copy" fill="#E3A81A" x="17.221957" y="17.2173913" width="8.61097852" height="3.22826087" rx="1"></rect>
                    <rect id="Rectangle-94-Copy-2" fill="#E3A81A" x="31.2147971" y="17.2173913" width="8.61097852" height="3.22826087" rx="1"></rect>
                    <rect id="Rectangle-94-Copy-3" fill="#FFBDE3" x="45.2076372" y="17.2173913" width="8.61097852" height="3.22826087" rx="1"></rect>
                </g>
                <g id="card1" transform="translate(0.076372, 11.141304)">
                    <rect id="Rectangle-92" fill="#FE7E43" x="0" y="0" width="58.124105" height="34.4347826" rx="3"></rect>
                    <rect id="Rectangle-93" fill="#FFC1A5" x="4.30548926" y="5.38043478" width="7.53460621" height="7.5326087" rx="1"></rect>
                    <rect id="Rectangle-95" fill="#FFC1A5" x="4.30548926" y="25.826087" width="4.30548926" height="3.22826087" rx="1.61413043"></rect>
                    <rect id="Rectangle-95-Copy" fill="#FFC1A5" x="9.68735084" y="25.826087" width="4.30548926" height="3.22826087" rx="1.61413043"></rect>
                    <g id="Group-2" transform="translate(41.978520, 22.597826)">
                        <ellipse id="Oval-23" fill="#FE9666" cx="3.7673031" cy="3.76630435" rx="3.7673031" ry="3.76630435"></ellipse>
                        <ellipse id="Oval-23-Copy-2" fill="#FFC1A5" cx="8.07279236" cy="3.76630435" rx="3.7673031" ry="3.76630435"></ellipse>
                    </g>
                    <rect id="Rectangle-94" fill="#FE9666" x="4.30548926" y="17.2173913" width="8.61097852" height="3.22826087" rx="1"></rect>
                    <rect id="Rectangle-94-Copy" fill="#FE9666" x="17.221957" y="17.2173913" width="8.61097852" height="3.22826087" rx="1"></rect>
                    <rect id="Rectangle-94-Copy-2" fill="#FE9666" x="31.2147971" y="17.2173913" width="8.61097852" height="3.22826087" rx="1"></rect>
                    <rect id="Rectangle-94-Copy-3" fill="#FE9666" x="45.2076372" y="17.2173913" width="8.61097852" height="3.22826087" rx="1"></rect>
                </g>
            </g>
            <g id="icon_news" transform="translate(392.875895, 0.000000)">
                <ellipse id="Oval-24" fill="url(#linearGradient-5)" cx="29.0620525" cy="29.5923913" rx="29.0620525" ry="29.5923913"></ellipse>
                <g id="Group-40" transform="translate(17.221957, 15.065217)">
                    <path d="M22.1399047,0 C22.9673704,0.340012377 23.6239336,0.913501271 24.1095943,1.72046668 C24.595255,2.52743209 24.8074872,3.37042486 24.746291,4.24944498 L18.2983294,4.30434783 C18.4792474,1.85286552 18.9562763,0.526866254 19.7294163,0.326350034 C20.5025562,0.125833814 21.3060524,0.0170504691 22.1399047,0 Z" id="Path-60" fill="#AAB6C3"></path>
                    <g id="Path-61">
                        <mask id="mask-7" fill="white">
                            <use xlink:href="#path-6"></use>
                        </mask>
                        <use id="Mask" fill="#FFFFFF" xlink:href="#path-6"></use>
                        <path d="M19.1234045,-0.45845582 C17.7687941,-0.126856031 16.7414314,0.587150866 16.0413164,1.68356487 C15.3412014,2.77997888 15.0024016,4.12891499 15.0249172,5.73037322 L15.0249172,31.8679802 L20.4871388,31.8679802 L22.7320688,-1.11033283 L19.1234045,-0.45845582 Z" fill="#D9E3ED" mask="url(#mask-7)"></path>
                    </g>
                    <path d="M6.38186158,9.68478261 L9.76372315,9.68478261 C10.3160079,9.68478261 10.7637232,10.1324979 10.7637232,10.6847826 L10.7637232,10.8369565 L10.7637232,10.8369565 C10.7637232,11.3892413 10.3160079,11.8369565 9.76372315,11.8369565 L6.38186158,11.8369565 C5.82957683,11.8369565 5.38186158,11.3892413 5.38186158,10.8369565 L5.38186158,10.6847826 L5.38186158,10.6847826 C5.38186158,10.1324979 5.82957683,9.68478261 6.38186158,9.68478261 L6.38186158,9.68478261 Z M6.38186158,13.9891304 L11.9164678,13.9891304 C12.4687525,13.9891304 12.9164678,14.4368457 12.9164678,14.9891304 L12.9164678,15.1413043 L12.9164678,15.1413043 C12.9164678,15.6935891 12.4687525,16.1413043 11.9164678,16.1413043 L6.38186158,16.1413043 C5.82957683,16.1413043 5.38186158,15.6935891 5.38186158,15.1413043 L5.38186158,14.9891304 C5.38186158,14.4368457 5.82957683,13.9891304 6.38186158,13.9891304 L6.38186158,13.9891304 Z M6.38186158,18.2934783 L11.9164678,18.2934783 C12.4687525,18.2934783 12.9164678,18.7411935 12.9164678,19.2934783 L12.9164678,19.4456522 C12.9164678,19.9979369 12.4687525,20.4456522 11.9164678,20.4456522 L6.38186158,20.4456522 C5.82957683,20.4456522 5.38186158,19.9979369 5.38186158,19.4456522 L5.38186158,19.2934783 C5.38186158,18.7411935 5.82957683,18.2934783 6.38186158,18.2934783 L6.38186158,18.2934783 Z" id="Combined-Shape" fill="#23C0DC"></path>
                </g>
            </g>
            <g id="notebook" transform="translate(87.000000, 53.913043)">
                <g id="notebook-body">
                    <rect id="Rectangle" fill="#5C5B75" x="18.4844869" y="0.967391304" width="231.420048" height="152.804348" rx="4"></rect>
                    <g id="Rectangle-3" transform="translate(0.186158, 151.619565)">
                        <mask id="mask-3" fill="white">
                            <use xlink:href="#path-2"></use>
                        </mask>
                        <use id="Mask" fill="#6B6A89" xlink:href="#path-2"></use>
                        <rect fill="#8786A3" mask="url(#mask-3)" x="91.4916468" y="-8.60869565" width="77.4988067" height="18.2934783" rx="9"></rect>
                    </g>
                </g>
                <rect id="notebook-screen" fill="url(#linearGradient-4)" x="29.24821" y="11.7282609" width="209.892601" height="131.282609" rx="4"></rect>
                <g id="notebook-visual" transform="translate(104.594272, 37.554348)">
                    <g id="Group-44">
                        <path d="M63.2308343,71.6063019 C65.4224986,71.8874642 67.2112959,71.4771779 68.5972264,70.375443 C69.9831569,69.2737081 70.6779822,66.827702 70.6817021,63.0374245 L70.6817021,17.8702578 L68.1948607,20.425297 L65.8409933,18.0068785 L63.6106011,20.2984357 L61.5565151,18.1880196 L59.3280945,20.4775512 L58.5799705,71.6063019 L63.2308343,71.6063019 Z" id="Path-58" fill="#EDFAFD"></path>
                        <path d="M52.4649486,0.134114584 C55.0758013,0.0351083058 56.8685982,0.474158607 57.8433391,1.45126549 C58.81808,2.42837237 59.3829931,3.84046874 59.5380784,5.68755461 L59.5380784,65.958013 C59.4744633,67.3373329 59.8446729,68.532273 60.6487072,69.5428331 C61.4527414,70.5533933 62.7522391,71.262197 64.5472004,71.6692443 L47.2680868,71.6692443 L47.2680868,0.134114584 L52.4649486,0.134114584 Z" id="Path-57" fill="#D7ECF3"></path>
                        <path d="M0.000938296631,83.1143314 L0.000938296631,5.8452689 C0.173715316,4.01370407 0.591542097,2.72896857 1.25441864,1.99106241 C1.91729518,1.25315624 3.19863064,0.622571338 5.09842501,0.0993076891 L53.9852875,0.0993076891 C51.5761962,0.0993076891 49.8472967,0.98088898 48.7985892,2.74405156 C47.7498816,4.50721414 47.3028822,6.45678698 47.457591,8.59277008 L47.457591,83.3146209 L45.4640649,81.2664254 L43.2289751,83.5628091 L41.1976253,81.4757528 L39.073664,83.6579604 L36.8718942,81.3958105 L34.8798815,83.442451 L32.6651746,81.1670091 L30.2875639,83.6098221 L28.1859526,81.4505774 L26.0234118,83.6724225 L23.8010483,81.3891141 L21.7934934,83.4517231 L19.6599087,81.2596281 L17.4536095,83.5264317 L15.1496073,81.1592459 L12.9132405,83.4569416 L10.6367986,81.1180718 L8.50396501,83.3093951 L6.47818137,81.2280574 L4.41595877,83.3468333 L2.22710857,81.0979573 L0.000938296631,83.1143314 Z" id="Path-56" fill="#FBFEFF"></path>
                    </g>
                    <rect id="Rectangle-56" fill="#D06EDA" x="9.68735084" y="11.8369565" width="27.9856802" height="4.30434783" rx="2.15217391"></rect>
                    <g id="Group-45" transform="translate(3.229117, 26.902174)" fill="#C46EE0">
                        <rect id="Rectangle-75" x="0" y="0" width="1.76023449" height="1.03090854" rx="0.515454268"></rect>
                        <rect id="Rectangle-75-Copy-4" x="11.7348966" y="0" width="1.76023449" height="1.03090854" rx="0.515454268"></rect>
                        <rect id="Rectangle-75-Copy-8" x="23.4697932" y="0" width="1.76023449" height="1.03090854" rx="0.515454268"></rect>
                        <rect id="Rectangle-75-Copy-2" x="5.86744829" y="0" width="1.76023449" height="1.03090854" rx="0.515454268"></rect>
                        <rect id="Rectangle-75-Copy-5" x="17.6023449" y="0" width="1.76023449" height="1.03090854" rx="0.515454268"></rect>
                        <rect id="Rectangle-75-Copy-9" x="29.3372415" y="0" width="1.76023449" height="1.03090854" rx="0.515454268"></rect>
                        <rect id="Rectangle-75-Copy-12" x="38.1384139" y="0" width="1.76023449" height="1.03090854" rx="0.515454268"></rect>
                        <rect id="Rectangle-75-Copy" x="2.93372415" y="0" width="1.76023449" height="1.03090854" rx="0.515454268"></rect>
                        <rect id="Rectangle-75-Copy-6" x="14.6686207" y="0" width="1.76023449" height="1.03090854" rx="0.515454268"></rect>
                        <rect id="Rectangle-75-Copy-10" x="26.4035173" y="0" width="1.76023449" height="1.03090854" rx="0.515454268"></rect>
                        <rect id="Rectangle-75-Copy-13" x="35.2046898" y="0" width="1.76023449" height="1.03090854" rx="0.515454268"></rect>
                        <rect id="Rectangle-75-Copy-3" x="8.80117244" y="0" width="1.76023449" height="1.03090854" rx="0.515454268"></rect>
                        <rect id="Rectangle-75-Copy-7" x="20.536069" y="0" width="1.76023449" height="1.03090854" rx="0.515454268"></rect>
                        <rect id="Rectangle-75-Copy-11" x="32.2709656" y="0" width="1.76023449" height="1.03090854" rx="0.515454268"></rect>
                        <rect id="Rectangle-75-Copy-14" x="41.0721381" y="0" width="1.76023449" height="1.03090854" rx="0.515454268"></rect>
                    </g>
                    <g id="Group-45-Copy" transform="translate(3.229117, 62.413043)" fill="#AC6EEE">
                        <rect id="Rectangle-75" x="0" y="0" width="1.76023449" height="1.03090854" rx="0.515454268"></rect>
                        <rect id="Rectangle-75-Copy-4" x="11.7348966" y="0" width="1.76023449" height="1.03090854" rx="0.515454268"></rect>
                        <rect id="Rectangle-75-Copy-8" x="23.4697932" y="0" width="1.76023449" height="1.03090854" rx="0.515454268"></rect>
                        <rect id="Rectangle-75-Copy-2" x="5.86744829" y="0" width="1.76023449" height="1.03090854" rx="0.515454268"></rect>
                        <rect id="Rectangle-75-Copy-5" x="17.6023449" y="0" width="1.76023449" height="1.03090854" rx="0.515454268"></rect>
                        <rect id="Rectangle-75-Copy-9" x="29.3372415" y="0" width="1.76023449" height="1.03090854" rx="0.515454268"></rect>
                        <rect id="Rectangle-75-Copy-12" x="38.1384139" y="0" width="1.76023449" height="1.03090854" rx="0.515454268"></rect>
                        <rect id="Rectangle-75-Copy" x="2.93372415" y="0" width="1.76023449" height="1.03090854" rx="0.515454268"></rect>
                        <rect id="Rectangle-75-Copy-6" x="14.6686207" y="0" width="1.76023449" height="1.03090854" rx="0.515454268"></rect>
                        <rect id="Rectangle-75-Copy-10" x="26.4035173" y="0" width="1.76023449" height="1.03090854" rx="0.515454268"></rect>
                        <rect id="Rectangle-75-Copy-13" x="35.2046898" y="0" width="1.76023449" height="1.03090854" rx="0.515454268"></rect>
                        <rect id="Rectangle-75-Copy-3" x="8.80117244" y="0" width="1.76023449" height="1.03090854" rx="0.515454268"></rect>
                        <rect id="Rectangle-75-Copy-7" x="20.536069" y="0" width="1.76023449" height="1.03090854" rx="0.515454268"></rect>
                        <rect id="Rectangle-75-Copy-11" x="32.2709656" y="0" width="1.76023449" height="1.03090854" rx="0.515454268"></rect>
                        <rect id="Rectangle-75-Copy-14" x="41.0721381" y="0" width="1.76023449" height="1.03090854" rx="0.515454268"></rect>
                    </g>
                    <rect id="Rectangle-86" fill="#B76EE7" x="2.15274463" y="34.4347826" width="9.68735084" height="1.07608696" rx="0.538043478"></rect>
                    <rect id="Rectangle-86-Copy-2" fill="#B76EE7" x="2.15274463" y="43.0434783" width="9.68735084" height="1.07608696" rx="0.538043478"></rect>
                    <rect id="Rectangle-86-Copy-4" fill="#B76EE7" x="2.15274463" y="51.6521739" width="9.68735084" height="1.07608696" rx="0.538043478"></rect>
                    <rect id="Rectangle-86-Copy" fill="#B76EE7" x="2.15274463" y="37.6630435" width="5.38186158" height="1.07608696" rx="0.538043478"></rect>
                    <rect id="Rectangle-86-Copy-3" fill="#B76EE7" x="2.15274463" y="46.2717391" width="5.38186158" height="1.07608696" rx="0.538043478"></rect>
                    <rect id="Rectangle-86-Copy-5" fill="#B76EE7" x="2.15274463" y="54.8804348" width="5.38186158" height="1.07608696" rx="0.538043478"></rect>
                    <rect id="Rectangle-74" fill="#D06EDA" x="16.1455847" y="17.2173913" width="13.9928401" height="4.30434783" rx="2.15217391"></rect>
                    <rect id="Rectangle-74-Copy" fill="#B76EE7" x="36.5966587" y="35.5108696" width="9.68735084" height="3.22826087" rx="1.61413043"></rect>
                    <rect id="Rectangle-74-Copy-2" fill="#B76EE7" x="36.5966587" y="44.1195652" width="9.68735084" height="3.22826087" rx="1.61413043"></rect>
                    <rect id="Rectangle-74-Copy-3" fill="#B76EE7" x="36.5966587" y="54.8804348" width="9.68735084" height="3.22826087" rx="1.61413043"></rect>
                    <rect id="Rectangle-74-Copy-4" fill="#B76EE7" x="36.5966587" y="67.7934783" width="9.68735084" height="3.22826087" rx="1.61413043"></rect>
                </g>
            </g>
        </g>
    </g>
<!--     initialize block -->
    <animate id="initialize" xlink:href="#shadow" attributeName="opacity" values="0" fill="freeze" dur="0.001s" begin="0s" />
    <animate xlink:href="#tool1" attributeName="opacity" values="0" fill="freeze" dur="0s" begin="initialize.end" />
  <animate xlink:href="#tool2" attributeName="opacity" values="0" fill="freeze" dur="0s" begin="initialize.end" />
  <animate xlink:href="#tool3" attributeName="opacity" values="0" fill="freeze" dur="0s" begin="initialize.end" />
  <animate xlink:href="#tool4" attributeName="opacity" values="0" fill="freeze" dur="0s" begin="initialize.end" />
  <animate xlink:href="#tool5" attributeName="opacity" values="0" fill="freeze" dur="0s" begin="initialize.end" />
  <animate xlink:href="#tool6" attributeName="opacity" values="0" fill="freeze" dur="0s" begin="initialize.end" />
  <animate xlink:href="#orbit" attributeName="opacity" values="0" fill="freeze" dur="0s" begin="initialize.end" />
  <animate xlink:href="#icon_lock" attributeName="opacity" values="0" fill="freeze" dur="0s" begin="initialize.end" />
  <animate xlink:href="#icon_phone" attributeName="opacity" values="0" fill="freeze" dur="0s" begin="initialize.end" />
  <animate xlink:href="#icon_cards" attributeName="opacity" values="0" fill="freeze" dur="0s" begin="initialize.end" />
  <animate xlink:href="#icon_news" attributeName="opacity" values="0" fill="freeze" dur="0s" begin="initialize.end" />
  <animate xlink:href="#bottom_left" attributeName="opacity" values="0" fill="freeze" dur="0s" begin="initialize.end" />
  <animate xlink:href="#bottom_right" attributeName="opacity" values="0" fill="freeze" dur="0s" begin="initialize.end" />
  <animate xlink:href="#top_left" attributeName="opacity" values="0" fill="freeze" dur="0s" begin="initialize.end" />
  <animate xlink:href="#top_right" attributeName="opacity" values="0" fill="freeze" dur="0s" begin="initialize.end" />
  <animate xlink:href="#notebook-screen" attributeName="opacity" values="0" fill="freeze" dur="0s" begin="initialize.end" />
  <animate id="initialized" xlink:href="#notebook-visual" attributeName="opacity" values="0" fill="freeze" dur="0.01s" begin="initialize.end" />
<!--   animation initialized! -->
<animate xlink:href="#notebook-screen" attributeName="opacity" values="0;1" fill="freeze" dur="0.112s" begin="initialized.end" />
<animateTransform
  id="show_screen_animation"
  attributeName="transform"
  xlink:href="#notebook-screen"
  type="scale"
  from="1 0"
  to="1 1"
  begin="initialized.end"
  dur="0.2s"
  fill="freeze"
/>
  <animate id="show_screen_visual_animation" xlink:href="#notebook-visual" attributeName="opacity" values="0;1" fill="freeze" dur="0.4s" begin="show_screen_animation.end + 0.2s" />

  <animate xlink:href="#orbit" attributeName="opacity" values="0;1" fill="freeze" dur="0.3s" begin="show_screen_visual_animation.end" />

  <animateTransform attributeName="transform"
            xlink:href="#bottom_orbit_path1"
            type="rotate"
            from="0 200 150"
            to="360 200 150"
            begin="show_screen_visual_animation.end"
            dur="1.2s"
            repeatCount="1"
            fill="freeze"
        />
  <animateTransform id="orbit_rotate" attributeName="transform"
            xlink:href="#bottom_orbit_path2"
            type="rotate"
            from="0 200 150"
            to="360 200 150"
            begin="show_screen_visual_animation.end"
            dur="1.2s"
            repeatCount="1"
            fill="freeze"
        />
  <animate id="icon_lock_show" xlink:href="#icon_lock" attributeName="opacity" values="0;1" fill="freeze" dur="0.5s" begin="orbit_rotate.end" />
  <animate id="bottom_left_show" xlink:href="#bottom_left" attributeName="opacity" values="0;1" fill="freeze" dur="0.2s" begin="icon_lock_show.end" />
  <animate id="top_right_show" xlink:href="#top_right" attributeName="opacity" values="0;1" fill="freeze" dur="0.2s" begin="bottom_left_show.end" />
  <animate id="icon_news_show" xlink:href="#icon_news" attributeName="opacity" values="0;1" fill="freeze" dur="0.9s" begin="top_right_show.end" />
  <animate id="icon_phone_show" xlink:href="#icon_phone" attributeName="opacity" values="0;1" fill="freeze" dur="0.9s" begin="icon_news_show.end" />
  <animate id="bottom_right_show" xlink:href="#bottom_right" attributeName="opacity" values="0;1" fill="freeze" dur="0.7s" begin="icon_news_show.end" />
  <animate id="top_left_show" xlink:href="#top_left" attributeName="opacity" values="0;1" fill="freeze" dur="0.4s" begin="bottom_right_show.end" />
  <animate id="icon_cards_show" xlink:href="#icon_cards" attributeName="opacity" values="0;1" fill="freeze" dur="2s" begin="top_left_show.end" />
<animateMotion
   id="icon_lock_orbit_move"
   xlink:href="#icon_lock"
   dur="2s"
   begin="icon_cards_show.end; icon_news_orbit_move.end + 8s"
   fill="freeze"
   path="M 0,8 C0,-150 400,-300 400,-220 C250,0 50,10 0,8Z"
/>
<animateMotion
   id="icon_news_orbit_move"
   xlink:href="#icon_news"
   dur="2s"
   begin="icon_cards_show.end; icon_lock_orbit_move.end + 8s"
   fill="freeze"
   path="M0,0 C50,120 -370,250 -370,220 C-370,100 -60,-60 0,0Z"
/>
<animateMotion
   id="icon_phone_orbit_move"
   xlink:href="#icon_phone"
   dur="2s"
   begin="icon_cards_show.end; icon_lock_orbit_move.end + 8s"
   fill="freeze"
   path="M 0,0, C0,40 -300,-100 -390,-220 C-340,-280 -50, -100 0,0Z"
/>

<animateMotion
   id="icon_phone_orbit_move"
   xlink:href="#icon_cards"
   dur="2s"
   begin="icon_cards_show.end; icon_lock_orbit_move.end + 8s"
   fill="freeze"
   path="M 0,0, C120,-50 390,170 390,220 C390, 280 0,90 0,0Z"
/>

  <animateTransform attributeName="transform"
            xlink:href="#money3"
            type="rotate"
            from="0 0 30"
            to="-50 20 30"
            begin="icon_cards_show.end - 0.4s; icon_lock_orbit_move.end + 7.1s"
            dur="0.4s"
            fill="freeze"
        />
  <animateTransform attributeName="transform"
            xlink:href="#money2"
            type="rotate"
            from="0 0 30"
            to="-80 20 40"
            begin="icon_cards_show.end - 0.3s; icon_lock_orbit_move.end + 7.2s"
            dur="0.4s"
            fill="freeze"
        />
    <animateTransform attributeName="transform"
            xlink:href="#money1"
            type="rotate"
            from="0 0 30"
            to="-90 20 40"
            begin="icon_cards_show.end - 0.2s; icon_lock_orbit_move.end + 7.3s"
            dur="0.4s"
            fill="freeze"
        />

  <animateTransform attributeName="transform"
            xlink:href="#money1"
            type="rotate"
            to="0 0 30"
            from="-90 20 40"
            begin="icon_lock_orbit_move.end"
            dur="0.4s"
            fill="freeze"
        />
  <animateTransform attributeName="transform"
            xlink:href="#money2"
            type="rotate"
            to="0 0 30"
            from="-80 20 40"
            begin="icon_lock_orbit_move.end + 0.1s"
            dur="0.4s"
            fill="freeze"
        />
  <animateTransform attributeName="transform"
            xlink:href="#money3"
            type="rotate"
            to="0 0 30"
            from="-50 20 30"
            begin="icon_lock_orbit_move.end + 0.2s"
            dur="0.4s"
            fill="freeze"
        />

  <animate xlink:href="#tool1" attributeName="opacity" values="0;1" fill="freeze" dur="0.5s" begin="icon_cards_show.end" />
  <animateMotion
   xlink:href="#tool1"
   dur="25s"
   begin="icon_cards_show.end;"
   repeatCount="indefinite"
   fill="freeze"
   path="M 0,0, -50,-250, 0,0, 150,-250, 0,0Z"
/>

  <animate xlink:href="#tool2" attributeName="opacity" values="0;1" fill="freeze" dur="0.5s" begin="icon_cards_show.end" />
  <animateMotion
   xlink:href="#tool2"
   dur="50s"
   begin="icon_cards_show.end;"
   repeatCount="indefinite"
   fill="freeze"
   path="M 0,0, -350,-20, 150,-50, 0,0Z"
/>

    <animate xlink:href="#tool3" attributeName="opacity" values="0;1" fill="freeze" dur="0.5s" begin="icon_cards_show.end" />
  <animateMotion
   xlink:href="#tool3"
   dur="20s"
   begin="icon_cards_show.end;"
   repeatCount="indefinite"
   fill="freeze"
   path="M 0,0, 250,-20, 150,-50, 0,0Z"
/>

<animate xlink:href="#tool4" attributeName="opacity" values="0;1" fill="freeze" dur="0.5s" begin="icon_cards_show.end" />
  <animateMotion
   xlink:href="#tool4"
   dur="34s"
   begin="icon_cards_show.end;"
   repeatCount="indefinite"
   fill="freeze"
   path="M 0,0, -350,90, -350,-100, 0,0Z"
/>

<animate xlink:href="#tool5" attributeName="opacity" values="0;1" fill="freeze" dur="0.5s" begin="icon_cards_show.end" />
  <animateMotion
   xlink:href="#tool5"
   dur="13s"
   begin="icon_cards_show.end;"
   repeatCount="indefinite"
   fill="freeze"
   path="M 0,0, 300, 145, 350, -80, 0,0Z"
/>

  <animateTransform attributeName="transform"
            xlink:href="#tool5"
            type="rotate"
            from="0 150 150"
            to="360 150 150"
            begin="icon_cards_show.end;"
            dur="15s"
            repeatCount="indefinite"
        />

  <animate xlink:href="#tool6" attributeName="opacity" values="0;1" fill="freeze" dur="0.5s" begin="icon_cards_show.end" />
  <animateMotion
   xlink:href="#tool6"
   dur="26s"
   begin="icon_cards_show.end;"
   repeatCount="indefinite"
   fill="freeze"
   path="M 0,0, -250, 150, 0,0Z"
/>

    <animateTransform attributeName="transform"
            xlink:href="#tool6"
            type="rotate"
            from="0 150 150"
            to="360 150 150"
            begin="icon_cards_show.end;"
            dur="15s"
            repeatCount="indefinite"
        />

</svg>
