<?xml version="1.0" encoding="UTF-8"?>
<svg width="87px" height="753px" viewBox="0 0 87 753" version="1.1" xmlns="http://www.w3.org/2000/svg" xmlns:xlink="http://www.w3.org/1999/xlink">
    <!-- Generator: Sketch 46.2 (44496) - http://www.bohemiancoding.com/sketch -->
    <title>line1</title>
    <desc>Created with Sketch.</desc>
    <defs>
        <linearGradient x1="12.9256063%" y1="8.30993652%" x2="50%" y2="100%" id="linearGradient-1">
            <stop stop-color="#D54346" offset="0%"></stop>
            <stop stop-color="#EF494D" offset="100%"></stop>
        </linearGradient>
    </defs>
    <g id="Page-1" stroke="none" stroke-width="1" fill="none" fill-rule="evenodd">
        <g id="Apple-TV-Copy-2" transform="translate(-922.000000, -2975.000000)">
            <g id="3" transform="translate(384.000000, 2756.000000)">
                <g id="line1" transform="translate(538.000000, 219.000000)">
                    <path d="M33.8173523,368 L33,696.334256 C33.9828297,713.747805 39.3953468,727.29142 49.2375515,736.9651 C59.0797562,746.63878 71.667239,751.983747 87,753 L87,733.458333 C76.4817136,732.27399 68.3934581,728.606072 62.7352335,722.45458 C57.0770089,716.303088 53.8905391,706.618613 53.1758242,693.401155 L53.9753418,368 L33.8173523,368 Z" id="Path-13-Copy-2" fill="url(#linearGradient-1)"></path>
                    <path d="M0.817352295,89 L0,417.334256 C0.98282967,434.747805 6.39534684,448.29142 16.2375515,457.9651 C26.0797562,467.63878 38.667239,472.983747 54,474 L54,454.458333 C43.4817136,453.27399 35.3934581,449.606072 29.7352335,443.45458 C24.0770089,437.303088 20.8905391,427.618613 20.1758242,414.401155 L20.9753418,89 L0.817352295,89 Z" id="Path-13-Copy" fill="url(#linearGradient-1)" transform="translate(27.000000, 281.500000) scale(-1, 1) translate(-27.000000, -281.500000) "></path>
                    <path d="M33,0 L33,125.334256 C33.9828297,142.747805 39.3953468,156.29142 49.2375515,165.9651 C59.0797562,175.63878 71.667239,180.983747 87,182 L87,162.458333 C76.4817136,161.27399 68.3934581,157.606072 62.7352335,151.45458 C57.0770089,145.303088 53.8905391,135.618613 53.1758242,122.401155 L53.1758242,0 L33,0 Z" id="Path-13" fill="#EF494D"></path>
                </g>
            </g>
        </g>
    </g>
</svg>