<?xml version="1.0" encoding="UTF-8"?>
<svg width="207px" height="193px" viewBox="0 0 207 193" version="1.1" xmlns="http://www.w3.org/2000/svg" xmlns:xlink="http://www.w3.org/1999/xlink">
    <!-- Generator: Sketch 46.2 (44496) - http://www.bohemiancoding.com/sketch -->
    <title>icon1</title>
    <desc>Created with Sketch.</desc>
    <defs>
        <path d="M7,4.61853862e-14 L75,4.61853862e-14 L75,4.61852778e-14 C78.8659932,4.54751254e-14 82,3.13400675 82,7 L82,49 L82,49 C82,52.8659932 78.8659932,56 75,56 L7,56 L7,56 C3.13400675,56 1.36162605e-15,52.8659932 8.8817842e-16,49 L0,7 L8.8817842e-16,7 C4.14730794e-16,3.13400675 3.13400675,4.68954302e-14 7,4.61852778e-14 Z" id="path-1"></path>
    </defs>
    <g id="Page-1" stroke="none" stroke-width="1" fill="none" fill-rule="evenodd">
        <g id="Apple-TV-Copy-2" transform="translate(-652.000000, -4116.000000)">
            <g id="4" transform="translate(377.000000, 3906.000000)">
                <g id="item1" transform="translate(275.000000, 209.000000)">
                    <g id="icon1">
                        <g id="Group-11" transform="translate(111.577501, 101.836138) rotate(-27.000000) translate(-111.577501, -101.836138) translate(45.077501, 47.336138)" fill="#FFEDEE">
                            <rect id="Rectangle-31" x="0.777777778" y="0" width="120.555556" height="21.8" rx="10.9"></rect>
                            <rect id="Rectangle-31-Copy-7" x="0.777777778" y="87.2" width="120.555556" height="21.8" rx="10.9"></rect>
                            <rect id="Rectangle-31-Copy-4" x="0.777777778" y="43.6" width="132.037037" height="21.8" rx="10.9"></rect>
                            <path d="M111.574074,65.4 L10.537037,65.4 L18.5814815,65.4 L18.5814815,65.4 C24.6013853,65.4 29.4814815,70.2800962 29.4814815,76.3 L29.4814815,76.3 L29.4814815,76.3 C29.4814815,82.3199038 24.6013853,87.2 18.5814815,87.2 L10.537037,87.2 L111.574074,87.2 L101.233333,87.2 L101.233333,87.2 C95.2134296,87.2 90.3333333,82.3199038 90.3333333,76.3 L90.3333333,76.3 L90.3333333,76.3 C90.3333333,70.2800962 95.2134296,65.4 101.233333,65.4 L101.233333,65.4 L111.574074,65.4 Z" id="Combined-Shape"></path>
                            <path d="M15.1296296,21.8 L116.166667,21.8 L110.418519,21.8 C104.398615,21.8 99.5185185,26.6800962 99.5185185,32.7 C99.5185185,38.7199038 104.398615,43.6 110.418519,43.6 L110.418519,43.6 L116.166667,43.6 L28.2368225,43.6 C34.0401489,43.3483969 38.6666667,38.5640632 38.6666667,32.7 L38.6666667,32.7 C38.6666667,26.6800962 33.7865704,21.8 27.7666667,21.8 L27.7666667,21.8 L15.1296296,21.8 Z" id="Combined-Shape"></path>
                        </g>
                        <rect id="Combined-Shape" fill="#EF494D" x="61" y="56" width="88" height="62" rx="9"></rect>
                        <g id="Rectangle-25-Copy-2" transform="translate(64.000000, 59.000000)">
                            <mask id="mask-2" fill="white">
                                <use xlink:href="#path-1"></use>
                            </mask>
                            <use id="Mask" fill="#FFEDEE" xlink:href="#path-1"></use>
                            <path d="M0.19047619,4.52970994e-14 L66.1904762,4.52970994e-14 L66.1904762,4.61852778e-14 C70.6087542,4.53736441e-14 74.1904762,3.581722 74.1904762,8 L74.1904762,49 L74.1904762,49 C74.1904762,53.418278 70.6087542,57 66.1904762,57 L0.19047619,57 L0.19047619,57 C-4.22780181,57 -7.80952381,53.418278 -7.80952381,49 L-7.80952381,8 L-7.80952381,8 C-7.80952381,3.581722 -4.22780181,4.69969116e-14 0.19047619,4.61852778e-14 Z" fill="#FFFFFF" mask="url(#mask-2)"></path>
                        </g>
                        <rect id="Rectangle-22" fill="#EF494D" x="93" y="129" width="23" height="3" rx="1.5"></rect>
                        <rect id="Rectangle-22-Copy" fill="#EF494D" x="62" y="101" width="5" height="2" rx="1"></rect>
                        <g id="Group-9" transform="translate(108.859670, 83.847329) rotate(-46.000000) translate(-108.859670, -83.847329) translate(94.359670, 74.847329)" fill="#EF494D">
                            <rect id="Rectangle-27" x="0" y="0" width="2.32" height="17" rx="1.16"></rect>
                            <rect id="Rectangle-27-Copy" transform="translate(14.500000, 15.866667) rotate(-90.000000) translate(-14.500000, -15.866667) " x="13.34" y="1.7" width="2.32" height="28.3333333" rx="1.16"></rect>
                        </g>
                        <rect id="Rectangle-22-Copy-2" fill="#EF494D" x="62" y="92" width="5" height="2" rx="1"></rect>
                        <rect id="Rectangle-22-Copy-3" fill="#EF494D" x="62" y="83" width="5" height="2" rx="1"></rect>
                        <rect id="Rectangle-22-Copy-4" fill="#EF494D" x="62" y="73" width="5" height="2" rx="1"></rect>
                        <rect id="Rectangle-26" fill="#EF494D" x="103" y="117" width="3" height="13"></rect>
                        <rect id="Rectangle-29" fill="#EF494D" x="38" y="131" width="141" height="3" rx="1.5"></rect>
                        <circle id="Oval-9" fill="#EF494D" cx="173" cy="130" r="3"></circle>
                        <circle id="Oval-9-Copy" fill="#EF494D" cx="51" cy="130" r="3"></circle>
                        <rect id="Rectangle-30" fill="#EF494D" x="183" y="131" width="10" height="3" rx="1.5"></rect>
                        <path d="M22,44 C17.581722,44 14,40.418278 14,36 C14,31.581722 17.581722,28 22,28 C26.418278,28 30,31.581722 30,36 C30,40.418278 26.418278,44 22,44 Z M22,40.5714286 C24.5247303,40.5714286 26.5714286,38.5247303 26.5714286,36 C26.5714286,33.4752697 24.5247303,31.4285714 22,31.4285714 C19.4752697,31.4285714 17.4285714,33.4752697 17.4285714,36 C17.4285714,38.5247303 19.4752697,40.5714286 22,40.5714286 Z" id="Combined-Shape" fill="#FFEDEE"></path>
                        <path d="M182,171 C177.581722,171 174,167.418278 174,163 C174,158.581722 177.581722,155 182,155 C186.418278,155 190,158.581722 190,163 C190,167.418278 186.418278,171 182,171 Z M182,167.571429 C184.52473,167.571429 186.571429,165.52473 186.571429,163 C186.571429,160.47527 184.52473,158.428571 182,158.428571 C179.47527,158.428571 177.428571,160.47527 177.428571,163 C177.428571,165.52473 179.47527,167.571429 182,167.571429 Z" id="Combined-Shape-Copy-2" fill="#FFEDEE"></path>
                        <path d="M191.5,52 C187.357864,52 184,48.6421356 184,44.5 C184,40.3578644 187.357864,37 191.5,37 C195.642136,37 199,40.3578644 199,44.5 C199,48.6421356 195.642136,52 191.5,52 Z M191.5,48.5384615 C193.730381,48.5384615 195.538462,46.7303807 195.538462,44.5 C195.538462,42.2696193 193.730381,40.4615385 191.5,40.4615385 C189.269619,40.4615385 187.461538,42.2696193 187.461538,44.5 C187.461538,46.7303807 189.269619,48.5384615 191.5,48.5384615 Z" id="Combined-Shape-Copy" fill="#FFEDEE"></path>
                        <path d="M184.068058,94.2000935 L202.737391,87.2958505 C205.312678,85.8348411 206.748259,85.8348411 207.044134,87.2958505 C207.383157,88.9699197 204.028095,89.3961927 202.737391,90.0615358 C201.393274,90.7544126 195.170163,92.1339318 184.068058,94.2000935 Z" id="Path-14" fill="#FFEDEE" transform="translate(195.568058, 90.200093) rotate(-1.000000) translate(-195.568058, -90.200093) "></path>
                        <path d="M40.7141016,169.959292 L59.3834342,163.055049 C61.9587214,161.59404 63.3943026,161.59404 63.6901778,163.055049 C64.0292006,164.729118 60.6741385,165.155391 59.3834342,165.820735 C58.0393171,166.513611 51.8162062,167.893131 40.7141016,169.959292 Z" id="Path-14-Copy-2" fill="#FFEDEE" transform="translate(52.214102, 165.959292) scale(-1, 1) rotate(60.000000) translate(-52.214102, -165.959292) "></path>
                        <path d="M151.323268,27.6180312 L169.9926,20.7137882 C172.567887,19.2527788 174.003469,19.2527788 174.299344,20.7137882 C174.638367,22.3878574 171.283305,22.8141304 169.9926,23.4794735 C168.648483,24.1723503 162.425372,25.5518695 151.323268,27.6180312 Z" id="Path-14-Copy" fill="#FFEDEE" transform="translate(162.823268, 23.618031) rotate(-33.000000) translate(-162.823268, -23.618031) "></path>
                        <path d="M62.2497497,15.9841538 L80.9190823,9.0799108 C83.4943695,7.61890144 84.9299507,7.61890144 85.2258259,9.0799108 C85.5648487,10.75398 82.2097866,11.180253 80.9190823,11.8455961 C79.5749652,12.5384729 73.3518543,13.9179921 62.2497497,15.9841538 Z" id="Path-14-Copy-4" fill="#FFEDEE" transform="translate(73.749750, 11.984154) rotate(-99.000000) translate(-73.749750, -11.984154) "></path>
                        <path d="M134.48707,186.804862 L153.156402,179.900619 C155.73169,178.43961 157.167271,178.43961 157.463146,179.900619 C157.802169,181.574688 154.447107,182.000961 153.156402,182.666304 C151.812285,183.359181 145.589174,184.7387 134.48707,186.804862 Z" id="Path-14-Copy-5" fill="#FFEDEE" transform="translate(145.987070, 182.804862) rotate(-275.000000) translate(-145.987070, -182.804862) "></path>
                        <path d="M-0.119338465,125.456235 L18.5499941,118.551992 C21.1252813,117.090983 22.5608626,117.090983 22.8567377,118.551992 C23.1957605,120.226062 19.8406985,120.652334 18.5499941,121.317678 C17.205877,122.010554 10.9827661,123.390074 -0.119338465,125.456235 Z" id="Path-14-Copy-3" fill="#FFEDEE" transform="translate(11.380662, 121.456235) scale(-1, 1) rotate(40.000000) translate(-11.380662, -121.456235) "></path>
                        <rect id="Rectangle-28" fill="#FFFFFF" x="134" y="80" width="32" height="50" rx="2"></rect>
                        <g id="noun_587069_cc" transform="translate(133.000000, 78.000000)">
                            <path d="M18.8333333,7 L14.1666667,7 C13.5226667,7 13,6.552 13,6 C13,5.448 13.5226667,5 14.1666667,5 L18.8333333,5 C19.4785,5 20,5.448 20,6 C20,6.552 19.4785,7 18.8333333,7 Z" id="Shape" fill="#EF494D" fill-rule="nonzero"></path>
                            <path d="M29.1428571,0 L4.85714286,0 C2.17842857,0 0,2.16095455 0,4.81818182 L0,48.1818182 C0,50.8390455 2.17842857,53 4.85714286,53 L29.1428571,53 C31.8215714,53 34,50.8390455 34,48.1818182 L34,40.9545455 C34,40.2884318 33.4572143,39.75 32.7857143,39.75 C32.1142143,39.75 31.5714286,40.2884318 31.5714286,40.9545455 L2.42857143,40.9545455 L2.42857143,12.0454545 L31.5714286,12.0454545 C31.5714286,12.7103636 32.1142143,13.25 32.7857143,13.25 C33.4572143,13.25 34,12.7103636 34,12.0454545 L34,4.81818182 C34,2.16095455 31.8215714,0 29.1428571,0 Z M31.5714286,43.3636364 L31.5714286,48.1818182 C31.5714286,49.5104318 30.4822143,50.5909091 29.1428571,50.5909091 L4.85714286,50.5909091 C3.51778571,50.5909091 2.42857143,49.5104318 2.42857143,48.1818182 L2.42857143,43.3636364 L31.5714286,43.3636364 Z M2.42857143,9.63636364 L2.42857143,4.81818182 C2.42857143,3.48956818 3.51778571,2.40909091 4.85714286,2.40909091 L29.1428571,2.40909091 C30.4822143,2.40909091 31.5714286,3.48956818 31.5714286,4.81818182 L31.5714286,9.63636364 L2.42857143,9.63636364 Z" id="Shape" fill="#EF494D" fill-rule="nonzero"></path>
                            <path d="M37.5100173,31 L23.1998905,31 C18.6849731,28.2448864 17.8102362,25.6116514 20.5756797,23.1002948 C23.3411232,20.5889383 25.4576727,20.102083 26.9253283,21.6397289 C27.1288458,17.0811425 28.94384,14.8698707 32.3703109,15.0059135 C35.7967818,15.1419562 37.8591355,16.9393352 38.557372,20.3980502 C43.5223575,21.2129893 46.0032324,22.6814609 45.9999968,24.803465 C45.9967613,26.925469 45.0293252,28.7915281 43.0976886,30.4016423 L37.5100173,31 Z" id="Path-59" fill="#FFFFFF"></path>
                            <path d="M35.6579035,34.4692222 C35.2017749,33.9913333 34.464503,33.9913333 34.0083743,34.4692222 L33.6665695,34.8273333 L33.6665695,29.2222222 C33.6665695,28.5463333 33.1451129,28 32.5,28 C31.8548871,28 31.3334305,28.5463333 31.3334305,29.2222222 L31.3334305,34.8273333 L30.9916257,34.4692222 C30.535497,33.9913333 29.7982251,33.9913333 29.3420965,34.4692222 C28.8859678,34.9471111 28.8859678,35.7195556 29.3420965,36.1974444 L31.6740688,38.6406667 C31.7813932,38.7543333 31.9108824,38.8435556 32.0543705,38.9058889 C32.1966919,38.9682222 32.348346,39 32.5,39 C32.651654,39 32.8033081,38.9682222 32.9456295,38.9058889 C33.0891176,38.8435556 33.2186068,38.7543333 33.3259312,38.6406667 L35.6579035,36.1974444 C36.1140322,35.7195556 36.1140322,34.9471111 35.6579035,34.4692222 Z" id="Shape" fill="#EF494D" fill-rule="nonzero"></path>
                            <path d="M40.9583333,20 L39.64125,20 C39.0624583,16.6004 36.085125,14 32.5,14 C28.914875,14 25.9363333,16.6004 25.35875,20 L24.0416667,20 C20.7102917,20 18,22.6916 18,26 C18,29.3084 20.7102917,32 24.0416667,32 L27.6666667,32 C28.334875,32 28.875,31.4636 28.875,30.8 C28.875,30.1364 28.334875,29.6 27.6666667,29.6 L24.0416667,29.6 C22.0430833,29.6 20.4166667,27.9848 20.4166667,26 C20.4166667,24.0152 22.0430833,22.4 24.0416667,22.4 L25.3527083,22.4 C25.5412083,23.5268 25.9955417,24.5876 26.6975833,25.5176 C27.0975417,26.048 27.856375,26.1536 28.38925,25.7564 C28.922125,25.358 29.0296667,24.6068 28.6297083,24.0764 C27.9989583,23.2424 27.6666667,22.2476 27.6666667,21.2 C27.6666667,18.5528 29.8344167,16.4 32.5,16.4 C35.1655833,16.4 37.3333333,18.5528 37.3333333,21.2 C37.3333333,22.2488 36.9998333,23.2436 36.3666667,24.0788 C35.9667083,24.608 36.07425,25.3604 36.607125,25.7588 C36.824625,25.9208 37.0795833,26 37.332125,26 C37.6994583,26 38.0619583,25.8344 38.3,25.5212 C39.00325,24.5912 39.4575833,23.528 39.6472917,22.4 L40.9583333,22.4 C42.9569167,22.4 44.5833333,24.0152 44.5833333,26 C44.5833333,27.9848 42.9569167,29.6 40.9583333,29.6 L37.3333333,29.6 C36.665125,29.6 36.125,30.1364 36.125,30.8 C36.125,31.4636 36.665125,32 37.3333333,32 L40.9583333,32 C44.2897083,32 47,29.3084 47,26 C47,22.6916 44.2897083,20 40.9583333,20 Z" id="Shape" fill="#EF494D" fill-rule="nonzero"></path>
                        </g>
                    </g>
                </g>
            </g>
        </g>
    </g>
</svg>