<?xml version="1.0" encoding="UTF-8"?>
<svg width="207px" height="193px" viewBox="0 0 207 193" version="1.1" xmlns="http://www.w3.org/2000/svg" xmlns:xlink="http://www.w3.org/1999/xlink">
    <!-- Generator: Sketch 46.2 (44496) - http://www.bohemiancoding.com/sketch -->
    <title>icon1</title>
    <desc>Created with Sketch.</desc>
    <defs>
        <path d="M7,4.61853862e-14 L75,4.61853862e-14 L75,4.61852778e-14 C78.8659932,4.54751254e-14 82,3.13400675 82,7 L82,49 L82,49 C82,52.8659932 78.8659932,56 75,56 L7,56 L7,56 C3.13400675,56 1.36162605e-15,52.8659932 8.8817842e-16,49 L0,7 L8.8817842e-16,7 C4.14730794e-16,3.13400675 3.13400675,4.68954302e-14 7,4.61852778e-14 Z" id="path-1"></path>
        <path d="M2,-1.88820747e-13 L18,-1.88820747e-13 L18,-1.89182003e-13 C19.1045695,-1.89384912e-13 20,0.8954305 20,2 L20,33 L20,33 C20,34.1045695 19.1045695,35 18,35 L2,35 L2,35 C0.8954305,35 1.3527075e-16,34.1045695 0,33 L0,2 L-2.22044605e-16,2 C1.33212041e-16,0.8954305 0.8954305,-1.87646827e-13 2,-1.87849736e-13 Z" id="path-3"></path>
    </defs>
    <g id="Page-1" stroke="none" stroke-width="1" fill="none" fill-rule="evenodd">
        <g id="Apple-TV-Copy-2" transform="translate(-653.000000, -3053.000000)">
            <g id="3" transform="translate(384.000000, 2756.000000)">
                <g id="item1" transform="translate(269.000000, 296.000000)">
                    <g id="icon1">
                        <g id="Group-11" transform="translate(111.577501, 101.836138) rotate(-27.000000) translate(-111.577501, -101.836138) translate(45.077501, 47.336138)" fill="#FFEDEE">
                            <rect id="Rectangle-31" x="0.777777778" y="0" width="120.555556" height="21.8" rx="10.9"></rect>
                            <rect id="Rectangle-31-Copy-7" x="0.777777778" y="87.2" width="120.555556" height="21.8" rx="10.9"></rect>
                            <rect id="Rectangle-31-Copy-4" x="0.777777778" y="43.6" width="132.037037" height="21.8" rx="10.9"></rect>
                            <path d="M10.537037,65.4 L111.574074,65.4 L101.233333,65.4 L101.233333,65.4 C95.2134296,65.4 90.3333333,70.2800962 90.3333333,76.3 L90.3333333,76.3 L90.3333333,76.3 C90.3333333,82.3199038 95.2134296,87.2 101.233333,87.2 L101.233333,87.2 L111.574074,87.2 L10.537037,87.2 L18.5814815,87.2 C24.6013853,87.2 29.4814815,82.3199038 29.4814815,76.3 L29.4814815,76.3 C29.4814815,70.2800962 24.6013853,65.4 18.5814815,65.4 L18.5814815,65.4 L10.537037,65.4 Z" id="Combined-Shape"></path>
                            <path d="M15.1296296,21.8 L116.166667,21.8 L110.418519,21.8 C104.398615,21.8 99.5185185,26.6800962 99.5185185,32.7 L99.5185185,32.7 L99.5185185,32.7 C99.5185185,38.7199038 104.398615,43.6 110.418519,43.6 L116.166667,43.6 L15.1296296,43.6 L27.7666667,43.6 C33.7865704,43.6 38.6666667,38.7199038 38.6666667,32.7 L38.6666667,32.7 C38.6666667,26.6800962 33.7865704,21.8 27.7666667,21.8 L27.7666667,21.8 L15.1296296,21.8 Z" id="Combined-Shape"></path>
                        </g>
                        <rect id="Combined-Shape" fill="#EF494D" x="61" y="56" width="88" height="62" rx="9"></rect>
                        <g id="Rectangle-25-Copy-2" transform="translate(64.000000, 59.000000)">
                            <mask id="mask-2" fill="white">
                                <use xlink:href="#path-1"></use>
                            </mask>
                            <use id="Mask" fill="#FFEDEE" xlink:href="#path-1"></use>
                            <path d="M0.19047619,4.52970994e-14 L66.1904762,4.52970994e-14 L66.1904762,4.61852778e-14 C70.6087542,4.53736441e-14 74.1904762,3.581722 74.1904762,8 L74.1904762,49 L74.1904762,49 C74.1904762,53.418278 70.6087542,57 66.1904762,57 L0.19047619,57 L0.19047619,57 C-4.22780181,57 -7.80952381,53.418278 -7.80952381,49 L-7.80952381,8 L-7.80952381,8 C-7.80952381,3.581722 -4.22780181,4.69969116e-14 0.19047619,4.61852778e-14 Z" fill="#FFFFFF" mask="url(#mask-2)"></path>
                        </g>
                        <rect id="Rectangle-22" fill="#EF494D" x="93" y="129" width="23" height="3" rx="1.5"></rect>
                        <rect id="Rectangle-22-Copy" fill="#EF494D" x="62" y="101" width="5" height="2" rx="1"></rect>
                        <g id="Group-9" transform="translate(108.859670, 83.847329) rotate(-46.000000) translate(-108.859670, -83.847329) translate(94.359670, 74.847329)" fill="#EF494D">
                            <rect id="Rectangle-27" x="0" y="0" width="2.32" height="17" rx="1.16"></rect>
                            <rect id="Rectangle-27-Copy" transform="translate(14.500000, 15.866667) rotate(-90.000000) translate(-14.500000, -15.866667) " x="13.34" y="1.7" width="2.32" height="28.3333333" rx="1.16"></rect>
                        </g>
                        <rect id="Rectangle-22-Copy-2" fill="#EF494D" x="62" y="92" width="5" height="2" rx="1"></rect>
                        <rect id="Rectangle-22-Copy-3" fill="#EF494D" x="62" y="83" width="5" height="2" rx="1"></rect>
                        <rect id="Rectangle-22-Copy-4" fill="#EF494D" x="62" y="73" width="5" height="2" rx="1"></rect>
                        <rect id="Rectangle-26" fill="#EF494D" x="103" y="117" width="3" height="13"></rect>
                        <rect id="Rectangle-28" fill="#EF494D" x="134" y="87" width="26" height="44" rx="4"></rect>
                        <g id="Rectangle-28-Copy-2" transform="translate(137.000000, 90.000000)">
                            <mask id="mask-4" fill="white">
                                <use xlink:href="#path-3"></use>
                            </mask>
                            <use id="Mask" fill="#FFEDEE" xlink:href="#path-3"></use>
                            <path d="M-2.63157895,-1.88821045e-13 L13.3684211,-1.88821045e-13 L13.3684211,-1.89182003e-13 C15.0252753,-1.89486366e-13 16.3684211,1.34314575 16.3684211,3 L16.3684211,32 L16.3684211,32 C16.3684211,33.6568542 15.0252753,35 13.3684211,35 L-2.63157895,35 L-2.63157895,35 C-4.2884332,35 -5.63157895,33.6568542 -5.63157895,32 L-5.63157895,3 L-5.63157895,3 C-5.63157895,1.34314575 -4.2884332,-1.87989462e-13 -2.63157895,-1.88293825e-13 Z" fill="#FFFFFF" mask="url(#mask-4)"></path>
                        </g>
                        <g id="Group-9-Copy-2" transform="translate(147.859670, 106.347329) rotate(-46.000000) translate(-147.859670, -106.347329) translate(141.359670, 101.847329)" fill="#EF494D">
                            <rect id="Rectangle-27" x="0" y="0" width="2.36363636" height="8" rx="1.18181818"></rect>
                            <rect id="Rectangle-27-Copy" transform="translate(6.500000, 6.857143) rotate(-90.000000) translate(-6.500000, -6.857143) " x="5.31818182" y="0.571428571" width="2.36363636" height="12.5714286" rx="1.18181818"></rect>
                        </g>
                        <circle id="Oval-8" fill="#FFFFFF" cx="147.5" cy="128.5" r="1.5"></circle>
                        <rect id="Rectangle-29" fill="#EF494D" x="38" y="131" width="141" height="3" rx="1.5"></rect>
                        <circle id="Oval-9" fill="#EF494D" cx="173" cy="130" r="3"></circle>
                        <circle id="Oval-9-Copy" fill="#EF494D" cx="51" cy="130" r="3"></circle>
                        <rect id="Rectangle-30" fill="#EF494D" x="183" y="131" width="10" height="3" rx="1.5"></rect>
                        <path d="M22,44 C17.581722,44 14,40.418278 14,36 C14,31.581722 17.581722,28 22,28 C26.418278,28 30,31.581722 30,36 C30,40.418278 26.418278,44 22,44 Z M22,40.5714286 C24.5247303,40.5714286 26.5714286,38.5247303 26.5714286,36 C26.5714286,33.4752697 24.5247303,31.4285714 22,31.4285714 C19.4752697,31.4285714 17.4285714,33.4752697 17.4285714,36 C17.4285714,38.5247303 19.4752697,40.5714286 22,40.5714286 Z" id="Combined-Shape" fill="#FFEDEE"></path>
                        <path d="M182,171 C177.581722,171 174,167.418278 174,163 C174,158.581722 177.581722,155 182,155 C186.418278,155 190,158.581722 190,163 C190,167.418278 186.418278,171 182,171 Z M182,167.571429 C184.52473,167.571429 186.571429,165.52473 186.571429,163 C186.571429,160.47527 184.52473,158.428571 182,158.428571 C179.47527,158.428571 177.428571,160.47527 177.428571,163 C177.428571,165.52473 179.47527,167.571429 182,167.571429 Z" id="Combined-Shape-Copy-2" fill="#FFEDEE"></path>
                        <path d="M191.5,52 C187.357864,52 184,48.6421356 184,44.5 C184,40.3578644 187.357864,37 191.5,37 C195.642136,37 199,40.3578644 199,44.5 C199,48.6421356 195.642136,52 191.5,52 Z M191.5,48.5384615 C193.730381,48.5384615 195.538462,46.7303807 195.538462,44.5 C195.538462,42.2696193 193.730381,40.4615385 191.5,40.4615385 C189.269619,40.4615385 187.461538,42.2696193 187.461538,44.5 C187.461538,46.7303807 189.269619,48.5384615 191.5,48.5384615 Z" id="Combined-Shape-Copy" fill="#FFEDEE"></path>
                        <path d="M184.068058,94.2000935 L202.737391,87.2958505 C205.312678,85.8348411 206.748259,85.8348411 207.044134,87.2958505 C207.383157,88.9699197 204.028095,89.3961927 202.737391,90.0615358 C201.393274,90.7544126 195.170163,92.1339318 184.068058,94.2000935 Z" id="Path-14" fill="#FFEDEE" transform="translate(195.568058, 90.200093) rotate(-1.000000) translate(-195.568058, -90.200093) "></path>
                        <path d="M40.7141016,169.959292 L59.3834342,163.055049 C61.9587214,161.59404 63.3943026,161.59404 63.6901778,163.055049 C64.0292006,164.729118 60.6741385,165.155391 59.3834342,165.820735 C58.0393171,166.513611 51.8162062,167.893131 40.7141016,169.959292 Z" id="Path-14-Copy-2" fill="#FFEDEE" transform="translate(52.214102, 165.959292) scale(-1, 1) rotate(60.000000) translate(-52.214102, -165.959292) "></path>
                        <path d="M151.323268,27.6180312 L169.9926,20.7137882 C172.567887,19.2527788 174.003469,19.2527788 174.299344,20.7137882 C174.638367,22.3878574 171.283305,22.8141304 169.9926,23.4794735 C168.648483,24.1723503 162.425372,25.5518695 151.323268,27.6180312 Z" id="Path-14-Copy" fill="#FFEDEE" transform="translate(162.823268, 23.618031) rotate(-33.000000) translate(-162.823268, -23.618031) "></path>
                        <path d="M62.2497497,15.9841538 L80.9190823,9.0799108 C83.4943695,7.61890144 84.9299507,7.61890144 85.2258259,9.0799108 C85.5648487,10.75398 82.2097866,11.180253 80.9190823,11.8455961 C79.5749652,12.5384729 73.3518543,13.9179921 62.2497497,15.9841538 Z" id="Path-14-Copy-4" fill="#FFEDEE" transform="translate(73.749750, 11.984154) rotate(-99.000000) translate(-73.749750, -11.984154) "></path>
                        <path d="M134.48707,186.804862 L153.156402,179.900619 C155.73169,178.43961 157.167271,178.43961 157.463146,179.900619 C157.802169,181.574688 154.447107,182.000961 153.156402,182.666304 C151.812285,183.359181 145.589174,184.7387 134.48707,186.804862 Z" id="Path-14-Copy-5" fill="#FFEDEE" transform="translate(145.987070, 182.804862) rotate(-275.000000) translate(-145.987070, -182.804862) "></path>
                        <path d="M-0.119338465,125.456235 L18.5499941,118.551992 C21.1252813,117.090983 22.5608626,117.090983 22.8567377,118.551992 C23.1957605,120.226062 19.8406985,120.652334 18.5499941,121.317678 C17.205877,122.010554 10.9827661,123.390074 -0.119338465,125.456235 Z" id="Path-14-Copy-3" fill="#FFEDEE" transform="translate(11.380662, 121.456235) scale(-1, 1) rotate(40.000000) translate(-11.380662, -121.456235) "></path>
                    </g>
                </g>
            </g>
        </g>
    </g>
</svg>