<?xml version="1.0" encoding="UTF-8"?>
<svg width="169px" height="160px" viewBox="0 0 169 160" version="1.1" xmlns="http://www.w3.org/2000/svg" xmlns:xlink="http://www.w3.org/1999/xlink">
    <!-- Generator: Sketch 46.2 (44496) - http://www.bohemiancoding.com/sketch -->
    <title>Group 16 Copy</title>
    <desc>Created with Sketch.</desc>
    <defs></defs>
    <g id="Page-1" stroke="none" stroke-width="1" fill="none" fill-rule="evenodd">
        <g id="Apple-TV-Copy-2" transform="translate(-412.000000, -9033.000000)">
            <g id="7" transform="translate(411.000000, 8880.000000)">
                <g id="Group-16-Copy" transform="translate(0.000000, 152.000000)">
                    <g id="Group-14" fill="#FFEDEE">
                        <g id="Group-11-Copy" transform="translate(92.282013, 83.092019) rotate(-27.000000) translate(-92.282013, -83.092019) translate(37.782013, 38.092019)">
                            <rect id="Rectangle-31" x="0.288888889" y="0" width="98.7777778" height="18" rx="9"></rect>
                            <rect id="Rectangle-31-Copy-7" x="0.288888889" y="72" width="98.7777778" height="18" rx="9"></rect>
                            <rect id="Rectangle-31-Copy-4" x="0.288888889" y="36" width="108.185185" height="18" rx="9"></rect>
                            <path d="M91.0703704,54 L8.28518519,54 L14.8074074,54 L14.8074074,54 C19.7779702,54 23.8074074,58.0294373 23.8074074,63 L23.8074074,63 C23.8074074,67.9705627 19.7779702,72 14.8074074,72 L8.28518519,72 L91.0703704,72 L82.6666667,72 C77.6961039,72 73.6666667,67.9705627 73.6666667,63 L73.6666667,63 L73.6666667,63 C73.6666667,58.0294373 77.6961039,54 82.6666667,54 L82.6666667,54 L91.0703704,54 Z" id="Combined-Shape"></path>
                            <path d="M12.0481481,18 L94.8333333,18 L90.1925926,18 C85.2220298,18 81.1925926,22.0294373 81.1925926,27 L81.1925926,27 L81.1925926,27 C81.1925926,31.9705627 85.2220298,36 90.1925926,36 L94.8333333,36 L12.0481481,36 L22.3333333,36 C27.3038961,36 31.3333333,31.9705627 31.3333333,27 L31.3333333,27 C31.3333333,22.0294373 27.3038961,18 22.3333333,18 L12.0481481,18 Z" id="Combined-Shape"></path>
                        </g>
                        <path d="M17.5,36 C13.9101491,36 11,33.0898509 11,29.5 C11,25.9101491 13.9101491,23 17.5,23 C21.0898509,23 24,25.9101491 24,29.5 C24,33.0898509 21.0898509,36 17.5,36 Z M17.5,33.2142857 C19.5513434,33.2142857 21.2142857,31.5513434 21.2142857,29.5 C21.2142857,27.4486566 19.5513434,25.7857143 17.5,25.7857143 C15.4486566,25.7857143 13.7857143,27.4486566 13.7857143,29.5 C13.7857143,31.5513434 15.4486566,33.2142857 17.5,33.2142857 Z" id="Combined-Shape-Copy-3"></path>
                        <path d="M149.5,141 C145.910149,141 143,138.089851 143,134.5 C143,130.910149 145.910149,128 149.5,128 C153.089851,128 156,130.910149 156,134.5 C156,138.089851 153.089851,141 149.5,141 Z M149.5,138.214286 C151.551343,138.214286 153.214286,136.551343 153.214286,134.5 C153.214286,132.448657 151.551343,130.785714 149.5,130.785714 C147.448657,130.785714 145.785714,132.448657 145.785714,134.5 C145.785714,136.551343 147.448657,138.214286 149.5,138.214286 Z" id="Combined-Shape-Copy-4"></path>
                        <path d="M157,42 C153.686292,42 151,39.3137085 151,36 C151,32.6862915 153.686292,30 157,30 C160.313708,30 163,32.6862915 163,36 C163,39.3137085 160.313708,42 157,42 Z M157,39.2307692 C158.784305,39.2307692 160.230769,37.7843046 160.230769,36 C160.230769,34.2156954 158.784305,32.7692308 157,32.7692308 C155.215695,32.7692308 153.769231,34.2156954 153.769231,36 C153.769231,37.7843046 155.215695,39.2307692 157,39.2307692 Z" id="Combined-Shape-Copy-5"></path>
                        <path d="M151,78 L166.422492,71.9587874 C168.549903,70.6804042 169.735818,70.6804042 169.980237,71.9587874 C170.260299,73.423598 167.488726,73.7965868 166.422492,74.3787621 C165.312135,74.9850293 160.171304,76.1921086 151,78 Z" id="Path-14-Copy-6" transform="translate(160.500000, 74.500000) rotate(-1.000000) translate(-160.500000, -74.500000) "></path>
                        <path d="M34,141 L49.4224921,134.958787 C51.5499033,133.680404 52.7358182,133.680404 52.9802369,134.958787 C53.2602992,136.423598 50.4887261,136.796587 49.4224921,137.378762 C48.3121345,137.985029 43.1713038,139.192109 34,141 Z" id="Path-14-Copy-7" transform="translate(43.500000, 137.500000) scale(-1, 1) rotate(60.000000) translate(-43.500000, -137.500000) "></path>
                        <path d="M125,23 L140.422492,16.9587874 C142.549903,15.6804042 143.735818,15.6804042 143.980237,16.9587874 C144.260299,18.423598 141.488726,18.7965868 140.422492,19.3787621 C139.312135,19.9850293 134.171304,21.1921086 125,23 Z" id="Path-14-Copy-8" transform="translate(134.500000, 19.500000) rotate(-33.000000) translate(-134.500000, -19.500000) "></path>
                        <path d="M51,14 L66.4224921,7.9587874 C68.5499033,6.6804042 69.7358182,6.6804042 69.9802369,7.9587874 C70.2602992,9.42359797 67.4887261,9.7965868 66.4224921,10.3787621 C65.3121345,10.9850293 60.1713038,12.1921086 51,14 Z" id="Path-14-Copy-9" transform="translate(60.500000, 10.500000) rotate(-99.000000) translate(-60.500000, -10.500000) "></path>
                        <path d="M111,155 L126.422492,148.958787 C128.549903,147.680404 129.735818,147.680404 129.980237,148.958787 C130.260299,150.423598 127.488726,150.796587 126.422492,151.378762 C125.312135,151.985029 120.171304,153.192109 111,155 Z" id="Path-14-Copy-10" transform="translate(120.500000, 151.500000) rotate(-275.000000) translate(-120.500000, -151.500000) "></path>
                        <path d="M1,104 L16.4224921,97.9587874 C18.5499033,96.6804042 19.7358182,96.6804042 19.9802369,97.9587874 C20.2602992,99.423598 17.4887261,99.7965868 16.4224921,100.378762 C15.3121345,100.985029 10.1713038,102.192109 1,104 Z" id="Path-14-Copy-11" transform="translate(10.500000, 100.500000) scale(-1, 1) rotate(40.000000) translate(-10.500000, -100.500000) "></path>
                    </g>
                    <g id="Group-57" transform="translate(36.000000, 53.000000)">
                        <g id="Group-15" transform="translate(0.000000, 53.000000)" fill="#EA484C">
                            <rect id="Rectangle-44" x="0" y="4" width="102" height="3" rx="1.5"></rect>
                            <circle id="Oval-11" cx="19" cy="3" r="3"></circle>
                            <circle id="Oval-11-Copy" cx="84" cy="3" r="3"></circle>
                            <rect id="Rectangle-45" x="106" y="4" width="6" height="3" rx="1.5"></rect>
                        </g>
                        <g id="noun_1271460_cc" transform="translate(35.000000, 0.000000)">
                            <rect id="Rectangle-99" fill="#FFFFFF" x="2" y="2" width="33" height="54" rx="6"></rect>
                            <g id="Group" fill-rule="nonzero" fill="#EA484C">
                                <path d="M29.8272727,57.2416667 L7.09529508,57.2416667 C3.43716387,57.2416667 0.4625,54.3102381 0.4625,50.7082213 L0.4625,6.77271709 C0.4625,3.17070028 3.43716387,0.241666667 7.09529508,0.241666667 L29.8272727,0.241666667 C33.4854039,0.241666667 36.4625,3.17070028 36.4625,6.77271709 L36.4625,50.7106162 C36.4600677,54.3126331 33.4854039,57.2416667 29.8272727,57.2416667 Z M6.8659668,2.24166667 C4.8017045,2.24166667 2.4625,4.71560547 2.4625,6.68310547 L2.4625,50.5441895 C2.4625,52.5116895 4.8017045,55.2416667 6.8659668,55.2416667 L29.7937012,55.2416667 C31.8579635,55.2416667 34.4625,52.5116895 34.4625,50.5441895 L34.4625,6.68310547 C34.4625,4.71560547 31.8579635,2.24166667 29.7937012,2.24166667 L6.8659668,2.24166667 Z" id="Shape"></path>
                                <path d="M34.8814189,13.1166667 L2.04358108,13.1166667 C1.17033784,13.1166667 0.4625,12.6689744 0.4625,12.1166667 C0.4625,11.564359 1.17033784,11.1166667 2.04358108,11.1166667 L34.8814189,11.1166667 C35.7546622,11.1166667 36.4625,11.564359 36.4625,12.1166667 C36.4625,12.6689744 35.7546622,13.1166667 34.8814189,13.1166667 Z" id="Shape"></path>
                                <path d="M34.8814189,46.326 L2.04358108,46.326 C1.17033784,46.326 0.4625,45.8783077 0.4625,45.326 C0.4625,44.7736923 1.17033784,44.326 2.04358108,44.326 L34.8814189,44.326 C35.7546622,44.326 36.4625,44.7736923 36.4625,45.326 C36.4625,45.8783077 35.7546622,46.326 34.8814189,46.326 Z" id="Shape"></path>
                                <path d="M18.5,52.8210833 C17.3714375,52.8210833 16.4525,51.91 16.4525,50.7886667 C16.4525,49.66975 17.369,48.7586667 18.5,48.7586667 C19.631,48.7586667 20.5475,49.66975 20.5475,50.7886667 C20.5475,51.91 19.6285625,52.8210833 18.5,52.8210833 Z" id="Shape"></path>
                                <path d="M23.5626875,7.88941667 L13.4373125,7.88941667 C12.56225,7.88941667 12.1584473,7.44172436 12.1584473,6.88941667 C12.1584473,6.33710897 12.56225,5.88941667 13.4373125,5.88941667 L23.5626875,5.88941667 C24.43775,5.88941667 24.772583,6.33710897 24.772583,6.88941667 C24.772583,7.44172436 24.4401875,7.88941667 23.5626875,7.88941667 Z" id="Shape"></path>
                            </g>
                        </g>
                    </g>
                </g>
            </g>
        </g>
    </g>
</svg>