<?xml version="1.0" encoding="UTF-8"?>
<svg width="169px" height="160px" viewBox="0 0 169 160" version="1.1" xmlns="http://www.w3.org/2000/svg" xmlns:xlink="http://www.w3.org/1999/xlink">
    <!-- Generator: Sketch 46.2 (44496) - http://www.bohemiancoding.com/sketch -->
    <title>Group 58</title>
    <desc>Created with Sketch.</desc>
    <defs></defs>
    <g id="Page-1" stroke="none" stroke-width="1" fill="none" fill-rule="evenodd">
        <g id="Apple-TV-Copy-2" transform="translate(-873.000000, -9033.000000)">
            <g id="7" transform="translate(411.000000, 8880.000000)">
                <g id="Group-58" transform="translate(461.000000, 152.000000)">
                    <g id="Group-16-Copy-3">
                        <g id="Group-14" fill="#FFEDEE">
                            <g id="Group-11-Copy" transform="translate(92.282013, 83.092019) rotate(-27.000000) translate(-92.282013, -83.092019) translate(37.782013, 38.092019)">
                                <rect id="Rectangle-31" x="0.288888889" y="0" width="98.7777778" height="18" rx="9"></rect>
                                <rect id="Rectangle-31-Copy-7" x="0.288888889" y="72" width="98.7777778" height="18" rx="9"></rect>
                                <rect id="Rectangle-31-Copy-4" x="0.288888889" y="36" width="108.185185" height="18" rx="9"></rect>
                                <path d="M91.0703704,54 L8.28518519,54 L14.8074074,54 L14.8074074,54 C19.7779702,54 23.8074074,58.0294373 23.8074074,63 L23.8074074,63 C23.8074074,67.9705627 19.7779702,72 14.8074074,72 L8.28518519,72 L91.0703704,72 L82.6666667,72 C77.6961039,72 73.6666667,67.9705627 73.6666667,63 L73.6666667,63 L73.6666667,63 C73.6666667,58.0294373 77.6961039,54 82.6666667,54 L82.6666667,54 L91.0703704,54 Z" id="Combined-Shape"></path>
                                <path d="M94.8333333,18 L12.0481481,18 L22.3333333,18 L22.3333333,18 C27.3038961,18 31.3333333,22.0294373 31.3333333,27 L31.3333333,27 C31.3333333,31.9705627 27.3038961,36 22.3333333,36 L12.0481481,36 L94.8333333,36 L90.1925926,36 C85.2220298,36 81.1925926,31.9705627 81.1925926,27 L81.1925926,27 L81.1925926,27 C81.1925926,22.0294373 85.2220298,18 90.1925926,18 L94.8333333,18 Z" id="Combined-Shape"></path>
                            </g>
                            <path d="M17.5,36 C13.9101491,36 11,33.0898509 11,29.5 C11,25.9101491 13.9101491,23 17.5,23 C21.0898509,23 24,25.9101491 24,29.5 C24,33.0898509 21.0898509,36 17.5,36 Z M17.5,33.2142857 C19.5513434,33.2142857 21.2142857,31.5513434 21.2142857,29.5 C21.2142857,27.4486566 19.5513434,25.7857143 17.5,25.7857143 C15.4486566,25.7857143 13.7857143,27.4486566 13.7857143,29.5 C13.7857143,31.5513434 15.4486566,33.2142857 17.5,33.2142857 Z" id="Combined-Shape-Copy-3"></path>
                            <path d="M149.5,141 C145.910149,141 143,138.089851 143,134.5 C143,130.910149 145.910149,128 149.5,128 C153.089851,128 156,130.910149 156,134.5 C156,138.089851 153.089851,141 149.5,141 Z M149.5,138.214286 C151.551343,138.214286 153.214286,136.551343 153.214286,134.5 C153.214286,132.448657 151.551343,130.785714 149.5,130.785714 C147.448657,130.785714 145.785714,132.448657 145.785714,134.5 C145.785714,136.551343 147.448657,138.214286 149.5,138.214286 Z" id="Combined-Shape-Copy-4"></path>
                            <path d="M157,42 C153.686292,42 151,39.3137085 151,36 C151,32.6862915 153.686292,30 157,30 C160.313708,30 163,32.6862915 163,36 C163,39.3137085 160.313708,42 157,42 Z M157,39.2307692 C158.784305,39.2307692 160.230769,37.7843046 160.230769,36 C160.230769,34.2156954 158.784305,32.7692308 157,32.7692308 C155.215695,32.7692308 153.769231,34.2156954 153.769231,36 C153.769231,37.7843046 155.215695,39.2307692 157,39.2307692 Z" id="Combined-Shape-Copy-5"></path>
                            <path d="M151,78 L166.422492,71.9587874 C168.549903,70.6804042 169.735818,70.6804042 169.980237,71.9587874 C170.260299,73.423598 167.488726,73.7965868 166.422492,74.3787621 C165.312135,74.9850293 160.171304,76.1921086 151,78 Z" id="Path-14-Copy-6" transform="translate(160.500000, 74.500000) rotate(-1.000000) translate(-160.500000, -74.500000) "></path>
                            <path d="M34,141 L49.4224921,134.958787 C51.5499033,133.680404 52.7358182,133.680404 52.9802369,134.958787 C53.2602992,136.423598 50.4887261,136.796587 49.4224921,137.378762 C48.3121345,137.985029 43.1713038,139.192109 34,141 Z" id="Path-14-Copy-7" transform="translate(43.500000, 137.500000) scale(-1, 1) rotate(60.000000) translate(-43.500000, -137.500000) "></path>
                            <path d="M125,23 L140.422492,16.9587874 C142.549903,15.6804042 143.735818,15.6804042 143.980237,16.9587874 C144.260299,18.423598 141.488726,18.7965868 140.422492,19.3787621 C139.312135,19.9850293 134.171304,21.1921086 125,23 Z" id="Path-14-Copy-8" transform="translate(134.500000, 19.500000) rotate(-33.000000) translate(-134.500000, -19.500000) "></path>
                            <path d="M51,14 L66.4224921,7.9587874 C68.5499033,6.6804042 69.7358182,6.6804042 69.9802369,7.9587874 C70.2602992,9.42359797 67.4887261,9.7965868 66.4224921,10.3787621 C65.3121345,10.9850293 60.1713038,12.1921086 51,14 Z" id="Path-14-Copy-9" transform="translate(60.500000, 10.500000) rotate(-99.000000) translate(-60.500000, -10.500000) "></path>
                            <path d="M111,155 L126.422492,148.958787 C128.549903,147.680404 129.735818,147.680404 129.980237,148.958787 C130.260299,150.423598 127.488726,150.796587 126.422492,151.378762 C125.312135,151.985029 120.171304,153.192109 111,155 Z" id="Path-14-Copy-10" transform="translate(120.500000, 151.500000) rotate(-275.000000) translate(-120.500000, -151.500000) "></path>
                            <path d="M1,104 L16.4224921,97.9587874 C18.5499033,96.6804042 19.7358182,96.6804042 19.9802369,97.9587874 C20.2602992,99.423598 17.4887261,99.7965868 16.4224921,100.378762 C15.3121345,100.985029 10.1713038,102.192109 1,104 Z" id="Path-14-Copy-11" transform="translate(10.500000, 100.500000) scale(-1, 1) rotate(40.000000) translate(-10.500000, -100.500000) "></path>
                        </g>
                        <g id="Group-57" transform="translate(36.000000, 100.000000)" fill="#EA484C">
                            <g id="Group-15">
                                <rect id="Rectangle-44" x="0" y="4" width="102" height="3" rx="1.5"></rect>
                                <circle id="Oval-11" cx="12" cy="3" r="3"></circle>
                                <path d="M90,6 C91.6568542,6 93,4.65685425 93,3 C93,1.34314575 91.6568542,0 90,0 C88.3431458,0 87,1.34314575 87,3 C87,4.65685425 88.3431458,6 90,6 Z" id="Oval-11-Copy"></path>
                                <rect id="Rectangle-45" x="106" y="4" width="6" height="3" rx="1.5"></rect>
                            </g>
                        </g>
                    </g>
                    <g id="noun_1150546_cc" transform="translate(72.000000, 52.000000)">
                        <path d="M19.7041016,1.03173828 C31.6757812,3.33317057 37.7516276,9.35986328 37.9316406,19.1118164 C38.1116536,28.8637695 32.0358073,39.480957 19.7041016,50.9633789 C6.97688802,38.9288737 0.845377604,28.1162109 1.30957031,18.5253906 C1.77376302,8.93457031 7.90527344,3.10335286 19.7041016,1.03173828 Z M19.5,27 C23.6421356,27 27,23.6421356 27,19.5 C27,15.3578644 23.6421356,12 19.5,12 C15.3578644,12 12,15.3578644 12,19.5 C12,23.6421356 15.3578644,27 19.5,27 Z" id="Combined-Shape" fill="#FFFFFF"></path>
                        <path d="M19.5,0 C8.74772932,0 0,8.91531034 0,19.8735632 C0,28.4278621 4.73512782,36.5404598 8.70784962,41.8402759 C11.899985,46.0994943 17.4268421,52 19.5,52 C19.9070075,52 20.6658947,52 23.7870677,49.0228506 C24.378812,48.4592184 22.8217695,45.891974 21.8310547,46.8118286 C20.6747342,47.8854442 19.864782,48.5542529 19.4407669,48.8578851 C16.2791278,46.8543908 2.93233083,33.1042759 2.93233083,19.8735632 C2.93233083,10.5631724 10.3646165,2.98850575 19.5,2.98850575 C28.6353835,2.98850575 36.0676692,10.5631724 36.0676692,19.8735632 C36.0676692,29.0369195 29.6347218,38.0149885 25.800406,42.5503448 C25.6554854,42.7218109 22.3686523,46.456543 21.9277344,46.7142334 C21.7182599,46.8366588 22.9524763,49.8924546 23.7870677,49.0228506 C25.5004883,47.2375488 27.9445668,44.5916834 28.0213534,44.5006437 C32.1213383,39.6508966 39,30.0022069 39,19.8729655 C39,8.91531034 30.2522707,0 19.5,0 Z M19.5,11 C14.813183,11 11,14.8129193 11,19.5 C11,24.1870807 14.813183,28 19.5,28 C24.186817,28 28,24.1870807 28,19.5 C28,14.8129193 24.186817,11 19.5,11 Z M19.5,25 C16.4673821,25 14,22.5328787 14,19.5 C14,16.4671213 16.4673821,14 19.5,14 C22.5326179,14 25,16.4671213 25,19.5 C25,22.5328787 22.5326179,25 19.5,25 Z" id="Shape" fill="#EA484C" fill-rule="nonzero"></path>
                    </g>
                </g>
            </g>
        </g>
    </g>
</svg>