<svg width="314px" height="322px" viewBox="0 0 314 322" version="1.1" xmlns="http://www.w3.org/2000/svg" xmlns:xlink="http://www.w3.org/1999/xlink">
    <defs>
        <rect id="path-1" x="0" y="0" width="137.364706" height="168.010926" rx="3"></rect>
        <rect id="path-3" x="0" y="0" width="137.364706" height="168.010926" rx="3"></rect>
        <path d="M6.51801322,9.46441456 C15.0938643,3.15480485 23.3357907,0 31.2437924,0 C46.0819283,0 82.1755293,1.57138784e-12 96.2948158,0 C104.150586,-8.74297831e-13 111.653666,3.89679337 118.804056,11.6903801 L118.804053,11.6903822 C121.511943,14.6418542 123.014311,18.5016479 123.014311,22.5071261 L123.014311,32.580602 L123.014311,32.580602 C123.014311,41.3048539 115.941907,48.3772575 107.217656,48.3772575 L16.0000026,48.3772575 L16.0000026,48.3772575 C7.16344663,48.3772575 2.62715814e-06,41.2138135 2.62715814e-06,32.3772575 L2.62715815e-06,22.3520785 L2.46941879e-06,22.3520785 C2.46941879e-06,17.2641996 2.41983369,12.4796154 6.51801322,9.46441456 Z" id="path-5"></path>
        <rect id="path-7" x="0" y="0" width="20.8330684" height="35.5424749" rx="10.4165342"></rect>
        <path d="M11.9046105,57.273873 C11.7401466,57.2665667 11.5747808,57.2628763 11.4085851,57.2628763 C5.10779751,57.2628763 0,62.5671789 0,69.1103679 C0,75.6535568 5.10779751,80.9578595 11.4085851,80.9578595 C11.6191173,80.9578595 11.8283176,80.9519374 12.0360399,80.9402449 C13.8466071,105.243359 34.1386284,124.398662 58.9046105,124.398662 L66.0937997,124.398662 C90.5251508,124.398662 110.602626,105.757504 112.878891,81.9225215 C113.114014,81.9375338 113.351063,81.9451505 113.589825,81.9451505 C119.890613,81.9451505 124.99841,76.6408478 124.99841,70.0976589 C124.99841,63.5544699 119.890613,58.2501672 113.589825,58.2501672 C113.423629,58.2501672 113.258264,58.2538577 113.0938,58.2611639 L113.0938,47 C113.0938,21.0426168 92.0511829,-4.76829395e-15 66.0937997,0 L58.9046105,0 L58.9046105,0 C32.9472273,4.76829395e-15 11.9046105,21.0426168 11.9046105,47 L11.9046105,47 L11.9046105,57.273873 Z" id="path-9"></path>
        <linearGradient x1="87.1771365%" y1="0%" x2="4.01472428%" y2="112.879037%" id="linearGradient-11">
            <stop stop-color="#8F24F3" offset="0%"></stop>
            <stop stop-color="#9A8AFE" offset="100%"></stop>
        </linearGradient>
        <rect id="path-12" x="0" y="0" width="50.5961199" height="32.7500701" rx="3"></rect>
    </defs>
    <g id="Page-3" stroke="none" stroke-width="1" fill="none" fill-rule="evenodd">
        <g id="icon2" transform="translate(-25.000000, 0.000000)">
            <g id="main_obj" transform="translate(25.000000, 0.000000)">
                <g id="list">
                    <g id="bg_back" transform="translate(20.752941, 20.754291)">
                        <mask id="mask-2" fill="white">
                            <use xlink:href="#path-1"></use>
                        </mask>
                        <use id="Mask" fill="#8F24F3" xlink:href="#path-1"></use>
                        <rect id="Rectangle-68-Copy" fill="#6C16BC" mask="url(#mask-2)" x="-10.8705882" y="-10.8712952" width="137.364706" height="168.010926" rx="3"></rect>
                    </g>
                    <g id="bg_front">
                        <mask id="mask-4" fill="white">
                            <use xlink:href="#path-3"></use>
                        </mask>
                        <use id="Mask" fill="#F0E8FF" xlink:href="#path-3"></use>
                        <rect id="Rectangle-68-Copy" fill="#F7F1FF" mask="url(#mask-4)" x="0" y="-9.88299567" width="137.364706" height="168.010926" rx="3"></rect>
                    </g>
                    <g id="line1" opacity="0" transform="translate(18.776471, 20.754291)">
                        <rect id="Rectangle-68" fill="#8F24F3" x="41.5058824" y="6.91809697" width="57.3176471" height="7.90639654" rx="3.95319827"></rect>
                        <rect id="Rectangle-68-Copy-2" fill="#8F24F3" x="41.5058824" y="17.7893922" width="36.5647059" height="7.90639654" rx="3.95319827"></rect>
                        <ellipse id="Oval-27-Copy" fill="#D7CAFB" cx="15.8117647" cy="19.7659913" rx="15.8117647" ry="15.8127931"></ellipse>
                        <ellipse id="Oval-27" fill="#6C16BC" cx="15.8117647" cy="15.8127931" rx="15.8117647" ry="15.8127931"></ellipse>
                        <g id="Group-28" transform="translate(15.687792, 14.840917) rotate(-315.000000) translate(-15.687792, -14.840917) translate(10.187792, 6.340917)" fill="#FFFFFF">
                            <rect id="Rectangle-69" x="0" y="13.8361939" width="10.8705882" height="2.9648987" rx="1.48244935"></rect>
                            <rect id="Rectangle-69-Copy" transform="translate(9.388235, 8.400546) rotate(-90.000000) translate(-9.388235, -8.400546) " x="0.988235294" y="6.91809697" width="16.8" height="2.9648987" rx="1.48244935"></rect>
                        </g>
                    </g>
                    <g id="line2" opacity="0" transform="translate(18.776471, 62.262873)">
                        <rect id="Rectangle-68" fill="#8F24F3" x="41.5058824" y="6.91809697" width="57.3176471" height="7.90639654" rx="3.95319827"></rect>
                        <rect id="Rectangle-68-Copy-2" fill="#8F24F3" x="41.5058824" y="17.7893922" width="36.5647059" height="7.90639654" rx="3.95319827"></rect>
                        <ellipse id="Oval-27-Copy" fill="#D7CAFB" cx="15.8117647" cy="19.7659913" rx="15.8117647" ry="15.8127931"></ellipse>
                        <ellipse id="Oval-27" fill="#6C16BC" cx="15.8117647" cy="15.8127931" rx="15.8117647" ry="15.8127931"></ellipse>
                        <g id="Group-28" transform="translate(15.687792, 14.840917) rotate(-315.000000) translate(-15.687792, -14.840917) translate(10.187792, 6.340917)" fill="#FFFFFF">
                            <rect id="Rectangle-69" x="0" y="13.8361939" width="10.8705882" height="2.9648987" rx="1.48244935"></rect>
                            <rect id="Rectangle-69-Copy" transform="translate(9.388235, 8.400546) rotate(-90.000000) translate(-9.388235, -8.400546) " x="0.988235294" y="6.91809697" width="16.8" height="2.9648987" rx="1.48244935"></rect>
                        </g>
                    </g>
                    <g id="line3" opacity="0" transform="translate(18.776471, 101.794855)">
                        <rect id="Rectangle-68" fill="#8F24F3" x="41.5058824" y="6.91809697" width="57.3176471" height="7.90639654" rx="3.95319827"></rect>
                        <rect id="Rectangle-68-Copy-2" fill="#8F24F3" x="41.5058824" y="17.7893922" width="36.5647059" height="7.90639654" rx="3.95319827"></rect>
                        <ellipse id="Oval-27-Copy" fill="#D7CAFB" cx="15.8117647" cy="19.7659913" rx="15.8117647" ry="15.8127931"></ellipse>
                        <ellipse id="Oval-27" fill="#6C16BC" cx="15.8117647" cy="15.8127931" rx="15.8117647" ry="15.8127931"></ellipse>
                        <g id="Group-28" transform="translate(15.687792, 14.840917) rotate(-315.000000) translate(-15.687792, -14.840917) translate(10.187792, 6.340917)" fill="#FFFFFF">
                            <rect id="Rectangle-69" x="0" y="13.8361939" width="10.8705882" height="2.9648987" rx="1.48244935"></rect>
                            <rect id="Rectangle-69-Copy" transform="translate(9.388235, 8.400546) rotate(-90.000000) translate(-9.388235, -8.400546) " x="0.988235294" y="6.91809697" width="16.8" height="2.9648987" rx="1.48244935"></rect>
                        </g>
                    </g>
                </g>
                <g id="man" transform="translate(96.000000, 50.713043)">
                    <g id="Path-51" transform="translate(0.000000, 179.686957)">
                        <mask id="mask-6" fill="white">
                            <use xlink:href="#path-5"></use>
                        </mask>
                        <use id="Mask" fill="#8F24F3" xlink:href="#path-5"></use>
                        <polygon fill="#F7EEFD" mask="url(#mask-6)" points="39.0813792 -0.993075878 61.7541981 56.3025815 67.8963881 56.3025815 89.1828547 -2.18380278"></polygon>
                    </g>
                    <polygon id="Path-52" fill="#A796FE" points="51.5866455 228.033361 63.9802142 203.351087 76.3879173 228.033361"></polygon>
                    <rect id="Rectangle-60" fill="#6C16BC" transform="translate(63.941630, 198.862845) rotate(-45.000000) translate(-63.941630, -198.862845) " x="56.0052228" y="190.964517" width="15.872814" height="15.7966555" rx="6"></rect>
                    <path d="M44.6485248,179.686957 C44.9116524,190.091502 53.4691748,198.445485 63.9872814,198.445485 C74.505388,198.445485 83.0629104,190.091502 83.326038,179.686957 L74.3922134,179.686957 C74.1333115,185.183024 69.5738938,189.559866 63.9872814,189.559866 C58.400669,189.559866 53.8412513,185.183024 53.5823494,179.686957 L44.6485248,179.686957 Z" id="Combined-Shape" fill="#9C8CFE"></path>
                    <path d="M48.1750174,179.686957 C46.4922123,182.148756 45.9312773,183.902869 46.4922123,184.949295 C47.0531474,185.99572 52.0870305,200.299227 61.5938618,227.859814 C55.7645941,231.367718 51.0176371,231.693601 47.3529909,228.837463 C43.6883446,225.981326 43.4014184,220.987343 46.4922123,213.855516 L28.8910597,183.8868 C27.4062127,181.086904 27.4062127,179.686957 28.8910597,179.686957 C30.3759067,179.686957 36.8038926,179.686957 48.1750174,179.686957 Z" id="Path-50" fill="#6C16BC"></path>
                    <path d="M86.8650015,179.686957 C85.1821964,182.148756 84.6212614,183.902869 85.1821964,184.949295 C85.7431315,185.99572 90.7770146,200.299227 100.283846,227.859814 C94.4545782,231.367718 89.7076212,231.693601 86.042975,228.837463 C82.3783287,225.981326 82.0914025,220.987343 85.1821964,213.855516 L67.5810438,183.8868 C66.0961968,181.086904 66.0961968,179.686957 67.5810438,179.686957 C69.0658908,179.686957 75.4938767,179.686957 86.8650015,179.686957 Z" id="Path-50-Copy" fill="#6C16BC" transform="translate(83.375627, 205.223571) scale(-1, 1) translate(-83.375627, -205.223571) "></path>
                    <g id="Rectangle-57" transform="translate(53.570747, 152.042809)">
                        <mask id="mask-8" fill="white">
                            <use xlink:href="#path-7"></use>
                        </mask>
                        <use id="Mask" fill="#FBF5FF" xlink:href="#path-7"></use>
                        <rect fill="#DED1EB" mask="url(#mask-8)" x="-4.96025437" y="4.93645485" width="28.7694754" height="14.8093645"></rect>
                    </g>
                    <g id="Combined-Shape-Copy-6" transform="translate(0.992051, 41.466221)">
                        <mask id="mask-10" fill="white">
                            <use xlink:href="#path-9"></use>
                        </mask>
                        <use id="Mask" fill="#EEE4FF" xlink:href="#path-9"></use>
                        <path d="M11.9046105,50.3628362 C11.7401466,50.3555299 11.5747808,50.3518395 11.4085851,50.3518395 C5.10779751,50.3518395 0,55.6561421 0,62.1993311 C0,68.7425201 5.10779751,74.0468227 11.4085851,74.0468227 C11.6191173,74.0468227 11.8283176,74.0409006 12.0360399,74.0292081 C13.8466071,98.3323219 34.1386284,117.487625 58.9046105,117.487625 L66.0937997,117.487625 C90.5251508,117.487625 110.602626,98.846467 112.878891,75.0114847 C113.114014,75.026497 113.351063,75.0341137 113.589825,75.0341137 C119.890613,75.0341137 124.99841,69.729811 124.99841,63.1866221 C124.99841,56.6434331 119.890613,51.3391304 113.589825,51.3391304 C113.423629,51.3391304 113.258264,51.3428209 113.0938,51.3501272 L113.0938,40.0889632 C113.0938,14.13158 92.0511829,-6.91103679 66.0937997,-6.91103679 L58.9046105,-6.91103679 L58.9046105,-6.91103679 C32.9472273,-6.91103679 11.9046105,14.13158 11.9046105,40.0889632 L11.9046105,40.0889632 L11.9046105,50.3628362 Z" fill="#FBF5FF" mask="url(#mask-10)"></path>
                    </g>
                    <path d="M19.8216415,73.5666754 C19.823902,87.338131 19.823902,95.3851791 19.8216415,97.7078197 C19.8182507,101.191781 18.3037746,104.167634 14.1582808,104.075075 C10.0127869,103.982517 8.34717806,101.01968 8.34717806,97.7078197 C8.34717806,95.4999131 8.34717806,79.9565884 8.34717806,51.0778454 C8.44567269,44.927524 10.3827069,39.5883753 14.1582808,35.0603992 C17.9338546,30.5324232 22.9314885,27.2893395 29.1511824,25.3311481 L139.682507,1.05960232 C143.241554,0.0703830477 145.507738,0.235735002 146.481059,1.55565818 C147.454379,2.87558136 146.295372,4.80725857 143.004037,7.3506898 L125.703696,21.1100935 C135.630018,21.1795124 140.952603,25.5930759 141.671453,34.3507839 C142.749727,47.4873458 140.564599,57.981169 133.03751,64.2163357 C128.019451,68.3731135 122.914522,71.8189904 117.722725,74.5539663 L117.722725,99.6190087 C117.006297,102.85454 115.338186,104.487169 112.71839,104.516897 C108.788696,104.561489 107.479121,101.823059 107.240312,100.0025 C107.081106,98.788794 107.001503,91.0212695 107.001503,76.6999262 L54.6187463,76.6999262 C51.882533,76.6999262 50.1014756,76.4149391 49.2755738,75.844965 C48.4496721,75.2749909 47.5972898,74.515561 46.7184271,73.5666754 C43.5134763,76.0692909 38.9378354,77.3896961 32.9915044,77.5278911 C27.0451734,77.6660862 22.6552191,76.3456809 19.8216415,73.5666754 Z" id="Path-47" fill="url(#linearGradient-11)"></path>
                    <path d="" id="Path-48" stroke="#979797"></path>
                    <path d="M50.9830447,90.8307692 C39.601586,91.634068 33.6195709,92.1692523 33.0369994,92.4363222 C32.1631421,92.8369271 28.1888836,95.9026873 28.008929,96.5286626 C27.8289745,97.1546379 27.1520257,98.4757662 29.4672148,98.4887823 C31.0106741,98.4974596 38.1826174,98.493121 50.9830447,98.4757662 C53.6730785,98.3157171 55.0180954,97.0444434 55.0180954,94.6619451 C55.0180954,92.2794468 53.6730785,91.0023882 50.9830447,90.8307692 Z" id="Path-49" fill="#9759C5"></path>
                    <path d="M95.6253341,90.8307692 C84.2438754,91.634068 78.2618603,92.1692523 77.6792887,92.4363222 C76.8054314,92.8369271 72.8311729,95.9026873 72.6512184,96.5286626 C72.4712638,97.1546379 71.7943151,98.4757662 74.1095041,98.4887823 C75.6529635,98.4974596 82.8249068,98.493121 95.6253341,98.4757662 C98.3153678,98.3157171 99.6603847,97.0444434 99.6603847,94.6619451 C99.6603847,92.2794468 98.3153678,91.0023882 95.6253341,90.8307692 Z" id="Path-49-Copy" fill="#9759C5" transform="translate(86.040049, 94.661945) scale(-1, 1) translate(-86.040049, -94.661945) "></path>
                    <ellipse id="Oval-18" fill="#9759C5" cx="45.1383148" cy="110.082943" rx="5.45627981" ry="5.43010033"></ellipse>
                    <ellipse id="Oval-18-Copy" fill="#9759C5" cx="81.8441971" cy="110.082943" rx="5.45627981" ry="5.43010033"></ellipse>
                    <g id="Group-20" transform="translate(52.527822, 129.840803)" fill="#9759C5">
                        <path d="M0.0696122636,1.81441856 C0.057178206,2.02676106 0.0508744038,2.24074154 0.0508744038,2.45618729 C0.0508744038,8.4541105 4.93659376,13.316388 10.963434,13.316388 C16.9902743,13.316388 21.8759936,8.4541105 21.8759936,2.45618729 C21.8759936,2.27731719 21.8716485,2.09945707 21.8630576,1.92270578 C21.8750003,1.84713987 21.8812009,1.7696764 21.8812009,1.69077165 C21.8812009,0.872873028 21.2149665,0.209835193 20.3931246,0.209835193 C19.6470539,0.209835193 19.0292202,0.756249214 18.9216376,1.46889632 L18.8997516,1.46889632 C18.8998112,1.48158239 18.899841,1.49427549 18.899841,1.50697556 L18.899841,2.41810805 C18.899841,6.80126461 15.3465906,10.3545151 10.963434,10.3545151 C6.58027747,10.3545151 3.02702703,6.80126461 3.02702703,2.41810805 L3.02702703,1.93864126 C3.03747845,1.86780855 3.04289112,1.79534559 3.04289112,1.72162449 C3.04289112,1.6479042 3.03747857,1.57544202 3.02702737,1.50461006 C3.02703085,1.49269933 3.02706056,1.48079473 3.02711645,1.46889632 L3.02130847,1.46889632 C2.90079917,0.77139188 2.29008205,0.240688036 1.55481481,0.240688036 C0.732972957,0.240688036 0.0667384986,0.903725871 0.0667384986,1.72162449 C0.0667384986,1.75279007 0.0677058372,1.7837308 0.0696122636,1.81441856 Z" id="Combined-Shape"></path>
                    </g>
                </g>
                <g id="money" transform="translate(221.176471, 193.460870)" fill="#FBDF3E">
                    <ellipse opacity="0" id="coin3" cx="16.4705882" cy="0" rx="10.8235294" ry="10.8"></ellipse>
                    <ellipse opacity="0" id="coin2" cx="6.58823529" cy="0" rx="6.58823529" ry="6.57391304"></ellipse>
                    <ellipse opacity="0" id="coin1" cx="17.4117647" cy="0" rx="4.23529412" ry="4.22608696"></ellipse>
                </g>
                <g id="pig_group" transform="translate(167.000000, 248.000000)">
                    <g id="ccards-keeper" transform="translate(40, 11.930435)">
                        <g id="ccards" transform="translate(0.000000, 0.801831)">
                            <g id="Rectangle-67" transform="translate(30.637014, 26.916073) rotate(29.000000) translate(-30.637014, -26.916073) translate(5.137014, 10.416073)">
                                <mask id="mask-13" fill="white">
                                    <use xlink:href="#path-12"></use>
                                </mask>
                                <use id="Mask" fill="#FAD06A" xlink:href="#path-12"></use>
                                <rect fill="#DCAE41" mask="url(#mask-13)" x="-2.29982363" y="6.77587658" width="56.345679" height="5.64656381"></rect>
                            </g>
                            <g id="Group-22" transform="translate(4.911576, 20.672674)">
                                <rect id="Rectangle-62" fill="#FA6BAB" x="0" y="0" width="50.5961199" height="32.7500701" rx="4"></rect>
                                <rect id="Rectangle-65" fill="#DC4A8B" x="6.8994709" y="21.4569425" width="10.3492063" height="3.38793829" rx="1.69396914"></rect>
                                <rect id="Rectangle-65-Copy" fill="#DC4A8B" x="20.6984127" y="21.4569425" width="10.3492063" height="3.38793829" rx="1.69396914"></rect>
                                <rect id="Rectangle-63" fill="#CC3478" x="6.8994709" y="6.77587658" width="10.3492063" height="10.1638149" rx="2"></rect>
                            </g>
                        </g>
                    </g>
                    <g id="dollars" opacity="0" transform="translate(106.488755, 37.922840) rotate(6.000000) translate(-106.488755, -37.922840) translate(62.988755, 4.922840)">
                        <g id="dollar1" transform="translate(51.091002, 46.005426) rotate(-6.000000) translate(-51.091002, -46.005426) translate(19.591002, 30.005426)">
                            <rect id="Rectangle-66" fill="#31A311" x="0" y="0" width="62.1285658" height="31.4982131"></rect>
                            <path d="M8.02790638,2.33320097 L54.1006594,2.33320097 C54.0835853,2.52531793 54.0748628,2.71987672 54.0748628,2.91650122 C54.0748628,6.26350284 56.6022874,9.01194688 59.8275078,9.30664695 L59.8275078,23.3581667 C56.7917577,23.6355542 54.3742255,26.0868563 54.1006594,29.1650122 L8.02790638,29.1650122 C7.75434028,26.0868563 5.33680812,23.6355542 2.30105799,23.3581667 L2.30105799,9.30664695 C5.52627841,9.01194688 8.05370297,6.26350284 8.05370297,2.91650122 C8.05370297,2.71987672 8.04498046,2.52531793 8.02790638,2.33320097 Z M45.4458953,19.8322083 C47.669864,19.8322083 49.4727468,18.0041414 49.4727468,15.7491066 C49.4727468,13.4940718 47.669864,11.6660049 45.4458953,11.6660049 C43.2219267,11.6660049 41.4190439,13.4940718 41.4190439,15.7491066 C41.4190439,18.0041414 43.2219267,19.8322083 45.4458953,19.8322083 Z" id="Combined-Shape" fill="#7FD866"></path>
                        </g>
                        <g id="dollar2" transform="translate(51.474305, 38.674153) rotate(-15.000000) translate(-51.474305, -38.674153) translate(19.974305, 22.674153)">
                            <rect id="Rectangle-66" fill="#31A311" x="0" y="0" width="62.1285658" height="31.4982131"></rect>
                            <path d="M8.02790638,2.33320097 L54.1006594,2.33320097 C54.0835853,2.52531793 54.0748628,2.71987672 54.0748628,2.91650122 C54.0748628,6.26350284 56.6022874,9.01194688 59.8275078,9.30664695 L59.8275078,23.3581667 C56.7917577,23.6355542 54.3742255,26.0868563 54.1006594,29.1650122 L8.02790638,29.1650122 C7.75434028,26.0868563 5.33680812,23.6355542 2.30105799,23.3581667 L2.30105799,9.30664695 C5.52627841,9.01194688 8.05370297,6.26350284 8.05370297,2.91650122 C8.05370297,2.71987672 8.04498046,2.52531793 8.02790638,2.33320097 Z M45.4458953,19.8322083 C47.669864,19.8322083 49.4727468,18.0041414 49.4727468,15.7491066 C49.4727468,13.4940718 47.669864,11.6660049 45.4458953,11.6660049 C43.2219267,11.6660049 41.4190439,13.4940718 41.4190439,15.7491066 C41.4190439,18.0041414 43.2219267,19.8322083 45.4458953,19.8322083 Z" id="Combined-Shape" fill="#7FD866"></path>
                        </g>
                        <g id="dollar3" transform="translate(35.129417, 33.402919) rotate(-40.000000) translate(-35.129417, -33.402919) translate(3.629417, 17.402919)">
                          <g id="dollar3_inner">
                            <rect id="Rectangle-66" fill="#31A311" x="0" y="0" width="62.1285658" height="31.4982131"></rect>
                            <path d="M8.02790638,2.33320097 L54.1006594,2.33320097 C54.0835853,2.52531793 54.0748628,2.71987672 54.0748628,2.91650122 C54.0748628,6.26350284 56.6022874,9.01194688 59.8275078,9.30664695 L59.8275078,23.3581667 C56.7917577,23.6355542 54.3742255,26.0868563 54.1006594,29.1650122 L8.02790638,29.1650122 C7.75434028,26.0868563 5.33680812,23.6355542 2.30105799,23.3581667 L2.30105799,9.30664695 C5.52627841,9.01194688 8.05370297,6.26350284 8.05370297,2.91650122 C8.05370297,2.71987672 8.04498046,2.52531793 8.02790638,2.33320097 Z M45.4458953,19.8322083 C47.669864,19.8322083 49.4727468,18.0041414 49.4727468,15.7491066 C49.4727468,13.4940718 47.669864,11.6660049 45.4458953,11.6660049 C43.2219267,11.6660049 41.4190439,13.4940718 41.4190439,15.7491066 C41.4190439,18.0041414 43.2219267,19.8322083 45.4458953,19.8322083 Z" id="Combined-Shape" fill="#7FD866"></path>
                          </g>
                        </g>
                    </g>
                    <g id="pig_head" transform="translate(37.235294, 1.808696)">
                        <rect id="Rectangle-70" fill="#1DC0D9" transform="translate(14.438193, 15.860870) rotate(15.000000) translate(-14.438193, -15.860870) " x="2.98721228" y="2.97391304" width="22.9019608" height="25.773913" rx="4"></rect>
                        <rect id="Rectangle-70-Copy" fill="#1DC0D9" transform="translate(54.267690, 15.860870) scale(-1, 1) rotate(15.000000) translate(-54.267690, -15.860870) " x="42.8167093" y="2.97391304" width="22.9019608" height="25.773913" rx="4"></rect>
                        <path d="M48.3345734,68.4224836 C44.0634562,70.3194036 39.3318963,71.373913 34.3529412,71.373913 C29.0854785,71.373913 24.0949127,70.193655 19.6335139,68.084286 C17.9149909,70.0969715 15.3532745,71.373913 12.4919786,71.373913 C7.31763165,71.373913 3.12299465,67.1979508 3.12299465,62.0466403 C3.12299465,59.6431747 4.03612917,57.4520336 5.53586173,55.7982996 C2.03430139,50.4395366 0,44.0432354 0,37.173913 C0,18.2857746 15.3803357,2.97391304 34.3529412,2.97391304 C53.3255467,2.97391304 68.7058824,18.2857746 68.7058824,37.173913 C68.7058824,44.3435509 66.4898202,50.997904 62.7024094,56.4951292 C63.8582142,58.0462603 64.5418895,59.9669653 64.5418895,62.0466403 C64.5418895,67.1979508 60.3472525,71.373913 55.1729055,71.373913 C52.4753463,71.373913 50.0440608,70.238935 48.3345796,68.4224814 Z" id="Combined-Shape" fill="#1DC0D9"></path>
                        <g id="Group-31" transform="translate(15.931799, 22.800000)">
                            <ellipse id="Oval-30" fill="#FFFFFF" cx="7.46803069" cy="7.43478261" rx="7.46803069" ry="7.43478261"></ellipse>
                            <ellipse id="Oval-30-Copy" fill="#585673" cx="7.46803069" cy="7.43478261" rx="3.20058458" ry="3.1863354"></ellipse>
                        </g>
                        <g id="Group-31-Copy" transform="translate(38.833760, 22.800000)">
                            <ellipse id="Oval-30" fill="#FFFFFF" cx="7.46803069" cy="7.43478261" rx="7.46803069" ry="7.43478261"></ellipse>
                            <ellipse id="Oval-30-Copy" fill="#585673" cx="7.46803069" cy="7.43478261" rx="3.20058458" ry="3.1863354"></ellipse>
                        </g>
                        <g id="Group-32" transform="translate(23.897698, 39.652174)">
                            <rect id="Rectangle-71" fill="#5286BE" x="0" y="0" width="20.9104859" height="12.8869565" rx="6.44347826"></rect>
                            <ellipse id="Oval-31" fill="#1DC0D9" cx="6.27314578" cy="6.44347826" rx="3.13657289" ry="3.22173913"></ellipse>
                            <ellipse id="Oval-31-Copy" fill="#1DC0D9" cx="14.6373402" cy="6.44347826" rx="3.13657289" ry="3.22173913"></ellipse>
                        </g>
                    </g>
                </g>
            </g>
        </g>
    </g>
  <animateTransform attributeName="transform"
  type="translate"
  xlink:href="#bg_back"
  from="300 20"
  to="20.752941 20.754291"
  begin="0s"
  dur="0.6s"
  repeatCount="1"
/>
<animate xlink:href="#bg_back" id="list_bg_back" attributeName="opacity" from="0" to="1" dur="1s" begin="0s" />

<animateTransform id="list_bg_front" attributeName="transform"
  type="translate"
  xlink:href="#bg_front"
  from="-300 20"
  to="0 0"
  begin="0s"
  dur="0.3s"
  repeatCount="1"
/>


<animate id="anim_line_1" xlink:href="#line1" attributeName="opacity" values="0;1" dur="1s" begin="list_bg_front.end" fill="freeze" />
<animate id="anim_line_2" xlink:href="#line2" attributeName="opacity" values="0;1" dur="1s" begin="anim_line_1.end" fill="freeze" />
<animate id="anim_line_3" xlink:href="#line3" attributeName="opacity" values="0;1" dur="1s" begin="anim_line_2.end" fill="freeze" />

<animate id="coin1_opacity" xlink:href="#coin1" attributeName="opacity" values="0;1" dur="0.4s" begin="anim_line_3.end" fill="freeze" />

  <animate
    xlink:href="#coin1"
    attributeName="cy"
    from="-50"
    to="60"
    dur="2s"
    begin="coin1_opacity.end"
    repeatCount="indefinite" />

  <animate id="coin2_opacity" xlink:href="#coin2" attributeName="opacity" values="0;1" dur="0.4s" begin="5.5s" fill="freeze" />
  <animate
    xlink:href="#coin2"
    attributeName="cy"
    from="-40"
    to="60"
    dur="2.7s"
    begin="coin2_opacity.end"
    repeatCount="indefinite" />
  <animate id="coin3_opacity" xlink:href="#coin3" attributeName="opacity" values="0;1" dur="1s" begin="8.5s" fill="freeze" />
  <animate
    xlink:href="#coin3"
    attributeName="cy"
    from="-60"
    to="60"
    dur="3.8s"
    begin="coin3_opacity.end"
    repeatCount="indefinite" />

  <animateTransform id="anim_pig_head_l" attributeName="transform"
    type="translate"
    xlink:href="#pig_head"
    from="37.235294, 1.808696"
    to="42.235294, 1.808696"
    begin="coin2_opacity.end;anim_pig_head_r.end"
    dur="3s"
    fill="freeze"
  />

  <animateTransform id="anim_pig_head_r" attributeName="transform"
    type="translate"
    xlink:href="#pig_head"
    to="37.235294, 1.808696"
    from="42.235294, 1.808696"
    begin="anim_pig_head_l.end"
    dur="3s"
    fill="freeze"
  />

  <animate xlink:href="#ccards-keeper" attributeName="opacity" values="0;1" dur="1s" begin="0.5s" fill="freeze" />
<animateTransform id="ccards_anim" attributeName="transform"
    type="translate"
    xlink:href="#ccards-keeper"
    from="40, 11.930435"
    to="0, 11.930435"
    begin="0.5s"
    dur="0.2s"
    repeatCount="1"
    fill="freeze"
/>
  <animate xlink:href="#dollars" attributeName="opacity" values="0;1" dur="1s" begin="0.5s" fill="freeze" />

  <animateTransform id="dollars_anim" attributeName="transform"
    type="translate"
    xlink:href="#dollars"
    from="32.988755, 4.922840"
    to="62.988755, 4.922840"
    begin="0.2s"
    dur="0.5s"
    fill="freeze"
/>

  <animate id="line1_pulse" xlink:href="#line1" attributeName="opacity" values="1;0.8;1;1;1" dur="1s" begin="anim_line_3.end;line3_pulse.end" fill="freeze"/>
  <animate id="line2_pulse" xlink:href="#line2" attributeName="opacity" values="1;0.8;1;1;1" dur="1s" begin="line1_pulse.end" fill="freeze"/>
  <animate id="line3_pulse" xlink:href="#line3" attributeName="opacity" values="1;0.8;1;1;1" dur="1s" begin="line2_pulse.end" fill="freeze"/>

</svg>
