<svg xmlns="http://www.w3.org/2000/svg" width="22" height="22" viewBox="0 0 22 22"><style type="text/css">.st0{fill:#FFFFFF;}</style><path class="st0" d="M17.3 14.6c-1.1-1.2-2.2-2.4-3.4-3.6 1.2-1.2 2.3-2.4 3.4-3.6 1.6-1.7 3.1-3.5 4.5-5.4.3-.4.3-1 0-1.4-.4-.5-1.2-.7-1.7-.3-1.9 1.4-3.7 2.9-5.4 4.5-1.3 1-2.5 2.2-3.7 3.3l-3.6-3.4c-1.8-1.6-3.5-3.1-5.5-4.5-.4-.3-1-.3-1.4 0-.5.4-.7 1.2-.3 1.7 1.4 1.9 2.9 3.7 4.5 5.4 1.1 1.3 2.3 2.5 3.4 3.7-1.2 1.2-2.3 2.4-3.4 3.6-1.6 1.7-3.1 3.5-4.5 5.4-.3.4-.3 1 0 1.5.4.5 1.2.6 1.7.2 1.9-1.4 3.7-2.9 5.4-4.5l3.6-3.4c1.2 1.2 2.4 2.3 3.6 3.4 1.7 1.6 3.5 3.1 5.4 4.5.4.3 1 .3 1.5 0 .5-.4.6-1.2.2-1.7-1.3-1.8-2.8-3.6-4.3-5.4z"/></svg>