<!-- Generator: Adobe Illustrator 22.1.0, SVG Export Plug-In  -->
<svg version="1.1"
	 xmlns="http://www.w3.org/2000/svg" xmlns:xlink="http://www.w3.org/1999/xlink" xmlns:a="http://ns.adobe.com/AdobeSVGViewerExtensions/3.0/"
	 x="0px" y="0px" width="313.9px" height="313.9px" viewBox="0 0 313.9 313.9" style="enable-background:new 0 0 313.9 313.9;"
	 xml:space="preserve">
<style type="text/css">
	.st0{fill:#152630;}
	.st1{fill:#D85653;}
	.st2{fill:#FFFFFF;}
</style>
<defs>
</defs>
<circle class="st0" cx="157" cy="157" r="157"/>
<g>
	<g>
		<path class="st1" d="M140.6,278.3c-0.1,0.6,0,1.4,0.3,2c0.2,0.3,0.7,1.1,2,1.3c1.1,0.1,1.8-0.3,2.2-0.7c0.7-0.8,0.9-1.8,1-2.8
			l1.5-14.2c0.1-0.9,0.2-1.8-0.3-2.6c-0.2-0.4-0.8-1.1-2-1.3c-0.9-0.1-1.8,0.1-2.4,0.7c-0.2,0.3-0.7,0.9-0.8,2.3l-0.1,1l-4.1-0.4
			l0.1-1.2c0.3-2.8,1.5-4.4,2.3-5.1c1-0.9,2.8-1.7,5.6-1.4c2.7,0.3,4.2,1.6,5,2.7c1.3,1.9,1,3.9,0.9,5.3l-1.6,14.9
			c-0.2,1.9-0.7,4-2.7,5.4c-1.4,1-3.4,1.3-4.9,1.2c-1.7-0.2-3.7-1.1-4.8-2.4c-0.9-1.1-1.6-3-1.3-5l0.2-2l4,0.4L140.6,278.3z"/>
		<path class="st1" d="M128.4,275.1c-0.6,2.1-1.4,4.1-3.9,5.3c-1.5,0.7-3.4,0.9-5.4,0.3c-2.1-0.6-3.5-1.8-4.3-3.3
			c-1.4-2.4-0.9-4.4-0.3-6.5l4-13.2c0.6-2.1,1.4-4.1,3.9-5.3c1.5-0.7,3.4-0.9,5.4-0.3c2.1,0.6,3.5,1.8,4.3,3.3
			c1.4,2.4,0.9,4.4,0.3,6.5L128.4,275.1z M118.3,272.7c-0.3,0.8-0.4,1.7,0.1,2.7c0.3,0.6,0.9,1.1,1.9,1.4c1,0.3,1.8,0.2,2.4-0.1
			c1-0.5,1.3-1.3,1.6-2.2l4.4-14.3c0.3-0.8,0.4-1.7-0.1-2.7c-0.3-0.6-0.9-1.1-1.9-1.4c-1-0.3-1.8-0.2-2.4,0.1
			c-1,0.5-1.3,1.3-1.6,2.2L118.3,272.7z"/>
		<path class="st1" d="M99.1,272.3l2.5-19.3L93,269l-3.6-2l13.7-25.5l3.6,2l-2.5,19.3l8.6-16.1l3.6,2l-13.7,25.5L99.1,272.3z"/>
		<path class="st1" d="M77.3,258.4l6.3-18.4L72,254l-3.2-2.6l18.5-22.3l3.2,2.6l-6.3,18.4l11.6-14l3.2,2.6l-18.5,22.3L77.3,258.4z"
			/>
		<path class="st1" d="M61.7,244.1l-7.9-9.4l3-2.5l5.2,6.3l6.5-5.5l-4.6-5.5l2.9-2.4l4.6,5.5l6.8-5.7l-5.3-6.4l3-2.5l8,9.5
			L61.7,244.1z"/>
		<path class="st1" d="M49.3,215.3c-0.5,0.3-1.1,0.8-1.4,1.4c-0.1,0.3-0.5,1.2,0.2,2.4c0.5,0.9,1.3,1.3,1.9,1.4c1,0.2,2-0.3,2.8-0.8
			l12.4-7.1c0.8-0.5,1.6-0.9,2-1.7c0.2-0.5,0.4-1.3-0.2-2.3c-0.5-0.8-1.2-1.4-2-1.5c-0.4,0-1.1,0-2.3,0.7l-0.9,0.5l-2.1-3.6l1-0.6
			c2.5-1.4,4.4-1.4,5.5-1.1c1.3,0.3,3,1.3,4.4,3.7c1.4,2.4,1.2,4.3,0.7,5.6c-0.8,2.2-2.5,3.1-3.8,3.9l-13,7.5c-1.7,0.9-3.6,1.8-6,1
			c-1.6-0.5-3.1-1.9-3.8-3.2c-0.9-1.5-1.3-3.6-0.9-5.3c0.4-1.4,1.5-3,3.2-4l1.7-1l2,3.5L49.3,215.3z"/>
		<path class="st1" d="M33,193.4l3.7-1.3l1.7,4.8l23.6-8.4l1.4,3.9l-23.6,8.4l1.7,4.8l-3.7,1.3L33,193.4z"/>
		<path class="st1" d="M30.3,181.3l28.4-5.9l0.8,4.1l-28.4,5.9L30.3,181.3z"/>
		<path class="st1" d="M28.4,167.9l17.8-8L28,161l-0.2-4.1l28.9-1.7l0.2,4.1l-17.8,8l18.2-1l0.2,4.1L28.6,172L28.4,167.9z"/>
		<path class="st1" d="M56.3,138.9c0.9,0.7,1.4,1.6,1.7,2.2c0.5,1.3,0.4,2.6,0.3,3.3c-0.2,1.5-0.8,3.2-2.7,4.3
			c-1.8,1.1-3.9,1-5.2,0.8l-14.5-2c-1.7-0.2-3.5-0.6-5.1-2.1c-2.1-2-2.1-4.6-1.9-6.2c0.3-2.1,1.2-3.8,2.5-4.8c1.3-1,3.2-1.7,5.9-1.3
			l1.1,0.2l-0.6,4.1l-1.4-0.2c-0.7-0.1-1.6-0.1-2.5,0.5c-0.5,0.4-1,1-1.1,2.1c-0.1,1.1,0.2,1.9,0.7,2.4c0.8,0.9,1.9,1.1,2.9,1.2
			l13.5,1.8c0.9,0.1,2.1,0.2,3.1-0.3c0.7-0.4,1.2-1.2,1.3-2.2c0.1-0.9-0.2-1.9-0.8-2.5c-0.8-0.9-2.2-1.1-3.3-1.2l-3.9-0.5l-0.5,3.5
			l-3.7-0.5l1-7.6l15.7,2.1l-0.3,2.1L56.3,138.9z"/>
		<path class="st1" d="M37,109.1l5.1-11.2l3.6,1.6l-3.4,7.4l7.8,3.5l3-6.6l3.4,1.5l-3,6.6l8.1,3.6l3.4-7.6l3.6,1.6L63.5,121
			L37,109.1z"/>
		<path class="st1" d="M75.6,98.8l-2.1,3L46.2,90.4l2.6-3.8l18.4,8.6l0.1-0.1L52.8,80.8l2.5-3.6L75.6,98.8z"/>
		<path class="st1" d="M61,70.5l8.6-8.8l2.8,2.8l-5.7,5.8l6.1,6l5.1-5.1l2.7,2.6L75.5,79l6.3,6.2l5.8-5.9l2.8,2.8l-8.7,8.9L61,70.5z
			"/>
		<path class="st1" d="M80.5,53l16.1,11l-10.4-15l3.4-2.4l16.6,23.8l-3.4,2.4l-16.1-11l10.4,15l-3.4,2.4L77.1,55.4L80.5,53z"/>
		<path class="st1" d="M110.9,36.2l1.6,3.6l-4.7,2.1l10.2,22.9l-3.8,1.7L104,43.6l-4.7,2.1l-1.6-3.6L110.9,36.2z"/>
		<path class="st1" d="M133.5,37.7c-0.3-2.2-0.4-4.3,1.3-6.4c1.1-1.3,2.7-2.2,4.8-2.5c2.1-0.3,3.9,0.2,5.3,1.2
			c2.2,1.6,2.7,3.7,3,5.8l1.8,13.6c0.3,2.2,0.4,4.3-1.3,6.4c-1.1,1.3-2.7,2.2-4.8,2.5c-2.1,0.3-3.9-0.2-5.3-1.2
			c-2.2-1.6-2.7-3.7-3-5.8L133.5,37.7z M143.7,35.7c-0.1-0.9-0.3-1.7-1.2-2.4c-0.5-0.4-1.3-0.7-2.3-0.5c-1,0.1-1.7,0.6-2.1,1.1
			c-0.7,0.9-0.6,1.8-0.5,2.6l2,14.9c0.1,0.9,0.3,1.7,1.2,2.4c0.5,0.4,1.3,0.7,2.3,0.5s1.7-0.6,2.1-1.1c0.7-0.9,0.6-1.8,0.5-2.6
			L143.7,35.7z"/>
		<path class="st1" d="M162.4,28.1c2.1,0.1,5.2,0.1,7,2.6c0.9,1.2,1.4,3,1.3,5.1l-0.1,2.2c-0.1,1.9-0.8,3.6-1.8,4.5
			c-0.7,0.7-1.5,1.1-2.3,1.4l3.9,13.6l-4.3-0.2l-3.4-12.7l-2.4-0.1L159.6,57l-4.1-0.2l1.5-29L162.4,28.1z M160.5,40.8l2.4,0.1
			c0.9,0,1.8-0.1,2.6-0.8c0.9-0.7,0.9-1.4,1-2.6l0.1-2.1c0.1-1.1-0.3-2.1-0.8-2.7c-0.8-0.9-1.8-0.8-2.7-0.9l-2.2-0.1L160.5,40.8z"/>
		<path class="st1" d="M185.4,58.7c-0.8,0.9-1.7,1.2-2.4,1.4c-1.3,0.4-2.6,0.1-3.3-0.1c-1.4-0.4-3-1.1-4-3.1c-0.9-1.9-0.6-4-0.2-5.3
			l3.5-14.2c0.4-1.7,0.9-3.4,2.6-4.8c2.2-1.9,4.8-1.6,6.3-1.3c2.1,0.5,3.7,1.6,4.5,3c0.8,1.4,1.3,3.4,0.7,6l-0.3,1.1l-4-1l0.3-1.4
			c0.2-0.7,0.3-1.6-0.2-2.5c-0.3-0.5-0.9-1.1-2-1.3c-1-0.3-1.9,0-2.5,0.5c-1,0.7-1.2,1.8-1.5,2.8l-3.2,13.2c-0.2,0.8-0.5,2.1,0,3.1
			c0.3,0.7,1,1.3,2,1.6c0.8,0.2,1.9,0,2.6-0.6c1-0.7,1.3-2.1,1.5-3.1l0.9-3.8l-3.4-0.8l0.9-3.6l7.4,1.8l-3.8,15.4l-2-0.5L185.4,58.7
			z"/>
		<path class="st1" d="M202.4,67.8l1.4-6.2l-4.8-2.2l-3.8,5.1l-3.8-1.7L209.3,39l3.3,1.5l-6.4,29L202.4,67.8z M207.5,47.1l-6.6,9.1
			l4,1.8L207.5,47.1z"/>
		<path class="st1" d="M229.7,50.4l-5.1,18.8l10.7-14.8l3.4,2.4l-17,23.5l-3.4-2.4l5.1-18.8l-10.7,14.8l-3.4-2.4l17-23.5L229.7,50.4
			z"/>
		<path class="st1" d="M248.6,66.2L228.4,87l-3-2.9l20.3-20.7L248.6,66.2z"/>
		<path class="st1" d="M262.6,82.7l-2.5,2l-22.8,6.7l5.2,6.7l-2.9,2.3l-7.9-10.1l2.9-2.2l22.3-6.6l-4.9-6.2l2.9-2.3L262.6,82.7z"/>
		<path class="st1" d="M267.7,90.7l5.9,10.8l-3.5,1.9l-3.9-7.2l-7.5,4.1l3.4,6.3l-3.3,1.8l-3.4-6.3l-7.8,4.2l3.9,7.3l-3.5,1.9
			l-5.9-10.9L267.7,90.7z"/>
		<path class="st1" d="M279.1,115.4c0.7,2,1.7,4.9,0.1,7.5c-0.8,1.3-2.3,2.4-4.3,3l-2.1,0.7c-1.8,0.6-3.6,0.5-4.8,0
			c-0.9-0.4-1.6-1-2.1-1.6l-11.3,8.5l-1.3-4.1l10.6-7.7l-0.8-2.3l-11.9,3.9l-1.3-3.9l27.5-9L279.1,115.4z M266.6,118.2l0.7,2.2
			c0.3,0.9,0.8,1.6,1.7,2.1c1,0.5,1.7,0.4,2.8,0l2-0.6c1.1-0.3,1.9-1.1,2.2-1.7c0.5-1,0.1-2-0.1-2.8l-0.7-2L266.6,118.2z"/>
		<path class="st1" d="M278,143.9c0.6-0.1,1.8-0.3,2.5-1c0.4-0.4,0.8-1.1,0.7-2.3c-0.1-0.6-0.3-1.3-1-1.9c-0.9-0.7-2.1-0.6-3-0.5
			c-0.8,0.1-2.2,0.4-2.9,1.1c-0.6,0.5-0.9,1.4-1,2.1l-0.6,2.6c-0.3,1.3-0.6,2.8-2,4.1c-1.4,1.3-3,1.6-4.8,1.9l-1,0.1
			c-2.9,0.4-5.2-0.1-6.6-1.1c-1.2-0.9-2.3-2.7-2.6-5.1c-0.4-2.9,0.6-5,1.8-6.1c1.6-1.5,4.3-1.9,4.7-2l0.9-0.1l0.5,4.1l-0.8,0.1
			c-0.7,0.1-1.8,0.3-2.5,1c-0.8,0.8-0.7,1.8-0.6,2.4c0.2,1.6,0.9,2.2,1.4,2.5c0.9,0.5,2.1,0.4,2.9,0.3l1.1-0.1c1-0.1,2.2-0.4,2.9-1
			c0.7-0.6,0.9-1.7,1-2.1l0.7-3.1c0.3-1.5,0.9-3.1,2.7-4.2c1.2-0.7,2.7-1,4.1-1.2l0.8-0.1c2.4-0.3,4.3,0.4,5.6,1.4
			c1.5,1.2,2.2,2.8,2.4,4.7c0.5,4.1-1.8,7.2-6.5,7.8l-0.9,0.1l-0.5-4.1L278,143.9z"/>
		<path class="st1" d="M285,174.1l-18.2-1.1l0,0.2l17.1,6.7l-0.6,3.1l-18.4-0.1l0,0.2l17.3,5.6l-0.8,4.3l-27.6-9.9l0.7-3.7l19,0.3
			l0.1-0.3l-17.8-6.8l0.7-3.7l29.3,1L285,174.1z"/>
		<path class="st1" d="M276.6,205.3l-27.1-10.4l1.5-3.9l27.1,10.4L276.6,205.3z"/>
		<path class="st1" d="M266.5,225.5l-3.4-1.9l2.5-4.5L243.5,207l2-3.6l21.9,12.1l2.5-4.5l3.4,1.9L266.5,225.5z"/>
		<path class="st1" d="M258.7,236.3l-9.7-7.9l-3.5,4.3l9.7,7.9l-2.6,3.2L230,225.5l2.6-3.2l9.9,8.1l3.5-4.3l-9.9-8.1l2.6-3.2
			l22.5,18.3L258.7,236.3z"/>
		<path class="st1" d="M209.8,241.9l4.6,4.4l4.4-3l-2.4-5.9l3.4-2.3l11.1,27.5l-3,2.1l-21.6-20.4L209.8,241.9z M225,256.9l-4.4-10.3
			l-3.6,2.5L225,256.9z"/>
		<path class="st1" d="M210.7,274.3l-13.5-14.1l7.2,16.8l-3.8,1.6l-11.4-26.7l3.8-1.6l13.5,14.1l-7.1-16.8l3.8-1.6l11.4,26.7
			L210.7,274.3z"/>
		<path class="st1" d="M181.1,258.7l-1.1-4.4l4.4-1.1l1.1,4.4L181.1,258.7z"/>
		<path class="st1" d="M171.3,260.5l-0.7-4.5l4.5-0.7l0.7,4.5L171.3,260.5z"/>
		<path class="st1" d="M161.4,261.4l-0.3-4.5l4.5-0.3l0.3,4.5L161.4,261.4z"/>
	</g>
</g>
<g>
	<g>
		<path class="st1" d="M79.2,128.2l22.3,7.7l-1.1,3.2l-22.3-7.7L79.2,128.2z"/>
		<path class="st1" d="M84.2,117.3l15.6,2.7L87,112.4l1.7-2.9l20.3,12l-1.7,2.9l-15.6-2.7l12.8,7.6l-1.7,2.9l-20.3-12L84.2,117.3z"
			/>
		<path class="st1" d="M104.1,100.2c-0.3-0.3-0.9-0.7-1.4-0.8c-0.3,0-1.1-0.1-1.8,0.6c-0.6,0.6-0.7,1.3-0.7,1.8
			c0.1,0.9,0.7,1.5,1.2,2.1l8.2,8.3c0.5,0.6,1,1.1,1.8,1.2c0.4,0.1,1.1,0.1,1.8-0.6c0.5-0.5,0.9-1.2,0.8-1.9c0-0.3-0.2-0.9-1-1.7
			l-0.6-0.6l2.4-2.4l0.7,0.7c1.6,1.7,2,3.2,2,4.1c0,1-0.4,2.6-2,4.2c-1.6,1.6-3.1,1.8-4.3,1.7c-1.9-0.1-3-1.3-3.8-2.2l-8.6-8.7
			c-1.1-1.1-2.2-2.5-2-4.5c0.1-1.4,0.9-2.8,1.8-3.7c1-1,2.6-1.8,4-1.8c1.2,0,2.7,0.5,3.8,1.7l1.1,1.1l-2.3,2.3L104.1,100.2z"/>
		<path class="st1" d="M109.8,88.7l8.5-5.2l1.7,2.7l-5.7,3.5l3.6,5.9l5-3.1l1.6,2.6l-5,3.1l3.8,6.2l5.8-3.5l1.7,2.7l-8.6,5.3
			L109.8,88.7z"/>
		<path class="st1" d="M129.9,78.6l9.7,12.5l-4.4-14.2l3.2-1l6.9,22.6l-3.2,1l-9.7-12.5l4.4,14.2l-3.2,1l-6.9-22.6L129.9,78.6z"/>
		<path class="st1" d="M159,73.9l0.1,3.2l-4.2,0.2l0.9,20.4l-3.4,0.2l-0.9-20.4l-4.2,0.2l-0.1-3.2L159,73.9z"/>
		<path class="st1" d="M169.9,75.1l-3.2,23.4l-3.3-0.5l3.2-23.4L169.9,75.1z"/>
		<path class="st1" d="M177.3,101.3l-2.8-1l2.8-24l3.5,1.2l-2.6,16.3l0.1,0l7.9-14.5l3.4,1.1L177.3,101.3z"/>
		<path class="st1" d="M199.3,85.7l-11.7,20.5l-2.9-1.7L196.4,84L199.3,85.7z"/>
		<path class="st1" d="M208.6,99.9c0.3-0.4,0.9-1.2,1-2c0-0.5-0.1-1.1-0.9-1.7c-0.4-0.3-0.9-0.6-1.7-0.6c-0.9,0.1-1.6,0.8-2.1,1.4
			c-0.4,0.5-1.1,1.5-1.2,2.2c-0.1,0.7,0.2,1.3,0.5,1.8l1.1,1.9c0.5,0.9,1.1,2,1,3.5c-0.1,1.5-0.9,2.6-1.9,3.8l-0.5,0.6
			c-1.6,1.8-3.2,2.8-4.6,2.9c-1.3,0.1-2.9-0.4-4.3-1.7c-1.8-1.6-2.4-3.3-2.3-4.6c0.1-1.8,1.6-3.5,1.8-3.7l0.5-0.6l2.6,2.2l-0.4,0.5
			c-0.3,0.4-0.9,1.2-0.9,1.9c0,0.9,0.6,1.5,0.9,1.8c1,0.8,1.7,0.8,2.2,0.7c0.8-0.2,1.5-0.9,1.9-1.4l0.6-0.7c0.5-0.6,1.1-1.5,1.2-2.2
			s-0.4-1.5-0.6-1.8l-1.3-2.3c-0.6-1.1-1.2-2.4-0.7-4c0.3-1.1,1.1-2,1.8-2.9l0.4-0.5c1.3-1.5,2.8-2.1,4.2-2.2c1.5-0.1,2.9,0.5,4,1.5
			c2.6,2.2,2.9,5.3,0.3,8.3l-0.5,0.6l-2.6-2.2L208.6,99.9z"/>
		<path class="st1" d="M221.1,104.3l5.9,8.1l-2.6,1.9l-3.9-5.4l-5.6,4.1l3.5,4.7l-2.4,1.8l-3.5-4.7l-5.8,4.3l4,5.4l-2.6,1.9l-6-8.2
			L221.1,104.3z"/>
		<path class="st1" d="M233.2,124.4c0.5,1.3,1.2,3.2,0.6,5.1c-0.8,2.2-3.1,3.2-4,3.6l-9.6,4c-1.5,0.6-3.2,1.1-5,0.4
			c-2.1-0.8-3-2.5-3.5-3.7l-1.9-4.6l21.8-9L233.2,124.4z M214,131.1l0.6,1.4c0.3,0.7,0.7,1.4,1.6,1.8c1,0.4,2.1,0,2.9-0.3l9.7-4
			c0.6-0.3,1.4-0.7,1.8-1.4c0.5-0.9,0.2-1.5-0.1-2.3l-0.7-1.6L214,131.1z"/>
	</g>
</g>
<g>
	<g>
		<path class="st1" d="M221.6,199.8c0.4,0.2,1,0.5,1.5,0.4c0.3,0,1.1-0.1,1.6-1c0.5-0.7,0.4-1.4,0.3-1.9c-0.3-0.8-1-1.3-1.7-1.7
			l-9.9-6.1c-0.7-0.4-1.3-0.8-2-0.7c-0.4,0-1.1,0.2-1.6,1c-0.4,0.6-0.6,1.4-0.3,2c0.1,0.3,0.4,0.8,1.4,1.4l0.7,0.4l-1.8,2.9L209,196
			c-2-1.2-2.7-2.6-2.9-3.5c-0.3-1-0.2-2.6,1-4.6c1.2-1.9,2.6-2.5,3.8-2.7c1.8-0.3,3.2,0.6,4.2,1.2l10.4,6.4c1.3,0.8,2.7,1.9,3,3.9
			c0.3,1.4-0.2,2.9-0.8,4c-0.7,1.2-2.1,2.3-3.4,2.7c-1.2,0.3-2.7,0.1-4.1-0.8l-1.4-0.9l1.7-2.8L221.6,199.8z"/>
		<path class="st1" d="M214.3,208.2c1.2,1.3,2.3,2.6,2.2,4.8c-0.1,1.4-0.7,2.8-1.9,4s-2.7,1.8-4,1.8c-2.2,0-3.5-1.1-4.7-2.4
			l-7.8-8.1c-1.2-1.3-2.3-2.6-2.2-4.8c0.1-1.4,0.7-2.8,1.9-4c1.3-1.2,2.7-1.8,4-1.8c2.2,0,3.5,1.1,4.7,2.4L214.3,208.2z
			 M208.6,214.4c0.5,0.5,1,1,1.9,1c0.5,0,1.2-0.2,1.8-0.8s0.8-1.2,0.8-1.7c0-0.9-0.4-1.5-0.9-2l-8.5-8.8c-0.5-0.5-1-1-1.9-1
			c-0.5,0-1.2,0.2-1.8,0.8c-0.6,0.6-0.8,1.2-0.8,1.7c0,0.9,0.4,1.5,0.9,2L208.6,214.4z"/>
		<path class="st1" d="M202,227l-3,1.5l-10.1-9.4l-0.1,0.1l2,13.6l-3,1.5l-10.8-21l3-1.5l6.8,13.1l0.1-0.1l-1.7-11.1l1.6-0.8l8,7.8
			l0.2-0.1l-6.8-13.1l3-1.5L202,227z"/>
		<path class="st1" d="M177.3,237.7l-3.3,0.5l-6.5-12.2l-0.1,0l-2.4,13.5l-3.3,0.5l-3.5-23.3l3.3-0.5l2.2,14.6l0.2,0l1.9-11.1
			l1.8-0.3l5.1,10l0.2,0l-2.2-14.6l3.3-0.5L177.3,237.7z"/>
		<path class="st1" d="M147.9,239.3l2.4-17.7c0.2-1.6-0.4-2.8-1.9-3c-1.5-0.2-2.4,0.8-2.6,2.4l-2.4,17.7l-3.3-0.5l2.4-17.2
			c0.7-5.1,4-6.1,6.5-5.7c2.5,0.3,5.4,2.1,4.7,7.2l-2.4,17.2L147.9,239.3z"/>
		<path class="st1" d="M127.5,234.5l0.5-15.9l-5.7,13.7l-3.1-1.3l9.1-21.8l3.1,1.3l-0.5,15.9l5.7-13.7l3.1,1.3l-9.1,21.8
			L127.5,234.5z"/>
		<path class="st1" d="M109,224.5l13.3-19.5l2.8,1.9l-13.3,19.5L109,224.5z"/>
		<path class="st1" d="M94.5,211.7l2.3-2.3l3,2.9l14.3-14.5l2.4,2.4l-14.3,14.5l3,2.9l-2.3,2.3L94.5,211.7z"/>
		<path class="st1" d="M96.9,191.4l8.5-5.2l1.7,2.9l-8.6,5.2l-9,11.3l-1.9-3.2l6.5-7.4l-0.1-0.2l-9.5,2.4l-1.9-3.1L96.9,191.4z"/>
	</g>
</g>
<g>
	<path id="XMLID_9_" class="st2" d="M150.7,160.2c1.8,1.1,3.1,2.7,4,4.8c0.3,0.6,0.5,1.2,0.6,1.9c0.1,0.7,0.2,1.4,0.2,2.2
		c0,2.6-0.7,4.7-2,6.4c-1.4,1.7-3.3,3-6,3.9c-1.6,0.6-3.6,0.8-5.8,0.8h-16.8c-0.5,0-0.9-0.2-1.3-0.6c-0.4-0.4-0.6-0.8-0.6-1.3v-3.8
		c0-0.5,0.2-1,0.6-1.3c0.4-0.4,0.8-0.6,1.3-0.6H142c2,0,3.5-0.4,4.5-1.1c0.8-0.7,1.3-1.6,1.3-2.8c0-1.2-0.4-2.2-1.3-3
		c-1.1-0.9-2.8-1.4-4.9-1.4h-16.8c-0.5,0-0.9-0.2-1.3-0.6c-0.4-0.4-0.6-0.8-0.6-1.3v-3.6c0-0.5,0.2-0.9,0.6-1.3
		c0.4-0.4,0.8-0.6,1.3-0.6h15.8c0.8,0,1.6-0.1,2.1-0.2c0.6-0.1,1.1-0.3,1.4-0.6c0.4-0.2,0.7-0.5,0.9-0.8c0.2-0.3,0.4-0.5,0.5-0.8
		c0.2-0.5,0.4-1.1,0.4-1.7c0-0.6-0.1-1.2-0.3-1.7c-0.1-0.4-0.4-0.8-0.7-1.2c-0.4-0.5-0.9-0.8-1.6-1c-0.6-0.2-1.4-0.3-2.3-0.3h-16.3
		c-0.5,0-0.9-0.2-1.3-0.6c-0.4-0.4-0.6-0.8-0.6-1.3v-3.8c0-0.5,0.2-0.9,0.6-1.3c0.4-0.4,0.8-0.6,1.3-0.6h15.8c4.4,0,7.7,1.2,10,3.7
		c2,2,3,4.5,3,7.5C153.6,155.7,152.6,158.3,150.7,160.2z"/>
	<path id="XMLID_1_" class="st2" d="M189.1,141.3c0.5,0,0.9,0.2,1.3,0.6c0.4,0.4,0.6,0.8,0.6,1.3v3.8c0,0.5-0.2,1-0.6,1.3
		c-0.4,0.4-0.8,0.6-1.3,0.6h-5.4c-0.5,0-1-0.2-1.3-0.6c-0.4-0.4-0.6-0.8-0.6-1.3v-3.8c0-0.5,0.2-1,0.6-1.3c0.4-0.4,0.8-0.6,1.3-0.6
		H189.1z M176.7,141.3c0.5,0,1,0.2,1.3,0.6c0.4,0.4,0.6,0.8,0.6,1.3v35.6c0,0.5-0.2,0.9-0.6,1.3c-0.4,0.4-0.8,0.6-1.3,0.6h-4.1
		c-0.5,0-0.9-0.2-1.3-0.6c-0.4-0.4-0.6-0.8-0.6-1.3v-29.9h-10.6c-0.5,0-0.9-0.2-1.3-0.6c-0.4-0.4-0.6-0.8-0.6-1.3v-3.8
		c0-0.5,0.2-1,0.6-1.3c0.4-0.4,0.8-0.6,1.3-0.6H176.7z"/>
</g>
<g>
	<path class="st1" d="M79,157.3c0.5,0,1.3,0,2,0.5c1,0.7,1,1.8,1,2.4c0,0.7-0.1,1.2-0.5,1.6c-0.2,0.2-0.4,0.4-0.6,0.5
		c0.4,0.2,0.6,0.4,0.7,0.7c0.3,0.5,0.3,0.8,0.3,1.3v0.8c0,0.4,0,1.5-0.9,2.2c-0.3,0.3-0.9,0.5-1.8,0.5H77v-10.6H79z M78.5,161.7h0.7
		c0.5,0,0.8-0.2,1-0.4c0.2-0.2,0.3-0.6,0.3-0.9v-0.6c0-0.3-0.1-0.5-0.3-0.7c-0.2-0.2-0.5-0.3-1-0.3h-0.7V161.7z M78.5,166.5h0.7
		c0.2,0,0.7,0,1-0.5c0.3-0.3,0.3-0.9,0.3-1.1v-0.5c0-0.5-0.1-0.9-0.4-1.2c-0.2-0.2-0.5-0.3-0.8-0.3h-0.8V166.5z"/>
	<path class="st1" d="M85.8,157.3v9.1H89v1.4h-4.7v-10.6H85.8z"/>
	<path class="st1" d="M92.6,157.3v5.1l2.4-5.1h1.6l-2.1,4.3l2.5,6.2h-1.6l-1.8-4.7l-0.9,1.6v3.1h-1.5v-10.6H92.6z"/>
</g>
<g>
	<path class="st1" d="M222.7,157.3v1.4h-1.9v9.1h-1.5v-9.1h-1.9v-1.4H222.7z"/>
	<path class="st1" d="M226.3,157.3v10.6h-1.5v-10.6H226.3z"/>
	<path class="st1" d="M230.1,157.3l1.2,3.3l1.2-3.3h1.7l-2.1,5l2.3,5.6h-1.6l-1.5-3.8l-1.4,3.8h-1.7l2.3-5.6l-2-5H230.1z"/>
</g>
</svg>
