<svg xmlns="http://www.w3.org/2000/svg" width="29.6" height="57.5" viewBox="0 0 29.6 57.5"><style type="text/css">.st0{fill:#152630;} .st1{opacity:9.000000e-02;fill:#152630;enable-background:new ;}</style><path class="st0" d="M8 39.7l1.6-1.6 1.5-1.6 1.5-1.7c.5-.6 1-1.2 1.4-1.8.2-.2.2-.6 0-.9-.2-.3-.7-.4-1-.2l-1.8 1.4-1.7 1.5-1.5 1.5c.1-2.3.2-4.7.2-7 .1-3.2.1-6.4.1-9.5 0-6.4-.2-12.8-.5-19.2 0-.3-.3-.6-.6-.6s-.7.3-.7.6c-.3 6.4-.5 12.7-.5 19.2 0 3.2 0 6.4.1 9.5l.2 7.1-1.6-1.5-1.7-1.6c-.6-.5-1.2-1-1.8-1.4-.3-.2-.6-.2-.9 0-.3.2-.4.7-.2 1 .5.6 1 1.2 1.4 1.8l1.5 1.7 1.5 1.7 1.5 1.6.1.1c.6.4 1.4.4 1.9-.1z"/><path class="st1" d="M23.3 57.1l1.6-1.6 1.5-1.6 1.5-1.7c.5-.6 1-1.2 1.4-1.8.2-.2.2-.6 0-.9-.2-.3-.7-.4-1-.2l-1.8 1.4-1.7 1.5-1.6 1.5c.1-2.3.2-4.7.2-7 .1-3.2.1-6.4.1-9.5 0-6.4-.1-12.7-.5-19.1 0-.3-.3-.6-.6-.6s-.7.3-.7.6c-.3 6.4-.5 12.7-.5 19.1 0 3.2 0 6.4.1 9.5l.2 7.1-1.5-1.5-1.7-1.5c-.6-.5-1.2-1-1.8-1.4-.3-.2-.6-.2-.9 0-.3.2-.4.7-.2 1 .5.6 1 1.2 1.4 1.8l1.5 1.7 1.5 1.7 1.5 1.6.1.1c.6.3 1.4.3 1.9-.2z"/></svg>