<svg xmlns="http://www.w3.org/2000/svg" width="78.6" height="33.4" viewBox="0 0 78.6 33.4"><style type="text/css">.st0{fill:#152630;} .st1{opacity:9.000000e-02;fill:#152630;}</style><path class="st0" d="M70 11c-1-1-2-1.9-2.9-2.9l-2.9-2.7-3-2.7c-1-.9-2.1-1.7-3.2-2.5-.4-.3-1.1-.3-1.5 0-.6.4-.7 1.2-.3 1.8l2.5 3.2 2.7 3 2.7 2.9c-4.1-.2-8.3-.3-12.4-.4-5.6-.1-11.2-.2-16.8-.1-11.2 0-22.4.2-33.7.8-.6 0-1.1.5-1.1 1.1 0 .6.5 1.2 1.1 1.2 11.2.6 22.4.8 33.7.8 5.6 0 11.2 0 16.8-.1 4.2-.1 8.3-.2 12.5-.4l-2.7 2.9-2.7 3c-.9 1-1.7 2.1-2.5 3.1-.3.5-.4 1.1 0 1.6.4.6 1.2.7 1.8.3 1.1-.8 2.1-1.7 3.1-2.5l3-2.7 3-2.7 2.8-2.7.1-.1c.7-.9.7-2.3-.1-3.2z"/><path class="st1" d="M78 19.3c-1-1-2-1.9-2.9-2.9l-2.9-2.7-3-2.7c-1-.9-2.1-1.7-3.2-2.5-.4-.3-1.1-.3-1.5 0-.6.4-.7 1.2-.3 1.8l2.5 3.2 2.7 3 2.7 2.9c-4.1-.2-8.3-.3-12.4-.4-5.6-.1-11.2-.2-16.8-.1-11.2 0-22.4.2-33.7.8-.6 0-1.1.5-1.1 1.1 0 .6.5 1.2 1.1 1.2 11.2.6 22.4.8 33.7.8 5.6 0 11.2 0 16.8-.1 4.2-.1 8.3-.2 12.5-.4l-2.7 2.9-2.7 3c-.9 1-1.7 2.1-2.5 3.1-.3.5-.4 1.1 0 1.6.4.6 1.2.7 1.8.3 1.1-.8 2.1-1.7 3.1-2.5l3-2.7 3-2.7 2.8-2.7.1-.1c.7-.9.7-2.3-.1-3.2z"/></svg>