<svg fill="#d85653" height="1.8" viewBox="0 0 1769.4 1.8" width="1769.4" xmlns="http://www.w3.org/2000/svg"> <circle cx="658.8" cy=".9" r=".9"/> <circle cx="662.6" cy=".9" r=".9"/> <circle cx="666.5" cy=".9" r=".9"/> <circle cx="670.3" cy=".9" r=".9"/> <circle cx="674.2" cy=".9" r=".9"/> <circle cx="678" cy=".9" r=".9"/> <circle cx="681.8" cy=".9" r=".9"/> <circle cx="685.7" cy=".9" r=".9"/> <circle cx="689.5" cy=".9" r=".9"/> <circle cx="693.3" cy=".9" r=".9"/> <circle cx="697.2" cy=".9" r=".9"/> <circle cx="701" cy=".9" r=".9"/> <circle cx="704.8" cy=".9" r=".9"/> <circle cx="708.7" cy=".9" r=".9"/> <circle cx="712.5" cy=".9" r=".9"/> <circle cx="716.3" cy=".9" r=".9"/> <circle cx="720.2" cy=".9" r=".9"/> <circle cx=".9" cy=".9" r=".9"/> <circle cx="4.7" cy=".9" r=".9"/> <circle cx="8.5" cy=".9" r=".9"/> <circle cx="12.4" cy=".9" r=".9"/> <circle cx="16.2" cy=".9" r=".9"/> <circle cx="20.1" cy=".9" r=".9"/> <circle cx="23.9" cy=".9" r=".9"/> <circle cx="27.7" cy=".9" r=".9"/> <circle cx="31.6" cy=".9" r=".9"/> <circle cx="35.4" cy=".9" r=".9"/> <circle cx="39.2" cy=".9" r=".9"/> <circle cx="43.1" cy=".9" r=".9"/> <circle cx="46.9" cy=".9" r=".9"/> <circle cx="50.7" cy=".9" r=".9"/> <circle cx="54.6" cy=".9" r=".9"/> <circle cx="58.4" cy=".9" r=".9"/> <circle cx="62.2" cy=".9" r=".9"/> <circle cx="521.5" cy=".9" r=".9"/> <circle cx="525.3" cy=".9" r=".9"/> <circle cx="529.1" cy=".9" r=".9"/> <circle cx="533" cy=".9" r=".9"/> <circle cx="536.8" cy=".9" r=".9"/> <circle cx="556.6" cy=".9" r=".9"/> <circle cx="560.5" cy=".9" r=".9"/> <circle cx="564.3" cy=".9" r=".9"/> <circle cx="568.2" cy=".9" r=".9"/> <circle cx="572" cy=".9" r=".9"/> <circle cx="1471.7" cy=".9" r=".9"/> <circle cx="1475.6" cy=".9" r=".9"/> <circle cx="1479.4" cy=".9" r=".9"/> <circle cx="1483.2" cy=".9" r=".9"/> <circle cx="1487.1" cy=".9" r=".9"/> <circle cx="1490.9" cy=".9" r=".9"/> <circle cx="1494.7" cy=".9" r=".9"/> <circle cx="1498.6" cy=".9" r=".9"/> <circle cx="1502.4" cy=".9" r=".9"/> <circle cx="1506.2" cy=".9" r=".9"/> <circle cx="1510.1" cy=".9" r=".9"/> <circle cx="1513.9" cy=".9" r=".9"/> <circle cx="1517.8" cy=".9" r=".9"/> <circle cx="1521.6" cy=".9" r=".9"/> <circle cx="1525.4" cy=".9" r=".9"/> <circle cx="1529.3" cy=".9" r=".9"/> <circle cx="1533.1" cy=".9" r=".9"/> <circle cx="813.8" cy=".9" r=".9"/> <circle cx="817.6" cy=".9" r=".9"/> <circle cx="821.5" cy=".9" r=".9"/> <circle cx="848.3" cy=".9" r=".9"/> <circle cx="852.1" cy=".9" r=".9"/> <circle cx="856" cy=".9" r=".9"/> <circle cx="859.8" cy=".9" r=".9"/> <circle cx="863.7" cy=".9" r=".9"/> <circle cx="1334.4" cy=".9" r=".9"/> <circle cx="1338.2" cy=".9" r=".9"/> <circle cx="1342.1" cy=".9" r=".9"/> <circle cx="1345.9" cy=".9" r=".9"/> <circle cx="1349.7" cy=".9" r=".9"/> <circle cx="1369.6" cy=".9" r=".9"/> <circle cx="1373.4" cy=".9" r=".9"/> <circle cx="1377.2" cy=".9" r=".9"/> <circle cx="1381.1" cy=".9" r=".9"/> <circle cx="1384.9" cy=".9" r=".9"/> <circle cx="1753.2" cy=".9" r=".9"/> <circle cx="1757.1" cy=".9" r=".9"/> <circle cx="1760.9" cy=".9" r=".9"/> <circle cx="1764.7" cy=".9" r=".9"/> <circle cx="1768.6" cy=".9" r=".9"/></svg>