<!-- Generator: Adobe Illustrator 22.1.0, SVG Export Plug-In  -->
<svg version="1.1"
	 xmlns="http://www.w3.org/2000/svg" xmlns:xlink="http://www.w3.org/1999/xlink" xmlns:a="http://ns.adobe.com/AdobeSVGViewerExtensions/3.0/"
	 x="0px" y="0px" width="87.5px" height="85.5px" viewBox="0 0 87.5 85.5" style="enable-background:new 0 0 87.5 85.5;"
	 xml:space="preserve">
<style type="text/css">
	.st0{fill:#D85653;}
	.st1{fill:#FFFFFF;}
</style>
<defs>
</defs>
<circle class="st0" cx="47" cy="45" r="40.6"/>
<circle class="st1" cx="42" cy="42" r="40.6"/>
<g>
	<path class="st0" d="M42.3,50.9c-1.4-0.1-2.7-0.7-3.5-1.7c-0.6-0.7-0.9-1.8-0.9-3.3v-0.6h2.8v0.5c0,0.6,0.1,1.3,0.5,1.7
		c0.2,0.3,0.7,0.5,1.1,0.6V42l-1.1-0.4c-1.1-0.4-2-0.9-2.7-2.2c-0.4-0.9-0.4-1.9-0.4-2.8v-0.3c0-0.8,0.1-2.4,1.5-3.6
		c0.6-0.6,1.5-1.1,2.7-1.2v-2.2h1.3v2.2c1.4,0.1,2.3,0.7,2.9,1.3c1.1,1.1,1.3,2.6,1.3,3.7v0.6H45v-0.5c0-0.4,0-1.2-0.5-1.8
		c-0.2-0.2-0.5-0.5-0.9-0.6v5.3l0.9,0.3c0.9,0.3,1.9,0.6,2.6,1.7c0.8,1.1,0.9,2.1,0.9,3.3v0.4c0,2.2-0.5,5.2-4.4,5.5v2.2h-1.3V50.9z
		 M42.3,34.4c-0.4,0.1-0.7,0.3-1,0.7c-0.4,0.5-0.4,1.1-0.4,1.7c0,0.7,0.1,1.2,0.5,1.7c0.2,0.3,0.6,0.6,0.9,0.7V34.4z M43.6,48.2
		c0.3-0.1,0.8-0.2,1.1-0.6c0.4-0.5,0.5-1.3,0.5-1.9v-0.4c0-0.5,0-1.4-0.5-2c-0.2-0.3-0.8-0.6-1.1-0.7V48.2z"/>
</g>
<path class="st0" d="M42,83.9c-23.1,0-42-18.8-42-42C0,18.8,18.8,0,42,0c23.1,0,42,18.8,42,42C83.9,65.1,65.1,83.9,42,83.9z M42,2.8
	C20.3,2.8,2.8,20.3,2.8,42c0,21.6,17.6,39.2,39.2,39.2S81.2,63.6,81.2,42C81.2,20.3,63.6,2.8,42,2.8z"/>
<path class="st0" d="M42,83.9c-23.1,0-42-18.8-42-42C0,18.8,18.8,0,42,0c23.1,0,42,18.8,42,42C83.9,65.1,65.1,83.9,42,83.9z M42,2.8
	C20.3,2.8,2.8,20.3,2.8,42c0,21.6,17.6,39.2,39.2,39.2S81.2,63.6,81.2,42C81.2,20.3,63.6,2.8,42,2.8z"/>
<path class="st0" d="M13.9,56.5c-1.9-3.5-3.2-7.4-3.6-11.4c-0.4-4-0.1-8.1,1-12c2.2-7.8,7.5-14.7,14.5-18.8c7-4.2,15.6-5.4,23.6-3.6
	c7.9,1.8,15.1,6.8,19.5,13.7c2.2,3.4,3.8,7.2,4.6,11.2c0.8,4,0.8,8.1,0.1,12.1c-1.4,8-6.1,15.4-12.7,20.1c-3.3,2.4-7,4.2-10.9,5.2
	l-1.5,0.4l-1.5,0.2l-1.5,0.2c-0.5,0.1-1,0.1-1.5,0.1c-2,0.2-4.1,0.1-6.1-0.2c-4-0.5-8-1.8-11.5-3.8c-3.5-2-6.7-4.6-9.3-7.8
	c-0.5-0.6-0.4-1.4,0.2-1.9c0.6-0.5,1.4-0.4,1.9,0.2l0,0l0,0c2.4,2.9,5.3,5.3,8.5,7.2c3.3,1.8,6.9,3,10.6,3.5
	c1.8,0.2,3.7,0.3,5.6,0.2c0.5,0,0.9,0,1.4-0.1l1.4-0.2l1.4-0.2l1.4-0.3c3.6-0.9,7-2.5,10.1-4.7c6-4.4,10.3-11.2,11.6-18.5
	c0.7-3.7,0.6-7.5-0.1-11.1c-0.8-3.6-2.2-7.1-4.3-10.2C62.4,19.6,55.9,15,48.7,13.4c-7.2-1.7-15.1-0.6-21.5,3.2
	c-6.5,3.7-11.4,10-13.5,17.1c-2.2,7.2-1.6,15.2,1.8,22c0.2,0.4,0,0.9-0.4,1.1C14.6,57,14.1,56.9,13.9,56.5z"/>
<path class="st0" d="M40.7,11.3L40,2.3c-0.1-1.1,0.7-2,1.8-2.1c1.1-0.1,2,0.7,2.1,1.8c0,0.1,0,0.2,0,0.3l-0.7,9.1
	c-0.1,0.7-0.6,1.2-1.3,1.1C41.3,12.4,40.8,11.9,40.7,11.3z"/>
<path class="st0" d="M40.7,81.8l0.2-6.3c0-0.5,0.5-1,1-0.9c0.5,0,0.9,0.4,0.9,0.9l0.2,6.3c0,0.7-0.5,1.2-1.2,1.3
	C41.3,83.1,40.8,82.6,40.7,81.8C40.7,81.9,40.7,81.8,40.7,81.8z"/>
<path class="st0" d="M28.6,14.4l-4.3-8c-0.5-0.9-0.1-2.1,0.8-2.6c0.9-0.5,2.1-0.1,2.6,0.8c0,0.1,0.1,0.2,0.1,0.3l3,8.6
	c0.2,0.6-0.1,1.3-0.8,1.6C29.5,15.1,28.9,14.9,28.6,14.4z"/>
<path class="st0" d="M56.7,79l-2.3-5.9c-0.2-0.5,0.1-1.1,0.6-1.3c0.5-0.2,1,0,1.2,0.5l2.7,5.7c0.3,0.6,0,1.3-0.6,1.6
	C57.7,79.9,57,79.7,56.7,79C56.7,79,56.7,79,56.7,79z"/>
<path class="st0" d="M53.1,13.4l3-8.6c0.3-1,1.4-1.5,2.4-1.2C59.5,3.9,60,5,59.7,6c0,0.1-0.1,0.2-0.1,0.3l-4.3,8
	c-0.3,0.6-1.1,0.8-1.6,0.5C53.1,14.6,52.9,14,53.1,13.4z"/>
<path class="st0" d="M25,78l2.7-5.7c0.2-0.5,0.8-0.7,1.3-0.5c0.5,0.2,0.7,0.8,0.5,1.2L27.2,79c-0.2,0.6-1,0.9-1.6,0.7
	C25,79.4,24.7,78.7,25,78C25,78.1,25,78.1,25,78z"/>
<path class="st0" d="M11.3,43.2l-9.1,0.7c-1.1,0.1-2-0.7-2.1-1.8c-0.1-1.1,0.7-2,1.8-2.1c0.1,0,0.2,0,0.3,0l9.1,0.7
	c0.7,0.1,1.2,0.6,1.1,1.3C12.3,42.7,11.9,43.2,11.3,43.2z"/>
<path class="st0" d="M81.7,43.2L75.4,43c-0.5,0-1-0.5-0.9-1c0-0.5,0.4-0.9,0.9-0.9l6.3-0.2c0.7,0,1.2,0.5,1.3,1.2
	C83,42.7,82.5,43.2,81.7,43.2C81.8,43.2,81.7,43.2,81.7,43.2z"/>
<path class="st0" d="M21.1,64.6l-5.9,6.9c-0.7,0.8-1.9,0.9-2.7,0.2c-0.8-0.7-0.9-1.9-0.2-2.7c0.1-0.1,0.1-0.1,0.2-0.2l6.9-5.9
	c0.5-0.4,1.3-0.4,1.7,0.1C21.5,63.5,21.5,64.1,21.1,64.6z"/>
<path class="st0" d="M70.9,14.8l-4.6,4.3c-0.4,0.4-1,0.3-1.4-0.1c-0.4-0.4-0.3-1,0-1.3l4.3-4.6c0.5-0.5,1.2-0.5,1.7-0.1
	C71.4,13.5,71.5,14.2,70.9,14.8C71,14.7,71,14.8,70.9,14.8z"/>
<path class="st0" d="M14.4,55.6l-8,4.3c-0.9,0.5-2.1,0.2-2.6-0.8c-0.5-0.9-0.2-2.1,0.8-2.6c0.1,0,0.2-0.1,0.3-0.1l8.6-3
	c0.6-0.2,1.3,0.1,1.6,0.7C15.2,54.7,14.9,55.3,14.4,55.6z"/>
<path class="st0" d="M78.8,27.1L73,29.4c-0.5,0.2-1.1,0-1.3-0.5c-0.2-0.5,0-1,0.5-1.2l5.6-2.8c0.6-0.3,1.3,0,1.6,0.6
	C79.7,26,79.5,26.7,78.8,27.1C78.9,27,78.8,27,78.8,27.1z"/>
<path class="st0" d="M70.5,53.3l8.6,3c1,0.4,1.5,1.5,1.2,2.5s-1.5,1.5-2.5,1.2c-0.1,0-0.2-0.1-0.3-0.1l-8-4.3
	c-0.6-0.3-0.8-1.1-0.5-1.7C69.3,53.4,69.9,53.1,70.5,53.3z"/>
<path class="st0" d="M6.1,24.8l5.6,2.8c0.5,0.2,0.7,0.8,0.5,1.3c-0.2,0.5-0.8,0.7-1.2,0.5l-5.8-2.3c-0.6-0.2-0.9-1-0.7-1.6
	C4.7,24.8,5.4,24.5,6.1,24.8C6,24.8,6.1,24.8,6.1,24.8z"/>
<path class="st0" d="M19.4,21.2l-6.9-5.9c-0.8-0.7-0.9-1.9-0.2-2.7c0.7-0.8,1.9-0.9,2.7-0.2c0.1,0.1,0.1,0.1,0.2,0.2l5.9,6.9
	c0.4,0.5,0.4,1.3-0.1,1.7C20.5,21.6,19.8,21.6,19.4,21.2z"/>
<path class="st0" d="M69.2,71l-4.3-4.6c-0.4-0.4-0.3-1,0.1-1.4c0.4-0.4,1-0.3,1.3,0l4.6,4.3c0.5,0.5,0.5,1.2,0.1,1.7
	C70.5,71.5,69.8,71.5,69.2,71C69.3,71.1,69.2,71,69.2,71z"/>
</svg>
