<!-- Generator: Adobe Illustrator 22.1.0, SVG Export Plug-In  -->
<svg version="1.1"
	 xmlns="http://www.w3.org/2000/svg" xmlns:xlink="http://www.w3.org/1999/xlink" xmlns:a="http://ns.adobe.com/AdobeSVGViewerExtensions/3.0/"
	 x="0px" y="0px" width="47.1px" height="83.9px" viewBox="0 0 47.1 83.9" style="enable-background:new 0 0 47.1 83.9;"
	 xml:space="preserve">
<style type="text/css">
	.st0{fill:#D85653;}
	.st1{fill:#FFFFFF;}
</style>
<defs>
</defs>
<path class="st0" d="M47.1,79.8V9.6c0-2.2-1.8-4.1-4.1-4.1H10.5c-2.2,0-4.1,1.8-4.1,4.1v70.2c0,2.2,1.8,4.1,4.1,4.1h32.6
	C45.3,83.9,47.1,82,47.1,79.8z"/>
<path class="st1" d="M42.3,75.9V5.6c0-2.2-1.8-4.1-4.1-4.1H5.6c-2.2,0-4.1,1.8-4.1,4.1v70.2c0,2.2,1.8,4.1,4.1,4.1h32.6
	C40.4,79.9,42.3,78.1,42.3,75.9z"/>
<path class="st0" d="M40.9,75.9c0.2-19.3,0.1-38.5,0-57.8l0-7.2l0-3.6l0-0.9l0-0.5c0-0.2,0-0.3,0-0.4c0-0.4-0.1-0.8-0.3-1.1
	c-0.4-0.7-1.1-1.2-1.9-1.4c-0.2,0-0.4,0-0.6,0l-0.9,0l-1.8,0l-7.2,0L13.7,3.1l-7.2,0l-0.9,0c-0.2,0-0.4,0-0.6,0.1
	C4.7,3.3,4.3,3.4,4,3.7C3.5,4.2,3.1,4.9,3.1,5.6L3,63.4l0,7.2l0,3.6l0,0.9l0,0.5c0,0.2,0,0.3,0,0.4c0,0.4,0.1,0.8,0.3,1.1
	c0.4,0.7,1.1,1.2,1.8,1.4c0.2,0,0.3,0,0.6,0.1l0.9,0l1.8,0l7.2,0l14.4,0l7.2,0l0.9,0c0.2,0,0.4,0,0.6-0.1c0.4-0.1,0.8-0.3,1.1-0.5
	C40.5,77.5,40.9,76.7,40.9,75.9z M43.6,75.9c0,1.6-0.8,3.2-2,4.2c-0.6,0.5-1.4,0.9-2.1,1.1c-0.4,0.1-0.8,0.1-1.2,0.2l-0.9,0l-7.2,0
	l-14.4,0l-7.2,0l-1.8,0l-0.9,0c-0.3,0-0.8,0-1.2-0.1c-1.6-0.3-3-1.4-3.8-2.8c-0.4-0.7-0.6-1.5-0.6-2.3c0-0.2,0-0.4,0-0.5l0-0.5
	l0-0.9l0-3.6l0-7.2L0,5.6C0,4,0.8,2.3,2.1,1.3c0.6-0.5,1.4-0.9,2.2-1.1C4.7,0.1,5.1,0,5.5,0l0.9,0l7.2,0l14.4,0.1l7.2,0l1.8,0l0.9,0
	c0.3,0,0.8,0,1.2,0.1c1.6,0.3,3,1.4,3.7,2.8c0.4,0.7,0.6,1.5,0.6,2.3c0,0.2,0,0.4,0,0.5l0,0.5l0,0.9l0,3.6l0,7.2
	C43.5,37.3,43.4,56.6,43.6,75.9z"/>
<path class="st0" d="M2.2,7.7l38.3,0.6c0.5,0,0.9,0.4,0.9,0.9c0,0.5-0.4,0.9-0.9,0.9L2.2,10.6c-0.8,0-1.5-0.6-1.5-1.5
	C0.7,8.4,1.4,7.7,2.2,7.7C2.2,7.7,2.2,7.7,2.2,7.7z"/>
<path class="st0" d="M5.6,70.2l35.3-0.6c0.8,0,1.5,0.6,1.5,1.5c0,0.8-0.6,1.5-1.5,1.5c0,0,0,0,0,0L5.6,72c-0.5,0-0.9-0.4-0.9-0.9
	C4.7,70.6,5.1,70.2,5.6,70.2z"/>
<path class="st0" d="M25.7,6.2h-8.5c-0.2,0-0.4-0.2-0.4-0.4V5.6c0-0.2,0.2-0.4,0.4-0.4h8.5c0.2,0,0.4,0.2,0.4,0.4v0.1
	C26.1,6,26,6.2,25.7,6.2z"/>
<g>
	<path class="st0" d="M19.5,18.7l17.7,0.1c0.7,0,1.2,0.5,1.2,1.2c0,0.7-0.5,1.2-1.2,1.2l-17.7,0.1c-0.7,0-1.3-0.6-1.3-1.3
		S18.8,18.7,19.5,18.7C19.5,18.7,19.5,18.7,19.5,18.7z"/>
	<path class="st0" d="M10.2,24.7c-2.6,0-4.7-2.1-4.7-4.7c0-2.6,2.1-4.7,4.7-4.7c2.6,0,4.7,2.1,4.7,4.7
		C14.8,22.6,12.7,24.7,10.2,24.7z M10.2,17.5c-1.4,0-2.5,1.1-2.5,2.5c0,1.4,1.1,2.5,2.5,2.5s2.5-1.1,2.5-2.5
		C12.6,18.7,11.5,17.5,10.2,17.5z"/>
</g>
<g>
	<path class="st0" d="M19.5,32.8l17.7,0.1c0.7,0,1.2,0.5,1.2,1.2c0,0.7-0.5,1.2-1.2,1.2l-17.7,0.1c-0.7,0-1.3-0.6-1.3-1.3
		S18.8,32.8,19.5,32.8C19.5,32.8,19.5,32.8,19.5,32.8z"/>
	<path class="st0" d="M10.2,37.9c-2.6,0-4.7-2.1-4.7-4.7s2.1-4.7,4.7-4.7c2.6,0,4.7,2.1,4.7,4.7S12.7,37.9,10.2,37.9z M10.2,30.8
		c-1.4,0-2.5,1.1-2.5,2.5s1.1,2.5,2.5,2.5s2.5-1.1,2.5-2.5S11.5,30.8,10.2,30.8z"/>
</g>
<g>
	<path class="st0" d="M19.5,45.2l17.7,0.1c0.7,0,1.2,0.5,1.2,1.2c0,0.7-0.5,1.2-1.2,1.2l-17.7,0.1c-0.7,0-1.3-0.6-1.3-1.3
		C18.2,45.8,18.8,45.2,19.5,45.2C19.5,45.2,19.5,45.2,19.5,45.2z"/>
	<path class="st0" d="M10.2,51.2c-2.6,0-4.7-2.1-4.7-4.7c0-2.6,2.1-4.7,4.7-4.7c2.6,0,4.7,2.1,4.7,4.7
		C14.8,49.1,12.7,51.2,10.2,51.2z M10.2,44.1c-1.4,0-2.5,1.1-2.5,2.5c0,1.4,1.1,2.5,2.5,2.5s2.5-1.1,2.5-2.5
		C12.6,45.2,11.5,44.1,10.2,44.1z"/>
</g>
<g>
	<path class="st0" d="M19.5,59.3l17.7,0.1c0.7,0,1.2,0.5,1.2,1.2c0,0.7-0.5,1.2-1.2,1.2l-17.7,0.1c-0.7,0-1.3-0.6-1.3-1.3
		C18.2,59.9,18.8,59.3,19.5,59.3C19.5,59.3,19.5,59.3,19.5,59.3z"/>
	<path class="st0" d="M10.2,64.5c-2.6,0-4.7-2.1-4.7-4.7c0-2.6,2.1-4.7,4.7-4.7c2.6,0,4.7,2.1,4.7,4.7
		C14.8,62.4,12.7,64.5,10.2,64.5z M10.2,57.4c-1.4,0-2.5,1.1-2.5,2.5c0,1.4,1.1,2.5,2.5,2.5s2.5-1.1,2.5-2.5
		C12.6,58.5,11.5,57.4,10.2,57.4z"/>
</g>
</svg>
