<!-- Generator: Adobe Illustrator 22.1.0, SVG Export Plug-In  -->
<svg version="1.1"
	 xmlns="http://www.w3.org/2000/svg" xmlns:xlink="http://www.w3.org/1999/xlink" xmlns:a="http://ns.adobe.com/AdobeSVGViewerExtensions/3.0/"
	 x="0px" y="0px" width="77px" height="89.7px" viewBox="0 0 77 89.7" style="enable-background:new 0 0 77 89.7;"
	 xml:space="preserve">
<style type="text/css">
	.st0{fill:#D85653;}
	.st1{fill:#FFFFFF;}
</style>
<defs>
</defs>
<g>
	<path class="st0" d="M40.5,25.7c2.7-2.1,2-7.6-1.6-12.4s-8.8-7-11.5-4.9c-2.7,2.1-2,7.6,1.6,12.4S37.8,27.7,40.5,25.7z"/>
	<path class="st0" d="M43.9,25.7c2.7,2.1,7.9-0.1,11.5-4.9S59.8,10.4,57,8.4c-2.7-2.1-7.9,0.1-11.5,4.9S41.2,23.6,43.9,25.7z"/>
	<path class="st0" d="M7.4,30.9v6.5c0,0.8,0.6,1.4,1.4,1.4h0c0.8,0,1.4,0.6,1.4,1.4v46.1c0,1.8,1.5,3.3,3.3,3.3h53.6h3.3h0.4
		c1.8,0,3.3-1.5,3.3-3.3V40.2c0-0.8,0.6-1.4,1.4-1.4h0c0.8,0,1.4-0.6,1.4-1.4v-6.5c0-1.8-1.5-3.3-3.3-3.3H10.8
		C8.9,27.5,7.4,29,7.4,30.9z"/>
</g>
<ellipse transform="matrix(0.7974 -0.6035 0.6035 0.7974 -0.9976 19.0932)" class="st1" cx="27.9" cy="11" rx="6.2" ry="10.8"/>
<ellipse transform="matrix(0.6035 -0.7974 0.7974 0.6035 8.8418 39.8448)" class="st1" cx="44.5" cy="11" rx="10.8" ry="6.2"/>
<polyline class="st1" points="61.2,83.7 4.2,83.7 4.2,32.8 68.2,32.8 68.2,83.7 64.5,83.7 "/>
<rect x="1.4" y="21.5" class="st1" width="69.5" height="11.2"/>
<path class="st0" d="M35.1,20.5c-1.2,0.9-2.7,1.1-4,0.9c-1.3-0.2-2.5-0.6-3.6-1.2c-2.2-1.2-4-2.8-5.6-4.7c-1.5-1.9-2.8-4.1-3.4-6.5
	c-0.3-1.2-0.5-2.6-0.3-4c0.2-1.4,0.9-3,2.2-4c1.4-1,3.1-1.2,4.4-1c1.4,0.2,2.6,0.7,3.7,1.4c2.2,1.3,3.9,3.1,5.4,5
	c1.4,2,2.5,4.2,3,6.6c0.3,1.2,0.4,2.5,0.2,3.8C37,18.2,36.3,19.6,35.1,20.5z M33.8,18.8c0.6-0.5,1-1.3,1.1-2.2c0.1-0.9,0-2-0.3-3
	c-0.5-2-1.6-3.9-2.9-5.5c-1.3-1.6-2.9-3.1-4.7-4c-0.9-0.5-1.8-0.8-2.6-0.9c-0.9-0.1-1.6,0.1-2,0.4c-0.5,0.4-0.8,1-1,1.9
	c-0.1,0.8-0.1,1.8,0.1,2.8c0.4,2,1.3,3.9,2.5,5.6c1.2,1.7,2.7,3.3,4.5,4.3c0.9,0.5,1.8,0.9,2.8,1.1C32.3,19.4,33.2,19.3,33.8,18.8z"
	/>
<path class="st0" d="M64.5,84.7L4.2,85c-0.7,0-1.3-0.6-1.3-1.3l0,0v0l0-50.9c0-0.8,0.6-1.4,1.4-1.4h0l63.9,0c0.8,0,1.4,0.6,1.4,1.4
	v50.9v0.2c0,0.7-0.5,1.2-1.2,1.2c-0.1,0-0.1,0-0.2,0l-3.7-0.5c-0.5-0.1-0.8-0.5-0.8-1c0.1-0.4,0.4-0.7,0.8-0.8l3.7-0.5l-1.4,1.4
	V32.8l1.4,1.4l-63.9,0l1.4-1.4l0,50.9l-1.3-1.3l60.2,0.3c0.6,0,1,0.5,1,1C65.5,84.2,65,84.7,64.5,84.7z"/>
<path class="st0" d="M71,34.2H1.4c-0.8,0-1.4-0.6-1.4-1.4V21.5c0-0.8,0.6-1.4,1.4-1.4H71c0.8,0,1.4,0.6,1.4,1.4v11.2
	C72.4,33.6,71.8,34.2,71,34.2z M2.9,31.3h66.7V23H2.9V31.3z"/>
<path class="st0" d="M35,78.9l-0.7-57.4c0-1.1,0.8-1.9,1.9-1.9c1.1,0,1.9,0.8,1.9,1.9c0,0,0,0,0,0l-0.7,57.4c0,0.7-0.6,1.2-1.2,1.2
	C35.5,80.1,35,79.6,35,78.9z"/>
<path class="st0" d="M63.7,56.1l-51.2,0.7c-1.1,0-1.9-0.8-1.9-1.9c0-1.1,0.8-1.9,1.9-1.9c0,0,0,0,0.1,0l51.2,0.7
	c0.7,0,1.2,0.6,1.2,1.2C64.9,55.6,64.4,56.1,63.7,56.1z"/>
<path class="st0" d="M38.6,18.8c0.6,0.4,1.5,0.6,2.4,0.5c0.9-0.1,1.9-0.5,2.8-1.1c1.8-1,3.3-2.6,4.5-4.3c1.2-1.7,2.1-3.7,2.5-5.6
	c0.2-1,0.3-1.9,0.1-2.8c-0.1-0.9-0.5-1.5-1-1.9c-0.5-0.3-1.2-0.5-2-0.4c-0.8,0.1-1.8,0.4-2.6,0.9c-1.8,0.9-3.4,2.3-4.7,4
	c-1.3,1.6-2.4,3.5-2.9,5.5c-0.3,1-0.4,2-0.3,3C37.6,17.5,38,18.3,38.6,18.8z M37.3,20.5c-1.2-0.9-1.8-2.3-2-3.6
	c-0.2-1.3-0.1-2.6,0.2-3.8c0.5-2.4,1.6-4.6,3-6.6c1.4-2,3.2-3.8,5.4-5c1.1-0.6,2.3-1.2,3.7-1.4c1.4-0.2,3.1,0,4.4,1
	c1.3,1,2,2.6,2.2,4c0.2,1.4,0,2.7-0.3,4c-0.6,2.5-1.9,4.6-3.4,6.5c-1.5,1.9-3.4,3.5-5.6,4.7c-1.1,0.6-2.3,1-3.6,1.2
	C40,21.7,38.5,21.4,37.3,20.5z"/>
</svg>
