<!-- Generator: Adobe Illustrator 22.1.0, SVG Export Plug-In  -->
<svg version="1.1"
	 xmlns="http://www.w3.org/2000/svg" xmlns:xlink="http://www.w3.org/1999/xlink" xmlns:a="http://ns.adobe.com/AdobeSVGViewerExtensions/3.0/"
	 x="0px" y="0px" width="45.3px" height="82.8px" viewBox="0 0 45.3 82.8" style="enable-background:new 0 0 45.3 82.8;"
	 xml:space="preserve">
<style type="text/css">
	.st0{fill:#D85653;}
	.st1{fill:#FFFFFF;}
</style>
<defs>
</defs>
<path class="st0" d="M13.8,6.9H10C8.6,6.9,7.5,8,7.5,9.4l0,70.8c0,1.4,1.1,2.6,2.6,2.6l10.5,0c1,0,1.9-0.6,2.2-1.5
	c0.6-1.4,2-2.4,3.6-2.4c1.6,0,3,1,3.6,2.4c0.4,0.9,1.3,1.5,2.2,1.5h10.5c1.4,0,2.6-1.1,2.6-2.6l0-70.8c0-1.4-1.1-2.6-2.6-2.6
	l-10.5,0c-1,0-1.9,0.6-2.2,1.5c-0.6,1.4-2,2.4-3.6,2.4c-1.6,0-3-1-3.6-2.4c-0.4-0.9-1.3-1.5-2.2-1.5l-2.3,0"/>
<path class="st1" d="M7.9,1.5H1.6l0,75.9h15c0-2.1,1.7-3.9,3.9-3.9s3.9,1.7,3.9,3.9h15l0-75.9l-15,0c0,2.1-1.7,3.9-3.9,3.9
	c-2.1,0-3.9-1.7-3.9-3.9h-4.2"/>
<path class="st0" d="M7.9,2.4L1.6,3L3,1.5l0,75.9L1.6,76l15,0l-1.5,1.5c0-1.4,0.6-2.8,1.6-3.8c1-1,2.4-1.6,3.8-1.6
	c1.4,0,2.8,0.6,3.8,1.6c1,1,1.6,2.4,1.6,3.8L24.3,76l15-0.2l-1.7,1.7l0.2-75.9l1.5,1.5c-5,0-10,0-15,0l1.5-1.5
	c0,1.4-0.6,2.8-1.6,3.8c-1,1-2.4,1.6-3.8,1.6c-1.4,0-2.8-0.6-3.8-1.6c-1-1-1.5-2.4-1.5-3.8l1.3,1.3l-4.2-0.5
	c-0.5-0.1-0.8-0.5-0.7-0.9c0-0.4,0.4-0.7,0.7-0.7l4.2-0.5c0.6-0.1,1.2,0.4,1.3,1l0,0.1l0,0.3c0,0.7,0.3,1.3,0.8,1.7
	c0.5,0.5,1.1,0.7,1.7,0.7c0.6,0,1.3-0.3,1.7-0.7c0.5-0.5,0.7-1.1,0.7-1.7c0-0.8,0.7-1.5,1.5-1.5l0,0h0c5,0,10,0,15,0h0
	c0.8,0,1.5,0.7,1.5,1.5L41,77.4v0c0,0.9-0.7,1.6-1.6,1.7c0,0,0,0,0,0l-15-0.2l0,0c-0.8,0-1.4-0.7-1.4-1.5c0-0.6-0.3-1.3-0.7-1.7
	c-0.5-0.5-1.1-0.7-1.7-0.7c-0.6,0-1.3,0.3-1.7,0.7c-0.5,0.5-0.7,1.1-0.7,1.7c0,0.8-0.7,1.5-1.5,1.5h0l-15,0c-0.8,0-1.5-0.7-1.5-1.5
	l0-75.9V1.4C0.1,0.6,0.7,0,1.4,0l0.1,0l6.4,0.5c0.5,0,0.9,0.5,0.9,1C8.7,2,8.4,2.4,7.9,2.4z"/>
<path class="st0" d="M1.6,57.7l36.8,0.7c0.4,0,0.8,0.4,0.8,0.8c0,0.4-0.3,0.8-0.8,0.8L1.6,60.8c-0.8,0-1.5-0.6-1.5-1.5
	C0,58.4,0.7,57.7,1.6,57.7C1.5,57.7,1.5,57.7,1.6,57.7z"/>
<g>
	<path id="XMLID_4_" class="st0" d="M20.1,31.9c0.5-0.8,1.2-1.4,2.1-1.7c0.3-0.1,0.5-0.2,0.8-0.2c0.3,0,0.6-0.1,1-0.1
		c1.1,0,2,0.3,2.8,0.9c0.8,0.6,1.3,1.4,1.7,2.6c0.2,0.7,0.4,1.6,0.4,2.5l0,7.3c0,0.2-0.1,0.4-0.2,0.6s-0.3,0.2-0.6,0.2l-1.6,0
		c-0.2,0-0.4-0.1-0.6-0.2s-0.2-0.3-0.2-0.6l0-7.4c0-0.9-0.2-1.5-0.5-2c-0.3-0.4-0.7-0.5-1.2-0.5c-0.5,0-1,0.2-1.3,0.6
		c-0.4,0.5-0.6,1.2-0.6,2.1l0,7.3c0,0.2-0.1,0.4-0.2,0.6c-0.2,0.2-0.4,0.2-0.6,0.2l-1.6,0c-0.2,0-0.4-0.1-0.6-0.2
		c-0.2-0.2-0.2-0.3-0.2-0.6l0-6.9c0-0.4,0-0.7-0.1-0.9c-0.1-0.3-0.1-0.5-0.2-0.6c-0.1-0.2-0.2-0.3-0.3-0.4c-0.1-0.1-0.2-0.2-0.3-0.2
		C17.5,34,17.3,34,17,34c-0.3,0-0.5,0-0.8,0.1c-0.2,0.1-0.3,0.2-0.5,0.3c-0.2,0.2-0.4,0.4-0.4,0.7c-0.1,0.3-0.1,0.6-0.1,1l0,7.1
		c0,0.2-0.1,0.4-0.2,0.6c-0.2,0.2-0.4,0.2-0.6,0.2l-1.6,0c-0.2,0-0.4-0.1-0.6-0.2c-0.2-0.2-0.2-0.3-0.2-0.6l0-6.9
		c0-1.9,0.5-3.3,1.6-4.3c0.9-0.9,2-1.3,3.3-1.3C18.2,30.7,19.3,31.1,20.1,31.9z"/>
	<path id="XMLID_1_" class="st0" d="M11.9,15.3c0-0.2,0.1-0.4,0.2-0.6c0.2-0.2,0.4-0.2,0.6-0.2l1.7,0c0.2,0,0.4,0.1,0.6,0.2
		c0.2,0.2,0.2,0.3,0.2,0.6l0,2.3c0,0.2-0.1,0.4-0.2,0.6c-0.2,0.2-0.4,0.2-0.6,0.2l-1.7,0c-0.2,0-0.4-0.1-0.6-0.2
		c-0.2-0.2-0.2-0.4-0.2-0.6L11.9,15.3z M11.9,20.7c0-0.2,0.1-0.4,0.2-0.6c0.2-0.2,0.4-0.2,0.6-0.2l15.4,0c0.2,0,0.4,0.1,0.6,0.2
		c0.2,0.2,0.2,0.4,0.2,0.6l0,1.8c0,0.2-0.1,0.4-0.2,0.6s-0.3,0.2-0.6,0.2l-12.9,0l0,4.6c0,0.2-0.1,0.4-0.2,0.6s-0.4,0.2-0.6,0.2
		l-1.7,0c-0.2,0-0.4-0.1-0.6-0.2c-0.2-0.2-0.2-0.3-0.2-0.6L11.9,20.7z"/>
</g>
</svg>
